<svg xmlns="http://www.w3.org/2000/svg" width="66.626" height="66.626" viewBox="0 0 66.626 66.626">
    <defs>
        <filter id="Path_709" width="66.626" height="66.626" x="0" y="0" filterUnits="userSpaceOnUse">
            <feOffset dy="3"/>
            <feGaussianBlur result="blur" stdDeviation="3"/>
            <feFlood flood-color="#ff9416" flood-opacity=".8"/>
            <feComposite in2="blur" operator="in"/>
            <feComposite in="SourceGraphic"/>
        </filter>
        <style>
            .cls-1{fill:#ff9416}
        </style>
    </defs>
    <g id="Group_723" transform="translate(-144.477 -389.723)">
        <g filter="url(#Path_709)" transform="translate(144.48 389.72)">
            <path id="Path_709-2" d="M24.313 0A24.313 24.313 0 1 1 0 24.313 24.313 24.313 0 0 1 24.313 0z" class="cls-1" transform="translate(9 6)"/>
        </g>
        <g id="Group_3" transform="translate(165.287 403.136)">
            <g id="Group_2">
                <g id="Group_1">
                    <path id="Path_1" fill="#fff" d="M229.065 450.312a6.02 6.02 0 0 1-2.951 5.5 13.158 13.158 0 0 1-5.366 1.625v3.654h-3.078v-3.469h-3.297v3.467H211.3v-3.467h-7.238v-1.985h1.686a4.142 4.142 0 0 0 .853-.084 1.4 1.4 0 0 0 .671-.337 1.76 1.76 0 0 0 .452-.729 3.928 3.928 0 0 0 .17-1.277v-17.891a3.6 3.6 0 0 0-.17-1.21 1.714 1.714 0 0 0-.461-.72 1.623 1.623 0 0 0-.683-.357 3.368 3.368 0 0 0-.833-.1h-1.686v-1.968h7.239V427h3.077v3.962h1.686c.556 0 1.092.012 1.611.035v-4h3.078v4.3a12.727 12.727 0 0 1 4.121 1.305 5.479 5.479 0 0 1 2.951 5.143 5.755 5.755 0 0 1-.372 2.161 4.625 4.625 0 0 1-1.052 1.588 6.471 6.471 0 0 1-1.637 1.138 12.192 12.192 0 0 1-2.118.8v.181a12.046 12.046 0 0 1 2.6.9 7.754 7.754 0 0 1 2.026 1.406 5.9 5.9 0 0 1 1.326 1.922 6.169 6.169 0 0 1 .468 2.471z" transform="translate(-204.059 -427)"/>
                </g>
            </g>
        </g>
        <g id="Group_4" transform="translate(170.226 408.658)">
            <path id="Path_2" d="M238.856 503.144a6.009 6.009 0 0 1-4.722 6.717 5.8 5.8 0 0 1-6.484-7.611l-1.921.858-.517-1.578 3.763-1.431 1.212-.461.436 1.345 1.209 3.731-1.543.523-.85-2.713a4.037 4.037 0 1 0 7.675.924 4.312 4.312 0 0 0-.382-1.144 5.616 5.616 0 0 0-2.545-2.508l-.331-1.85a6.3 6.3 0 0 1 5 5.198z" class="cls-1" transform="translate(-225.212 -486.902)"/>
            <path id="Path_3" d="M231.4 457.452a6.009 6.009 0 0 1 4.722-6.717 5.8 5.8 0 0 1 6.484 7.611l1.921-.858.517 1.578-3.763 1.431-1.212.461-.436-1.345-1.209-3.731 1.543-.523.85 2.714a4.037 4.037 0 1 0-7.675-.924 4.313 4.313 0 0 0 .382 1.145 5.616 5.616 0 0 0 2.545 2.508l.331 1.85a6.3 6.3 0 0 1-5-5.2z" class="cls-1" transform="translate(-229.917 -450.648)"/>
        </g>
    </g>
</svg>
