<svg xmlns="http://www.w3.org/2000/svg" width="111.03" height="107.548" viewBox="0 0 111.03 107.548">
    <defs>
        <filter id="Path_1" width="94.911" height="106.548" x="16.119" y=".5" filterUnits="userSpaceOnUse">
            <feOffset dy="10"/>
            <feGaussianBlur result="blur" stdDeviation="10"/>
            <feFlood flood-color="#3c3c3d" flood-opacity=".502"/>
            <feComposite in2="blur" operator="in"/>
            <feComposite in="SourceGraphic"/>
        </filter>
        <filter id="Path_6" width="95.911" height="107.548" x="0" y="0" filterUnits="userSpaceOnUse">
            <feOffset dy="10"/>
            <feGaussianBlur result="blur-2" stdDeviation="10"/>
            <feFlood flood-color="#ff9416" flood-opacity=".502"/>
            <feComposite in2="blur-2" operator="in"/>
            <feComposite in="SourceGraphic"/>
        </filter>
        <style>
            .cls-4{fill:#fff}
        </style>
    </defs>
    <g id="Group_12" transform="translate(-245.387 -237.574)">
        <g id="Group_11" transform="translate(275.887 257.21)">
            <g id="Group_7">
                <g filter="url(#Path_1)" transform="translate(-30.5 -19.64)">
                    <path id="Path_1-2" fill="#ff9416" d="M373.529 219.241a3.111 3.111 0 0 0 .446-1.207c.075-.553-.674-1.68-.611-1.918.441-1.684 1.494-1.055 2.619-2.853 2.265-3.62-2.4-2.907-4.556-2.573-1.6.247-3.3.891-4.922 1.161a23.163 23.163 0 0 0-12.952-3.934h-.153a11.637 11.637 0 0 0 .151 23.273 11.637 11.637 0 1 1 0 23.274 23.279 23.279 0 0 0 19.977-35.223z" transform="translate(-295.8 -187.41)"/>
                </g>
                <g id="Group_6">
                    <g id="Group_3">
                        <g filter="url(#Path_6)" transform="translate(-30.5 -19.64)">
                            <path id="Path_6-2" fill="#3c3c3d" stroke="#707070" d="M250.185 243.137a3.118 3.118 0 0 0-.446 1.207c-.074.553.674 1.68.612 1.919-.441 1.684-1.494 1.055-2.619 2.852-2.265 3.62 2.4 2.907 4.556 2.574 1.6-.248 3.3-.891 4.922-1.161a23.166 23.166 0 0 0 12.952 3.934h.152a11.637 11.637 0 0 0-.152-23.273 11.637 11.637 0 1 1 0-23.274 23.279 23.279 0 0 0-19.977 35.222z" transform="translate(-216.39 -187.41)"/>
                        </g>
                        <path id="Path_7" fill="none" d="M303.9 215.379a3.746 3.746 0 0 0 .314-1.071 3.4 3.4 0 0 0-.452-1.728c-.039-.087-.088-.193-.123-.277.134-.388.306-.492.687-.72a4.721 4.721 0 0 0 1.772-1.7 4.836 4.836 0 0 0 .683-1.56 2.045 2.045 0 0 0-.178-1.438 2.162 2.162 0 0 0-1.348-.993 5.612 5.612 0 0 0-1.594-.193 20.392 20.392 0 0 0-2.983.3 24.168 24.168 0 0 0-2.61.609c-.692.189-1.35.368-1.993.494a24.024 24.024 0 0 0-13.139-3.886h-.127a24.144 24.144 0 0 0-20.839 36.107 3.748 3.748 0 0 0-.313 1.071 3.4 3.4 0 0 0 .452 1.729c.039.087.088.193.123.277-.134.388-.307.492-.687.72a4.726 4.726 0 0 0-1.772 1.7 4.837 4.837 0 0 0-.683 1.56 2.044 2.044 0 0 0 .177 1.438 2.161 2.161 0 0 0 1.348.993 5.614 5.614 0 0 0 1.594.193 20.39 20.39 0 0 0 2.983-.3 24.126 24.126 0 0 0 2.61-.609c.692-.189 1.35-.368 1.994-.494a24.022 24.022 0 0 0 13.139 3.886h.128a24.143 24.143 0 0 0 20.837-36.108zm-33.435 30.591l-.285-.191-.339.057c-.833.139-1.677.369-2.493.591a22.481 22.481 0 0 1-2.42.568 18.978 18.978 0 0 1-2.719.278c-1.233 0-1.429-.292-1.431-.295s-.134-.3.459-1.244a3.041 3.041 0 0 1 1.2-1.137 2.872 2.872 0 0 0 1.526-1.955 1.844 1.844 0 0 0-.279-1.24 4.346 4.346 0 0 1-.309-.807 2.272 2.272 0 0 1 .325-.85l.27-.445-.268-.447a22.417 22.417 0 0 1 10.605-32.185l-.21.2a12.5 12.5 0 0 0 8.84 21.341 10.773 10.773 0 0 1 .142 21.545h-.142a22.3 22.3 0 0 1-12.472-3.784zm21.1 2.06q.106-.1.209-.2a12.5 12.5 0 0 0-8.84-21.341 10.773 10.773 0 0 1-.142-21.545h.142a22.3 22.3 0 0 1 12.471 3.788l.285.191.339-.056a25.607 25.607 0 0 0 2.493-.591 22.566 22.566 0 0 1 2.42-.568 18.975 18.975 0 0 1 2.719-.278c1.233 0 1.429.292 1.431.295s.134.3-.459 1.244a3.04 3.04 0 0 1-1.2 1.137 2.871 2.871 0 0 0-1.526 1.955 1.844 1.844 0 0 0 .279 1.24 4.358 4.358 0 0 1 .309.807 2.272 2.272 0 0 1-.325.85l-.27.446.268.447a22.417 22.417 0 0 1-10.6 32.186z" transform="translate(-256.609 -203.21)"/>
                    </g>
                </g>
            </g>
        </g>
        <path id="Path_40" d="M174.449 121.335l3.76 2.375a.375.375 0 0 0 .4 0l3.662-2.375a.375.375 0 0 0 .114-.514l-3.734-5.948a.375.375 0 0 0-.318-.176.375.375 0 0 0-.318.177l-3.688 5.948a.375.375 0 0 0 .122.513zm3.891-5.557l3.218 5.126-3.15 2.043-3.243-2.048z" class="cls-4" transform="translate(122.047 147.874)"/>
        <path id="Path_41" d="M174.151 274.652l3.879 5.412a.375.375 0 0 0 .3.157h.007a.375.375 0 0 0 .306-.169l3.563-5.412a.375.375 0 0 0-.511-.525l-3.5 2.178-3.546-2.179a.375.375 0 0 0-.5.538zm3.852 2.4a.375.375 0 0 0 .394 0l2.248-1.4-2.324 3.529-2.478-3.457z" class="cls-4" transform="translate(122.231 -3.522)"/>
        <path id="Path_291" d="M7.464 6.624a2.941 2.941 0 0 0-.84-4.937V.736a.736.736 0 0 0-1.472 0v.736H3.68V.736a.736.736 0 0 0-1.472 0v.736H.736a.736.736 0 1 0 0 1.472h.736V10.3H.736a.736.736 0 1 0 0 1.472h1.472v.736a.736.736 0 1 0 1.472 0v-.736h1.472v.736a.736.736 0 1 0 1.472 0v-.952a2.941 2.941 0 0 0 .84-4.937zm-4.52-3.68H5.52a1.472 1.472 0 1 1 0 2.944H2.944zM5.52 10.3H2.944V7.36H5.52a1.472 1.472 0 1 1 0 2.944z" class="cls-4" transform="rotate(31 -365.932 683.185)"/>
    </g>
</svg>
