<svg xmlns="http://www.w3.org/2000/svg" width="47.421" height="68.926" viewBox="0 0 47.421 68.926">
    <defs>
        <style>
            .cls-1{fill:#b3a98c}.cls-1,.cls-11,.cls-12,.cls-13,.cls-15,.cls-16,.cls-17,.cls-18,.cls-19,.cls-2,.cls-21,.cls-23,.cls-24,.cls-25,.cls-28,.cls-29,.cls-3,.cls-30,.cls-31,.cls-32,.cls-36,.cls-38,.cls-7,.cls-8,.cls-9{fill-rule:evenodd}.cls-2{fill:#45433b}.cls-3{fill:#e6ddc4}.cls-7{fill:#0095a3}.cls-8{fill:#002a38}.cls-9{fill:#00ccde}.cls-11{fill:#b32d00}.cls-12{fill:#ff600a}.cls-13{fill:#007a85}.cls-15{fill:#009dab}.cls-16{fill:#4d4a41}.cls-17{fill:#f00524}.cls-18{fill:#bd0019}.cls-19{fill:#ffb114}.cls-21{fill:#613700}.cls-23{fill:#cf4800}.cls-24{fill:#802d00}.cls-25{fill:#750010}.cls-28{fill:#960014}.cls-29{fill:#782a00}.cls-30{fill:#ff813d}.cls-31{fill:#1f0b00}.cls-32{fill:#fff}.cls-36{fill:#ff5959}.cls-38{fill:#ff3d3d}
        </style>
    </defs>
    <g id="Group_731" transform="translate(-148.799 -27.203)">
        <g id="Leg2" transform="translate(181.093 78.616)">
            <path id="Path_1" d="M223.129 292.554a3.51 3.51 0 0 0 2.665 1.583 21.409 21.409 0 0 0 2.431 1.591c.5.939 1.327 1.574 2.336 1.155a4.975 4.975 0 0 0 1.4.916c.477.167.571.013.519-.577a2.8 2.8 0 0 0-.381-1.26 1.581 1.581 0 0 0-.559-.83c.448.242.787.3.991.2a2.491 2.491 0 0 1 1.226.543c.677.455.886.184.66-.538a5.075 5.075 0 0 0-.651-1.336.5.5 0 0 0-.137-.269c.284.109 1.1.514 1.164.076.048-.318-.3-.79-.485-.976a3.282 3.282 0 0 0-1.153-.712c-.618-.907-3.4-.379-4.31-.215-1.241-.729-2.859-2.152-4.4-5.391l1.018-2.286-.663-.068q-.244-1.443-1.758.046l.023-.1-.352.1-.443 1.43c-.458.895-.346 1.315.637 2.3l1.023 1.621a2.23 2.23 0 0 0-.693.044c-.641.136-.81.8.191.561.628-.152 2.254 1.73 1.818 1.823-.272.058-.978-.573-1.541-.17a.652.652 0 0 0-.891.471c-.024.158.076-.095.315.268z" class="cls-1" transform="translate(-222.011 -283.451)"/>
            <path id="Path_2" d="M225.67 291.121a7.791 7.791 0 0 0 .541 1.036 2.743 2.743 0 0 0 1.51-.446 4.461 4.461 0 0 0 1.147.636 2.145 2.145 0 0 1 .325-.15.762.762 0 0 0 .048.434.7.7 0 0 1 .138-.5c.1-.03.2-.056.312-.079a.724.724 0 0 0 .036.475.7.7 0 0 1 .15-.511c.135-.023.272-.042.411-.057a.615.615 0 0 0-.024.589.689.689 0 0 1 .249-.61c.13-.01.26-.017.387-.021a.56.56 0 0 0-.07.66.7.7 0 0 1 .326-.666h.326a.578.578 0 0 0-.037.677.689.689 0 0 1 .307-.669c.2.008.37.018.487.027a.294.294 0 0 0-.057.029c-.242.161-.258.47-.121.789a.786.786 0 0 1 .428-.795.8.8 0 0 1 .425.172 1.679 1.679 0 0 0-.238.319 1.089 1.089 0 0 0-.081.451 1.207 1.207 0 0 1 .263-.284 3.171 3.171 0 0 1 1.389.786 2.759 2.759 0 0 0-1.074-.915 1.046 1.046 0 0 1 .724.308c.457.377.726.915.538.873a4.827 4.827 0 0 0-1.393-.588 5.386 5.386 0 0 0-2.573-.267 2.667 2.667 0 0 1-2.859-.743 1.991 1.991 0 0 0 .742.741.527.527 0 0 0-.245.512.541.541 0 0 1 .417-.418q.093.047.194.088c-.217.164-.21.327-.058.641-.053-.335.061-.43.3-.557q.125.039.261.07a.688.688 0 0 0 .018.722.764.764 0 0 1 .19-.681 4 4 0 0 0 .4.046.705.705 0 0 0 .031.7.762.762 0 0 1 .2-.7 5.057 5.057 0 0 0 .506-.021h.031a.743.743 0 0 0-.031.89.882.882 0 0 1 .361-.911c.169-.007.336-.006.5 0a.365.365 0 0 0-.086.049c-.282.222-.27.629-.069 1.043a1.01 1.01 0 0 1 .452-1.068 3.633 3.633 0 0 1 .4.068c-.275.223-.262.627-.063 1.038a1 1 0 0 1 .321-.965 1.615 1.615 0 0 1 .7.431c-.236.037-.4.738-.416.9.149-.143.23-.241.3-.307a1.955 1.955 0 0 1 1.085 1.094 2.2 2.2 0 0 0-.754-1.216c.414.018.762.52.941 1.151.068.24.06.362 0 .393-.146.077-1.409-1-1.4-1.033-.665.36-1.316-.164-2.067-.313a8.341 8.341 0 0 1-3.956-2 2.788 2.788 0 0 0 .385.525c-.234.02-.429.253-.544.566a.85.85 0 0 1 .691-.415q.071.068.146.134a.244.244 0 0 0-.054.015c-.272.11-.4.462-.391.874a1.01 1.01 0 0 1 .6-.76q.132.106.274.205a.89.89 0 0 0-.374.866 1.019 1.019 0 0 1 .557-.742q.162.106.331.206a.929.929 0 0 0-.338.848 1.024 1.024 0 0 1 .537-.733c.138.078.277.152.416.225a1.1 1.1 0 0 0-.369.968 1.188 1.188 0 0 1 .611-.843l.4.2a1.237 1.237 0 0 0-.435 1.112 1.349 1.349 0 0 1 .714-.969c.14.073.275.145.4.217a1.281 1.281 0 0 0-.4 1.09 1.369 1.369 0 0 1 .652-.937 2.238 2.238 0 0 1 .485.4 1.11 1.11 0 0 0-.315.6.333.333 0 0 1 .171-.145 3.337 3.337 0 0 1 .983 1.3 2.3 2.3 0 0 0-.65-1.37c.869.634.983 1.661.8 1.708-.3.078-1.448-1.031-1.534-1.269a1.889 1.889 0 0 1-2.064-1.089c-.785-.237-1.981-1.308-2.786-1.542-3.068-.89-2.108-1.627-1.7-1.785a.743.743 0 0 1 .263-.043.686.686 0 0 0-.239.835c-.025-.39.3-.613.611-.766q.043.018.089.041c-.269.207-.449.341-.227.883a.8.8 0 0 1 .465-.737c.044.031.089.065.134.1-.195.144-.426.27-.195.87a.785.785 0 0 1 .391-.7 3.444 3.444 0 0 1 .751.955c.235-.514-.126-1.272-.408-1.748q-.372-.537-.74-1.078c-.566-.929-1.25-1.925-1.863-2.828a1.864 1.864 0 0 1-.616-1.17q1.353-2.378 1.572-.34-.373-1.46-1.2-.009.836-1.19 1.1.078l-.418.306.581-.018c.136.286.287.595.453.915a1.514 1.514 0 0 1-.764.194l-.507-.654a6.268 6.268 0 0 0 .434.832 2.2 2.2 0 0 0 .926-.2c.145.274.3.555.465.837a1.5 1.5 0 0 1-.778.2l-.508-.654a6.247 6.247 0 0 0 .434.832 2.2 2.2 0 0 0 .951-.212c.168.281.346.562.533.837a1.467 1.467 0 0 1-.832.238l-.507-.654a6.272 6.272 0 0 0 .434.832 2.2 2.2 0 0 0 1.021-.247c.2.279.4.55.617.807a1.416 1.416 0 0 1-.91.3l-.507-.654a6.274 6.274 0 0 0 .434.832 2.2 2.2 0 0 0 1.128-.307 7.872 7.872 0 0 0 .886.873 1.734 1.734 0 0 1-1.181.413l-.632-.815zm-.207-6.892l-.663-.068q-.244-1.443-1.758.046l.023-.1-.352.1-.443 1.43c-.458.895-.346 1.315.637 2.3l1.023 1.621a2.23 2.23 0 0 0-.693.044c-.641.136-.81.8.191.561.628-.152 2.254 1.73 1.818 1.823-.272.058-.323-.478-1.224-.313a.8.8 0 0 0-1.208.614c-.024.152.076-.1.314.262a3.51 3.51 0 0 0 2.665 1.583 21.409 21.409 0 0 0 2.431 1.591c.5.939 1.327 1.574 2.336 1.155a4.975 4.975 0 0 0 1.4.916c.477.167.571.013.519-.577a2.8 2.8 0 0 0-.381-1.26 1.544 1.544 0 0 0-.584-.844c.461.254.809.319 1.016.216a2.491 2.491 0 0 1 1.226.543c.677.455.886.184.66-.538a5.075 5.075 0 0 0-.651-1.336.5.5 0 0 0-.137-.269c.284.109 1.1.514 1.164.076.048-.318-.3-.79-.485-.976a3.282 3.282 0 0 0-1.153-.712c-.618-.907-3.4-.379-4.31-.215a10.729 10.729 0 0 1-3.908-4.42l.026-.017a2.044 2.044 0 0 0-.137-.191q-.191-.363-.381-.762l1.018-2.286zm-1.144 5.895c-.728-.834-2.044.122-.916-.137a1.024 1.024 0 0 1 .831.274c.627.515.387.209.085-.137z" class="cls-2" transform="translate(-222.011 -283.451)"/>
            <path id="Path_3" d="M230.152 303.466a1.924 1.924 0 0 0-.415.18.846.846 0 0 1 .253-.791c-1.013-1.352-.425.935-.36.972.1.032.191.12.413.213a1.168 1.168 0 0 1 .109-.574zm1.222-.18a.444.444 0 0 1 .291-.265.335.335 0 0 0-.016.433l-.275-.169zm.74-.021a.426.426 0 0 0-.2.311 3.425 3.425 0 0 0 .319.13.56.56 0 0 1-.117-.441zm-1.968-1.035a2.969 2.969 0 0 0 .4-.137l.019.036a2.1 2.1 0 0 0 .58.664.788.788 0 0 0-.072.172 7.021 7.021 0 0 1-.915-.723l-.014-.013zm2.426 1.607l.268.107a1.645 1.645 0 0 1-.11-.623.642.642 0 0 0-.157.516zm.634.212a1.323 1.323 0 0 0 .384.1 2.127 2.127 0 0 1-.184-.787.908.908 0 0 0-.2.686zm.741.16c.057.011.279.079.335.094a1.828 1.828 0 0 1-.211-.785.73.73 0 0 0-.123.691zm.768.193l.142.052c.074.027.151.054.23.079a1.856 1.856 0 0 1-.26-.972.951.951 0 0 0-.113.841zm.7.173c.04 0 .221.036.26.033a2.239 2.239 0 0 1 .216-.862 1.513 1.513 0 0 0-.277-.149 1.712 1.712 0 0 0-.2.979zm1.651.853a1.4 1.4 0 0 0-.546-.746c-.38-.19-.339-.084-.165.1.227.242.68.62.711.645zm-4.5.382a2.464 2.464 0 0 0 .334.195 1.858 1.858 0 0 1 .252-1.027h-.008a1.564 1.564 0 0 0-.578.836zm-.249-1.123a1.67 1.67 0 0 0-.3.6c.041.057.123.195.168.245a.929.929 0 0 1 .083-.428c.055-.117.169-.285.047-.421zm-1.228-.533a3.389 3.389 0 0 1-.209.35c.032.02.24.12.272.139.006-.137-.061-.35-.063-.489zm-.167-2.154a6.023 6.023 0 0 0 1.29.7c-.012-.035-.009-.394-.018-.43l-.214.145a7.365 7.365 0 0 1-1.058-.416zm1.589.752l.3-.021a1 1 0 0 1-.162-.524 4.379 4.379 0 0 0-.138.546zm.509-.022c.022 0 .344-.037.366-.041a1.062 1.062 0 0 1-.224-.62 1.694 1.694 0 0 0-.142.661zm.51-.056l.39-.048c-.025-.077-.2-.414-.145-.607-.207.288-.108.486-.245.655zm.6-.082l.352-.015c-.19-.133-.129-.478-.136-.561a1.2 1.2 0 0 0-.217.577zm.614-.037c.022 0 .266.039.288.041-.016-.1-.1-.472-.034-.582a.875.875 0 0 0-.254.54zm.6.087l.3.052c.037-.249-.114-.27.064-.538a.611.611 0 0 0-.36.486zm-6.188-1.572a2.414 2.414 0 0 0 .551-.19c.175.193.359.378.552.553a1.607 1.607 0 0 1-.679.184l-.424-.547zm-.664-1.034l.328.423a1.271 1.271 0 0 0 .438-.108q-.175-.219-.339-.447a2.39 2.39 0 0 1-.427.132zm-.648-1.027l.321.414a1.338 1.338 0 0 0 .369-.079q-.145-.221-.283-.446a2.4 2.4 0 0 1-.407.111zm-.556-1.009l.3.388a1.368 1.368 0 0 0 .324-.063q-.12-.211-.235-.426a2.408 2.408 0 0 1-.389.1zm-.821-.4c-.2-.365-.285-.42-.2-.817-.609.019-.2.346.137.721l.011.012.009.013.048.071zm.116-.827l.465.6a1.388 1.388 0 0 0 .32-.062q-.14-.276-.273-.555l-.512.016zm-.406-.49zm2.853 7.174c-.228-.076-.459-.137-.688-.217l-.012-.19a.475.475 0 0 1 .138-.363 2.929 2.929 0 0 1 .562.77zm1.322.735c.014.01.231.131.246.14a4.95 4.95 0 0 1-.009-.569 3.63 3.63 0 0 0-.237.428zm1.083.64c.046.024.194.148.24.166a1.732 1.732 0 0 1 .2-.7c-.006 0-.091-.034-.1-.037a.922.922 0 0 0-.343.569zm1.942 1.248a2.163 2.163 0 0 0 .329-.022h.018l.007-.034a1.493 1.493 0 0 1 .222-.537c-.051-.043-.1-.084-.159-.122a1.209 1.209 0 0 0-.414.7v.013zm1.5 1.106a5.729 5.729 0 0 0-.738-1.05c-.099.71.34.726.733 1.048z" class="cls-3" transform="translate(-225.178 -293.381)"/>
        </g>
        <g id="Leg_part2" fill-rule="evenodd" transform="translate(181.077 70.493)">
            <path id="Path_4" fill="#003e52" d="M225.644 251.86a20.147 20.147 0 0 0-.144 4.37c-.007.99.55.612.55.612a3.333 3.333 0 0 1 .9-.8 3.03 3.03 0 0 1-.031.924c.366-.353.464-.8.68-.939q-.158.671-.01.882a33.9 33.9 0 0 1 2.592-2.761q3.2-2.436 3.516-4.691c-3.215.6-6.524.926-8.053 2.403z" transform="translate(-224.763 -247.9)"/>
            <path id="Path_5" fill="#00506b" d="M235.534 267.841c-.231.7-1.474 1.265-1.284.845a7.646 7.646 0 0 1 2.135-2.194c-1.045.846-.789 1.209-.145 1.173a3.712 3.712 0 0 1-1.681 1.5c.579-.33 1.041-.936.975-1.324z" transform="translate(-231.854 -261.645)"/>
            <path id="Path_6" fill="#002d3b" d="M231.047 241.946l-.114-.553a6.408 6.408 0 0 1-4.236 2.914 18.825 18.825 0 0 1-3.106.294l-1.662.907q.326-.027.641-.059c-.608 1.814.359 4.766-.536 4.943a9.2 9.2 0 0 0 .931-.127c-.072.017-.153.124-.229.133a.634.634 0 0 1 .439.294c.29-.086.618-.74.841-.872a1.311 1.311 0 0 1-.345 1c.3-.046.587-.2.938-.848-.242.5-.031.825.534 1.206-.094-.232.085-.467.206-.753a.521.521 0 0 0 .111.169l.467-.28q-.48-1 1.635-2.491 4.378-3.312 3.915-6.365l-.428.487zm-6.574 3.5a4.654 4.654 0 0 0-1.579 4.077 5.957 5.957 0 0 1 .249-3.923q.747-.1 1.33-.154zm-1.072 4.546c.173-2.965 1.279-3.056 4.916-5.5a6.341 6.341 0 0 1-1.968 2.346q1.07-.421 2.741-2.875a5.125 5.125 0 0 1-2.442 3.155q1.931-.761 3.517-3.924a6.673 6.673 0 0 1-2.652 4.054c-.942.878-1.9 1.152-2.733 2.81a2.646 2.646 0 0 0 .05-.971 4.164 4.164 0 0 1-.577 1.071 2.091 2.091 0 0 0-.021-1.021c-.161.112-.319.138-.473.267a4.8 4.8 0 0 1 1.17-2.2 4.09 4.09 0 0 0-1.529 2.785z" transform="translate(-221.928 -241.393)"/>
        </g>
        <g id="Tail" transform="translate(148.799 32.831)">
            <path id="Path_7" d="M68.973 62.888c1.765.406 2.165 1.258 1.512 1.678a3 3 0 0 1-2.106.129 5.535 5.535 0 0 1 .565-2.227 3.5 3.5 0 0 0 .635.2c-.424.038-.43.175-.605.222zm9.087-5.672a13.912 13.912 0 0 0 1.051 5.358c-.295-2.474-.083-3.786-1.1-6.388a10.459 10.459 0 0 0-1.054 1.591l1.1-.561zM66.2 61.265l.5 3.135a4.473 4.473 0 0 1-2.376-.924 7.767 7.767 0 0 1-.937-3.419l.022-.005a1.514 1.514 0 0 1 1.124.245.714.714 0 0 0-.371.4l-.046.174.179.024c.432.058.867.125 1.292.217.207.045.411.1.609.156zm-6.893-.751c.381-.858.987 3.155 1.727 4.395a1.562 1.562 0 0 0-1.094.782c.866.3.054.4-.3.7-.3-2.391-1.477-3.489-1.188-6.32a1.149 1.149 0 0 0 .243-.18 1.8 1.8 0 0 0 .224-.211c.368.436.108.646.388.834zm17.471-7.567q-.731.545-1.171.921a2.207 2.207 0 0 0-.625.105 2.128 2.128 0 0 0-.638.337l-.093-2.621a2.55 2.55 0 0 1 1.01-.728 6.915 6.915 0 0 1 .96 1.089 8.456 8.456 0 0 1 .558.9zm-2.8-5.735a5.282 5.282 0 0 0-5.2.2c-1 .778-.306 1.029-.081 1.687-1.372-1-3.227-.563-5.369.883a4.115 4.115 0 0 0-2.414.77 7.941 7.941 0 0 0-1.484 2.468l.147.06a5.7 5.7 0 0 1-.287.667 6.291 6.291 0 0 0-3.2 1.45c.5 1.385-1.265 3.656-.974 3.92.05.046.254-.065.444-.149l-.644 1.02a12.615 12.615 0 0 0 .172 4.426l1.148-1.475-1 2.077q.073.267.161.539l.814-1.046-.685 1.421a10.747 10.747 0 0 0 1.393 2.63 5.625 5.625 0 0 0-.951 5.619 3.526 3.526 0 0 0 .571 2.073 8.912 8.912 0 0 0 3.048 2.708l-.3-1.807.863 2.167c.128.085.254.17.377.257l-.244-1.453.723 1.815c1.339 1.1 2.12 2.612 1.08 6.112 3.725-9.1-2.4-10.221-2.186-14.052a8.406 8.406 0 0 0 1.854 1.901l-.151-.9.443 1.112a16.063 16.063 0 0 0 5.676 2.311q-5.048-2.061-6.308-6.5a4.247 4.247 0 0 1 .691-.342 10.59 10.59 0 0 1 1.793-.5 17.38 17.38 0 0 0 .982 1.53l-.168-1 .648 1.626a12.287 12.287 0 0 0 .938 1.038l-.137-.813.437 1.1a8.6 8.6 0 0 0 3.21 1.893c-2.662-1.163-3.6-2.716-3.042-5.691a2.452 2.452 0 0 1 .854-.117c1.714 4.258 4.016 4.855 6.111 2.523-2.1 1.727-3.328 1.189-4.24-2.46a7.092 7.092 0 0 1 6.485 5.259s4.583-.257 6.576-2.167c-2.17-5.737 7.71-12.232 1.951-17.9a2.565 2.565 0 0 0-.684-1.395c-.534-.526-1.458-.924-2.549-1.791-.625-1.575-3.528-6.441-7.293-3.687zm-2.988 9.527a2.509 2.509 0 0 1 .51 2.361q-.509-.46-1.162-.966-.254-.2-.529-.4a2.749 2.749 0 0 1 1.185-1zm-3.49-2.563a10.741 10.741 0 0 1-.523 1.72c-1.061.048-2.189-1.508-2.93-2.155.166-.43-.1.047.359-.569a8.174 8.174 0 0 1 3.094 1.004z" class="cls-7" transform="translate(-54.799 -46.384)"/>
            <path id="Path_8" d="M61.672 65.053a11.2 11.2 0 0 1 1.77.74c-1.5-.282-2.113-.875-2.98-.273 3.034.978-4.389.9-4.228 7.408.59-3.112 2.316-4.969 5.281-6.214a12.081 12.081 0 0 1 6.637-.638c5.186.842 7.343 2.364 8.851 6.622-1.025-3.792-2.34-4.61-3.537-5.5l.758-.214c-4.753-2.5-6.849-.936-9.912-3.122l-1.464-.915a2.221 2.221 0 0 0 1.775 1.993 2.816 2.816 0 0 1-2.523-1.587 2.617 2.617 0 0 0 1.65 2.024 4.991 4.991 0 0 0-2.08-.324zm21.573-7.84a5.683 5.683 0 0 1 .64 1.657 5.292 5.292 0 0 0-1.037-3.322 2.943 2.943 0 0 1 1.252 1.986q.083-1.487.022-3.113c1.123 3.025-.262 8.064-1.668 10.952 1.775-3.418 3.629-8.944 1.721-11.163a1.453 1.453 0 0 0-.53-1.156c-.463-.457-1.12-.153-2.018-.878.484 1.92 1.581 8.3.828 12.371 1.038-2.567 1.517-4.615.789-7.333zm-5.471-2.345q.539.02 1.388 1.607a5.43 5.43 0 0 0-1.432-2.269q-.28-.662-.618-1.308l-.049-.162-.027.02a8.7 8.7 0 0 0-.558-.892 5.029 5.029 0 0 0-.926-.984 1.753 1.753 0 0 1 .3-.029 9.466 9.466 0 0 0-2.709-1.308 11.331 11.331 0 0 1 1.65-1.059c-2.53-.124-3.582.113-4.39.747l.249-.56-.672.26c-1.666-.872.414-1.3 1.47-1.435 3.084-.4 6.774 2.809 7.945 5.768 1.536 3.881 1.221 9.858.613 14.119-.328-3.729-.47-7.584-1.56-11.191q-.561-1.508-1.2-.8.225-.5.53-.524zm.032-5.035q-.305-1.184.689-1.353c-.734.022-1.068.365-.9 1.131q-.591-1.08.64-1.392-1.252-.126-1.072.978a10.729 10.729 0 0 0-2.521-1.686c5.707-3.1 9.574 10.36 6.055 17.171.471-4.2.285-8.741-.783-11.439a10.856 10.856 0 0 0-2.107-3.408zM62.085 86.254c1.04-3.5.259-5.013-1.08-6.112l-.723-1.815.244 1.453c-.123-.087-.249-.172-.377-.257l-.863-2.167.3 1.807a8.913 8.913 0 0 1-3.048-2.708 3.526 3.526 0 0 1-.571-2.073 5.625 5.625 0 0 1 .951-5.619 10.747 10.747 0 0 1-1.393-2.63l.685-1.421-.81 1.045q-.089-.272-.161-.539l1-2.077-1.149 1.475a12.615 12.615 0 0 1-.172-4.426l.644-1.02c-.19.083-.393.194-.444.149-.291-.264 1.476-2.535.974-3.92a6.291 6.291 0 0 1 3.2-1.45 5.7 5.7 0 0 0 .287-.667l-.147-.06a7.941 7.941 0 0 1 1.484-2.468 4.115 4.115 0 0 1 2.414-.77c2.142-1.446 4-1.883 5.369-.883-.225-.658-.918-.91.081-1.687a5.282 5.282 0 0 1 5.2-.2c3.765-2.754 6.667 2.112 7.293 3.687 1.091.867 2.015 1.265 2.549 1.791a2.565 2.565 0 0 1 .684 1.395c5.758 5.671-3.473 13.412-1.3 19.149-1.993 1.91-7.607 1.206-7.607 1.206.366-2.665-2.429-5.105-6.1-5.544.912 3.649 2.143 4.187 4.24 2.46-2.1 2.331-4.4 1.735-6.111-2.523a2.452 2.452 0 0 0-.854.117c-.559 2.976.38 4.528 3.042 5.691a8.6 8.6 0 0 1-3.21-1.893l-.437-1.1.137.813a12.286 12.286 0 0 1-.938-1.038l-.657-1.625.168 1a17.381 17.381 0 0 1-.982-1.53 10.59 10.59 0 0 0-1.793.5 4.247 4.247 0 0 0-.691.342q1.26 4.443 6.308 6.5a16.063 16.063 0 0 1-5.676-2.311L61.6 73.2l.151.9a8.4 8.4 0 0 1-1.851-1.9c-.217 3.831 5.911 4.95 2.186 14.052zM58.2 77.743c-3.381-2.856-.306-9.3 3.388-10.846a11.885 11.885 0 0 1 6.528-.625c2.162.351 5.553 1.262 6.019 3.648a9.468 9.468 0 0 0-8.613-1.414c.771-.329 1.031-.922 1.426-1.133-1.053.381-2.8.652-3.443 1.36-.02-.375.193-.763 1.106-1.4C59.9 69.051 56 73.092 58.2 77.743zm15.936-17.659c-1.268-2.023-3.231-4.849-5.86-4.494 1.047-.557 1.134-.834.329-1.453a6.151 6.151 0 0 0-3.841-1.486c-.24.01 1.943-.52 1.98-.567-1.854-.922-4.685-.888-5.729.194.738-1.46 2.708-1.684 3.8-1.827 5.166-.68 12.253 10.8 13.471 15.652-1.322-1.141-1.366-1.662-2.25-3.1-.694-1.129-2.369-3.619-2.6-2.519-.2-.68.237-.729.7-.4zm-3.146-3.345a2.749 2.749 0 0 0-1.185 1q.275.2.529.4.653.506 1.162.966a2.509 2.509 0 0 0-.505-2.363zm7.024-.553a10.459 10.459 0 0 0-1.054 1.591l1.1-.561a13.912 13.912 0 0 0 1.051 5.358c-.295-2.474-.083-3.786-1.1-6.388zm-.955.018a3.267 3.267 0 0 1-.6 1.765l-.267.384 1.271-.4c1.681 5.331 1.616 7.2 1.724 12.652-.129-8.665-8.511-20.4-13.866-20.615 2.6-.99 2.186-1.642 4.7.3a2.787 2.787 0 0 1 .6-.22 10.9 10.9 0 0 1 .9 2.376l.218-2.055q1.1 1.544 1.432 1.9l-.218 1.868.747-1.719q.121-.2.245-.371l.105 2.955a2.291 2.291 0 0 1 1.15-.784c-.589.6.148 1.6.4 1.61.307-.672.666-.938.9-.872-.714.776-.249 2.211-.249 2.211l.807-.984zm-1.454-2.337q.439-.376 1.171-.921a8.456 8.456 0 0 0-.558-.9 6.915 6.915 0 0 0-.96-1.089 2.55 2.55 0 0 0-1.01.728l.093 2.621a2.128 2.128 0 0 1 .638-.337 2.207 2.207 0 0 1 .625-.105zm0 12.113c-2.33-.425-3.6-2.13-5.735-3.066a5.426 5.426 0 0 0 1.105-.509 3.93 3.93 0 0 1-1.024.006h-.007a3.4 3.4 0 0 1-.861-.23c-.374-.141-.754-.328-1.148-.52-.329-.161-.668-.327-1.023-.477a7.1 7.1 0 0 0-1.254-.384c-.34-.074-.69-.132-1.041-.183a.986.986 0 0 1 .3-.125l.341-.087-.291-.2-.048-.034a1.974 1.974 0 0 0-1.578-.429 7.377 7.377 0 0 1-.775.128l.374-.814q-.49.795-2.678.841l.778-1.214-1.54 1.173h-.035c.444-.5 1.334-1.431 1.114-1.652-.5 1.477-4.371 1.719-4.715 2.555.081-.284 1.429-1.887 1.413-2.272 1.3-2.351 11.134-2.588 18.33 7.5zm-3.622-5.959c3.644 1.687 6.274 8.359 6.425 12.2-.867-9.543-12.842-18.006-21.919-14.464.309-.753.932-1.505.871-2.316.238-.385.58-.586 2.47-1.053l.14-.7a4.65 4.65 0 0 0 1.339 2.055 17.144 17.144 0 0 1-.78-2.743l1.37 1.65 1.65.467.226-.588a9.285 9.285 0 0 0 1.094.8c1.37.858 4.023 1.494 4.627 3.792.063-.114.065-1.019.13-1.121q.267.2.513.388A15.6 15.6 0 0 1 71.96 60l.022.024zM67.5 54.176a8.174 8.174 0 0 0-3.094-1c-.455.616-.193.139-.359.569.741.648 1.869 2.2 2.93 2.155a10.741 10.741 0 0 0 .523-1.72zm1.475 8.712c1.765.406 2.165 1.258 1.512 1.678a3 3 0 0 1-2.106.129 5.535 5.535 0 0 1 .565-2.227 3.5 3.5 0 0 0 .635.2c-.424.038-.43.175-.605.222zM66.7 64.4a4.473 4.473 0 0 1-2.376-.924 7.767 7.767 0 0 1-.937-3.419l.022-.005a1.514 1.514 0 0 1 1.124.245.714.714 0 0 0-.371.4l-.046.174.179.024c.432.058.867.125 1.292.217.207.045.411.1.609.156l.5 3.135zm-5.671.509a1.562 1.562 0 0 0-1.094.782c.866.3.054.4-.3.7-.3-2.391-1.477-3.489-1.188-6.32a1.149 1.149 0 0 0 .243-.18 1.8 1.8 0 0 0 .224-.211c.368.436.108.646.388.834.381-.858.987 3.155 1.727 4.395zm1.381-4.7h.012z" class="cls-8" transform="translate(-54.799 -46.384)"/>
            <path id="Path_9" d="M91.9 57.443c.133.636.244 1.285.342 1.921l.5.323a2.975 2.975 0 0 1 .686.607q0-.691-.025-1.382l-.025-.661a1.841 1.841 0 0 0-.334-.436.508.508 0 0 0-.15-.1 4.687 4.687 0 0 0-.7-.176c-.1-.026-.2-.057-.3-.092zm.512 3.083q.06.446.111.894l.277-.12a3.5 3.5 0 0 0-.395-.778zm.171 1.436q.115 1.114.171 2.232c.019.391.033.789.038 1.19a8.778 8.778 0 0 0-.21-3.422zM91 66.112a17.174 17.174 0 0 0 .3-4.166 17.791 17.791 0 0 0-1.54-6.658A9.011 9.011 0 0 0 88.5 53.3l-.266.045a.574.574 0 0 0-.351.164.809.809 0 0 0-.04.6 11.313 11.313 0 0 1 2.114 3.455 16.416 16.416 0 0 1 .935 4.46 33.11 33.11 0 0 1 .1 4.083zm-3.659-13.8a2.874 2.874 0 0 0-.877-.332 2.622 2.622 0 0 0-1.2.055 11.075 11.075 0 0 1 1.268.854.968.968 0 0 1 .143-.222 1.1 1.1 0 0 1 .671-.355zm-3.66 1.581c.228-.13.461-.252.686-.387.106-.063.211-.129.312-.2A10.137 10.137 0 0 1 86.3 54.53a9.653 9.653 0 0 1 2.4 3.357c1.045 2.64 1.209 6.26 1.023 9.59a38.025 38.025 0 0 0-.968-6.046l.6-.276-.138-.351a6.156 6.156 0 0 0-1.474-2.368q-.266-.618-.577-1.215l-.2-.668-.123.091q-.168-.275-.355-.538-.144-.2-.3-.387l.627-.007L85.749 55a10.44 10.44 0 0 0-2.073-1.108zm-.723-1.359a4.4 4.4 0 0 0-1.779-.16c-.267.035-.535.079-.8.136a3.6 3.6 0 0 0-.906.308 1.45 1.45 0 0 0 .215.152l1.4-.541-.175.392a4.758 4.758 0 0 1 .645-.161 9.031 9.031 0 0 1 1.4-.127zm-6.589 1.784a12.4 12.4 0 0 1 4.446 2.959l-.014-.342a3.443 3.443 0 0 0-.208-.675c-.156-.413-.332-.822-.511-1.227-.069.028-.137.059-.206.092l-.222.105-.194-.15a12.094 12.094 0 0 0-1.344-.951 1.308 1.308 0 0 0-.657-.215 2.3 2.3 0 0 0-.768.256l-.321.148zm4.478 2.99l.163.161q.62.617 1.205 1.292l.218-1.865c-.149-.174-.292-.366-.426-.544q-.152-.2-.3-.4l-.147 1.383-.713-.023zm1.894 2.077q.312.382.613.777l-.072-2.016-.541 1.239zm.739.943a32.045 32.045 0 0 1 1.8 2.67l.456-.655-.179-.55a3.887 3.887 0 0 1-.163-.918q0-.07-.005-.141h-.111c-.474-.015-.862-.689-.965-1.089q-.016-.061-.026-.122c-.087.083-.172.173-.266.267l-.536.543zm2.02 3.045l1.387-.44a31.811 31.811 0 0 1 1.313 5.858q.04.355.07.711a29.847 29.847 0 0 0-1.841-4.422c-.292-.572-.605-1.145-.937-1.712zm-6.4-3.669q.152.028.3.069c2.1.57 3.659 2.827 4.757 4.578L85 65.7q.1.131.189.261c.3.425.592.865.866 1.31.192.312.372.63.55.95.116.21.232.421.357.625-.282-.7-.6-1.4-.94-2.076a38.113 38.113 0 0 0-2.771-4.664 25.05 25.05 0 0 0-4.41-5.009c-1.131-.932-2.756-1.975-4.3-1.773-.356.047-.752.1-1.15.182a7.867 7.867 0 0 1 1.25.093 6.818 6.818 0 0 1 1.955.6l.443.22-.309.387a.855.855 0 0 1-.455.217 8.283 8.283 0 0 1 2.247 1.269c.322.248.721.589.693 1.038a.754.754 0 0 1-.127.367zm5.947 8.8a8.94 8.94 0 0 0-3.548-3.64l-.071-.033-.075-.081a14.771 14.771 0 0 0-1.717-1.524 2.408 2.408 0 0 1-.059.45 20.755 20.755 0 0 1 1.947 1.339 20.417 20.417 0 0 1 3.513 3.485zm-6.48-5.4a18.929 18.929 0 0 0-3.155-1.33 16.233 16.233 0 0 0-3.647-.72l-.4-.985c-.129-.316-.242-.65-.342-.991l.335.4 2.121.6.161-.418q.341.258.7.485a14.08 14.08 0 0 0 1.374.71 12.391 12.391 0 0 1 1.456.791 5.122 5.122 0 0 1 .719.564 3.31 3.31 0 0 1 .676.891zm-7.373-2.082l-.494-.528a9.162 9.162 0 0 1-1.014-1.258l-.077.019c-.357.088-.714.179-1.066.283a6.439 6.439 0 0 0-.651.221 1.125 1.125 0 0 0-.444.28q0 .087-.008.173a3.476 3.476 0 0 1-.471 1.327 12.512 12.512 0 0 1 1.806-.395 13.549 13.549 0 0 1 2.419-.122zm4.588 3.949l-.9-.617-.045-.031a2.317 2.317 0 0 0-1.9-.491h-.009l.217-.473-.67-.359-.2.32c-.234.38-.955.538-1.576.6l1.185-1.848a13.476 13.476 0 0 1 1.918.353 17.362 17.362 0 0 1 5.53 2.6 20.824 20.824 0 0 1 1.779 1.389l-.516.068a3.525 3.525 0 0 1-.92.006h-.007a3.006 3.006 0 0 1-.76-.2h-.012c-.38-.144-.749-.327-1.114-.506-.345-.169-.689-.337-1.043-.487a6.909 6.909 0 0 0-.97-.323zm5.806 1.866l-.738.4c-.115.062-.231.125-.348.185.348.195.684.409 1.017.635.524.355 1.034.733 1.571 1.07a7.774 7.774 0 0 0 1.16.611 24.276 24.276 0 0 0-2.662-2.9zm-10.064-4.793a9.9 9.9 0 0 0-1.347-.014l.359.362a.5.5 0 0 1 .146.29l.841-.638zm-1.477 0q-.32.025-.632.074a3.286 3.286 0 0 0-2.081.981 3.421 3.421 0 0 1-.543 1.01c.369-.121.742-.232 1.109-.355.545-.183 1.767-.6 1.974-1.2z" class="cls-9" transform="translate(-64.475 -50.859)"/>
            <path id="Path_10" d="M76.972 151.689a9.546 9.546 0 0 1 1.028-.067 10.4 10.4 0 0 1 5.026 1.261c-1.122-1.4-3.652-1.99-5.169-2.236a14.116 14.116 0 0 0-1.564-.167l-1.455 1.02c.636-.2 1.291-.349 1.779-.525l.35-.127v.84zm-1.411-1.224l-1.282.468c-2.99 1.092-6.294 3.377-7.119 6.634a6.021 6.021 0 0 0-.184 1.359 7.54 7.54 0 0 1 1.14-4.428 7.854 7.854 0 0 1 3.431-3.252 10.545 10.545 0 0 1 4.014-.781z" class="cls-9" transform="translate(-64.6 -130.364)"/>
            <path id="Path_11" fill="#001f29" fill-rule="evenodd" d="M164.062 165.053q-10.635.41-12.023.445 1.157-1.206-.407-2.761a4.579 4.579 0 0 1 1.594 1.594 3.171 3.171 0 0 0-1.594-2.366q.913-.7.847-.548a4.552 4.552 0 0 1 1.246 2.79 1.592 1.592 0 0 0 .3-2.067 11.175 11.175 0 0 1 1.445 1.918 5.023 5.023 0 0 0 .075-2.715 7.571 7.571 0 0 1 1.3 2.316 10.947 10.947 0 0 0 1.071-4.21 7.225 7.225 0 0 0 1.868 4.051c-1.042-1.656-.593-4.246.1-5.794-.183 2.406-.333 4.174.747 4.758-.357-1.921.648-3.753 1.04-4.825-.875 2.347.047 3.629.378 3.536.611-.172.709-3.122.815-3.108 1.278 1.886 2.061 5.875 2.45 6.091q-.027 1.642-1.252.895z" transform="translate(-132.93 -136.15)"/>
        </g>
        <g id="Wing_2" transform="translate(191.178 59.291)">
            <path id="Path_12" d="M276.827 187.651a12.09 12.09 0 0 0-.2-4.26q3.963 4.645 1.975 8.572c-.114-.442-.2-.784-.251-1.024-.478 1.412-1.326 2.731-2.446 3.064q.463-.647.716-1.074a13.461 13.461 0 0 1-2.4 1.806 6.127 6.127 0 0 0 2.927-4.889z" class="cls-11" transform="translate(-274.227 -183.391)"/>
            <path id="Path_13" d="M290.057 200.388a5.93 5.93 0 0 1-1.308 3.4c.269-1.207 1.128-4.244.747-5.958 1.207 1.227 1 3.147.913 4.214a3.931 3.931 0 0 0-.352-1.656z" class="cls-12" transform="translate(-285.944 -195.045)"/>
        </g>
        <g id="Torso" transform="translate(180.888 60.063)">
            <path id="Path_14" d="M230.339 208.091l-.607 3.884a7.785 7.785 0 0 1-.838 5.258 14.216 14.216 0 0 0 10.638-5.055 12.359 12.359 0 0 0 .769-4.919l-2.079 2.059q-6.947-1.425-7.883-1.227z" class="cls-13" transform="translate(-227.359 -203.422)"/>
            <path id="Path_15" fill="#004359" fill-rule="evenodd" d="M223.517 200.729c4.067-.6 5.08-1.348 6.258-2.794a9.206 9.206 0 0 1-5.437 2.259 10.4 10.4 0 0 0 4.5-1.985 14.932 14.932 0 0 1-4.341 1.6 5.9 5.9 0 0 0-.13-2.827 8.072 8.072 0 0 1-.079 2.434 6.188 6.188 0 0 0-.264-2.546 7.2 7.2 0 0 1-.5 3.859zm2.641-7.822a5.987 5.987 0 0 0 1.759 3.194 7.854 7.854 0 0 1-2.208-3.044 6.057 6.057 0 0 0 3.348 4.171q-2.3-.6-3.883-3.73a5.51 5.51 0 0 0 4.583 4.3c-2.649.295-5.014-1.33-5.864-4.355l-1.689-1.9q-4.575-7.571 7.488-1.342a21.1 21.1 0 0 1 1.227 2.535 3.791 3.791 0 0 1 .645-.3 1.214 1.214 0 0 0 .03-.778q.1.372.167.716l.081.193 1.368-2.2.166.17c.251-1.013.347-2.231.393-2.262 1.937 3.125.776 7.954-3.043 10.252-1.877 1.7-4.65 2.674-8.612 2.952.78-.9 1.118-2.392 1.308-4.486l.446-.178a6.573 6.573 0 0 1-.882 4.207c2.958-.439 5.961-.965 7.291-3.578a1.376 1.376 0 0 1 .052.673 1.367 1.367 0 0 0 .534-.412l-.08.487a6.058 6.058 0 0 0 2.358-5.966c-.374.5-.755.925-1.051 1.4.141.916-.141 1.647-1.137 2.784a3.175 3.175 0 0 0 .212-3.038c-.025.357.156 1.458-.328 1.9.081-1.994-2.989-2.772-4.68-2.365z" transform="translate(-220.947 -187.388)"/>
            <path id="Path_16" d="M242.083 224.172a13.549 13.549 0 0 0 2.3-.85q-1 .268-1.779.4a10.373 10.373 0 0 0 1.479-.5q-.9.236-1.618.361a11.926 11.926 0 0 0 1.375-.455 5.742 5.742 0 0 1-1.819-1.2q-.08.124-.165.244a7.863 7.863 0 0 1 .223 2zm7.335-5.418q.444 2.68-1.764 3.508a4.587 4.587 0 0 0 1.764-3.508zm-2.888 3.67c.443-.723-1.981-1.43-2.765-3.894q2.971.431 3.255 2.674a2.757 2.757 0 0 0-1.043-2.264 2.061 2.061 0 0 1 1.024.872c.399.804.807 2.016-.471 2.611z" class="cls-15" transform="translate(-237.821 -212.515)"/>
        </g>
        <g id="Leg1" transform="translate(169.345 79.882)">
            <path id="Path_17" d="M166.656 292.447c-.2.228-.516.7-.516.7-.362 2.427-1.08 4.705-1.633 7.089a5.307 5.307 0 0 1-.66 1.013c-.994 1.088-3.433 2.282-2.436 3.793-.1.747-.025 1.481.215 1.552.343.1 1.206-1.174 1.33-1.393.647.023 1.14-.317 1.4-1.3a2.783 2.783 0 0 0 .2-.2c-.148.565-.258 1-.261 1.039-.047.651.315 1.35.358 1.078a10.611 10.611 0 0 0 .167 1.41q.205.637.467.326a8.077 8.077 0 0 0 .942-1.464v.016a1.373 1.373 0 0 0 .693-1.6 3.975 3.975 0 0 1 .189-1.325c.369.382.326.358.543.987-.018.888.342 1.469 1.024 1.515.283.537.949 1.32 1.311 1.207a2.2 2.2 0 0 0 .052-1.8c.461-1.031-.96-2.987-1.9-4.192a8.185 8.185 0 0 1-.127-2.43l.625-5.016.157-1.259-.2.358a.037.037 0 0 0-.024.016q-.293-1.661-1.949.033z" class="cls-1" transform="translate(-161.178 -291.419)"/>
            <path id="Path_18" d="M166.405 291.362c-.141.195-.264.379-.264.379-.362 2.427-1.08 4.705-1.633 7.089a5.308 5.308 0 0 1-.66 1.013c-.994 1.088-3.433 2.282-2.436 3.793-.1.747-.025 1.481.215 1.552.343.1 1.206-1.174 1.33-1.393.647.023 1.14-.317 1.4-1.3a2.79 2.79 0 0 0 .2-.2c-.148.565-.258 1-.261 1.039-.047.651.315 1.35.358 1.077a10.611 10.611 0 0 0 .167 1.41q.205.637.467.326a8.077 8.077 0 0 0 .942-1.464v.016a1.373 1.373 0 0 0 .693-1.6 3.975 3.975 0 0 1 .189-1.325c.369.382.326.358.543.987-.018.888.342 1.469 1.024 1.515.283.537.949 1.409 1.311 1.3a2.415 2.415 0 0 0 .052-1.884c.461-1.031-.96-2.987-1.9-4.192a8.173 8.173 0 0 1-.127-2.43l.782-6.275-.2.358c-.032 0-.07.092-.112.25l-.207-1.328.012-.067a1.779 1.779 0 0 0-1.892 1.354zm1.885 1.059c-.362 2.193-.831 6.468-.837 6.535a.638.638 0 0 0-.221.079c.191.222.383.617.732 1.036.958 1.146 2.293 2.739 1.894 3.512a1.711 1.711 0 0 1 .023 1.741c-.353-.164-1.794-1.662-.205-1.841a1.459 1.459 0 0 0-1.2.323 1.146 1.146 0 0 1-.5-.978c-.224-.846-.829-2.084-1.054-2.9a16.489 16.489 0 0 0-.269 3.008c.1.459.183.726-.2 1.138a.826.826 0 0 0-.607-.471c.706.482-.544 2.3-.581 2.306-.273.146-.45-.414-.49-1.907.042-.206.27-.5.968-.419a.813.813 0 0 0-1.17.288c-.267-.828.651-1.778.679-2.876a8.6 8.6 0 0 1 .059-1.061c-.058.1-1.088 1.783-1.186 2.047a1.738 1.738 0 0 1-1.088 1.321.7.7 0 0 0-.43-.2.509.509 0 0 1 .232.243c-.1.244-.75 1.694-1.142 1.621-.175-.033-.247-.5-.143-1.467a.683.683 0 0 1 .727-.5q-.608-.134-.817.2c-.2-1.225 1.88-1.905 2.75-3.236a2 2 0 0 1 1.282-1.053.642.642 0 0 1-.329-.394c.341-2.168.9-4.2 1.3-6.346.061.075.1.227.168.285-.054.2-.084.352-.134.628a2.213 2.213 0 0 0 1.4.15 4.343 4.343 0 0 0 .09-.681 2.65 2.65 0 0 0 .3-.132zm-1.537.132a1.173 1.173 0 0 0 1.1.042q-.044.189-.084.419a1.435 1.435 0 0 1-1.077-.076l.06-.386zm3.06 12.533c-.3-.283-1.185-1.032-.562-1.413.638.553.327 1.076.562 1.413zm-2.267-10.686a5.021 5.021 0 0 1 .207-.847 3.575 3.575 0 0 1-.082 1.066 2.211 2.211 0 0 1-1.4-.15 6.657 6.657 0 0 1 .256-1.033l-.059.888a1.435 1.435 0 0 0 1.077.076zm-.181 1.287a5.555 5.555 0 0 1 .23-.939 3.965 3.965 0 0 1-.09 1.181 2.452 2.452 0 0 1-1.551-.167 7.417 7.417 0 0 1 .284-1.145l-.066.984a1.59 1.59 0 0 0 1.193.084zm-.15 1.33a5.26 5.26 0 0 1 .218-.944 3.716 3.716 0 0 1-.062 1.183 2.783 2.783 0 0 1-1.661-.125 7.015 7.015 0 0 1 .27-1.152l-.042.986a1.806 1.806 0 0 0 1.277.052zm-.2 1.349a5.241 5.241 0 0 1 .218-.945 3.717 3.717 0 0 1-.062 1.183 2.786 2.786 0 0 1-1.661-.125 7.025 7.025 0 0 1 .27-1.152l-.042.986a1.807 1.807 0 0 0 1.277.052zm-5.221 6.5c-.27.048-.308-.344-.121-1.373a.489.489 0 0 1 .636-.3c-.141.115-.818 1.633-.515 1.675zm3.314.925a3.757 3.757 0 0 1-.13-1.927c.164-.111.453-.181.557-.1a6.968 6.968 0 0 0-.424 2.029z" class="cls-2" transform="translate(-161.178 -290.008)"/>
            <path id="Path_19" d="M164.525 353.125a1.02 1.02 0 0 1 1.692.342 1.409 1.409 0 0 0-1.692-.342z" class="cls-16" transform="translate(-163.879 -340.682)"/>
            <path id="Path_20" d="M167.9 350.247a.823.823 0 0 1 1.365.276 1.137 1.137 0 0 0-1.365-.276z" class="cls-16" transform="translate(-166.604 -338.408)"/>
            <path id="Path_21" d="M170.73 347.638a.69.69 0 0 1 1.144.232.953.953 0 0 0-1.144-.232z" class="cls-16" transform="translate(-168.885 -336.336)"/>
            <path id="Path_22" d="M174.306 345.021a.513.513 0 0 1 .851.172.709.709 0 0 0-.851-.172z" class="cls-16" transform="translate(-171.77 -334.268)"/>
            <path id="Path_23" d="M176.652 342.465a.449.449 0 0 1 .744.151.62.62 0 0 0-.744-.151z" class="cls-16" transform="translate(-173.663 -332.222)"/>
            <path id="Path_24" d="M178.582 340.165a.391.391 0 0 1 .649.131.54.54 0 0 0-.649-.131z" class="cls-16" transform="translate(-175.221 -330.381)"/>
            <path id="Path_25" d="M179.932 338.272a.391.391 0 0 1 .649.131.54.54 0 0 0-.649-.131z" class="cls-16" transform="translate(-176.31 -328.853)"/>
            <path id="Path_26" d="M179.686 357.117a1.02 1.02 0 0 1 1.692.342 1.409 1.409 0 0 0-1.692-.342z" class="cls-16" transform="translate(-176.111 -343.902)"/>
            <path id="Path_27" d="M181.1 353.887a.869.869 0 0 1 1.442.292 1.2 1.2 0 0 0-1.442-.292z" class="cls-16" transform="translate(-177.253 -341.333)"/>
            <path id="Path_28" d="M182.524 350.759a.7.7 0 0 1 1.157.234.964.964 0 0 0-1.157-.234z" class="cls-16" transform="translate(-178.401 -338.852)"/>
            <path id="Path_29" d="M183.422 348.034a.593.593 0 0 1 .983.2.819.819 0 0 0-.983-.2z" class="cls-16" transform="translate(-179.126 -336.68)"/>
            <path id="Path_30" d="M184.123 345.428a.593.593 0 0 1 .983.2.819.819 0 0 0-.983-.2z" class="cls-16" transform="translate(-179.692 -334.577)"/>
            <path id="Path_31" d="M184.256 343.018a.593.593 0 0 1 .983.2.819.819 0 0 0-.983-.2z" class="cls-16" transform="translate(-179.799 -332.633)"/>
            <path id="Path_32" d="M184.379 340.922a.593.593 0 0 1 .983.2.819.819 0 0 0-.983-.2z" class="cls-16" transform="translate(-179.898 -330.942)"/>
            <path id="Path_33" d="M184.649 338.854a.593.593 0 0 1 .983.2.819.819 0 0 0-.983-.2z" class="cls-16" transform="translate(-180.116 -329.273)"/>
            <path id="Path_34" d="M199.562 356.717a.952.952 0 0 0-1.579.32 1.314 1.314 0 0 1 1.579-.32z" class="cls-16" transform="translate(-190.875 -343.596)"/>
            <path id="Path_35" d="M198.253 353.354a.906.906 0 0 0-1.5.3 1.251 1.251 0 0 1 1.5-.3z" class="cls-16" transform="translate(-189.881 -340.894)"/>
            <path id="Path_36" d="M196.875 350.076q-.728-.628-1.23.279a.949.949 0 0 1 1.23-.279z" class="cls-16" transform="translate(-188.988 -338.267)"/>
            <path id="Path_37" d="M195.511 347.1q-.682-.587-1.152.262a.888.888 0 0 1 1.152-.262z" class="cls-16" transform="translate(-187.951 -335.881)"/>
            <path id="Path_38" d="M194.412 344.906q-.593-.511-1 .228a.773.773 0 0 1 1-.228z" class="cls-16" transform="translate(-187.185 -334.135)"/>
            <path id="Path_39" d="M193.391 342.773q-.516-.5-.872.224a.626.626 0 0 1 .872-.224z" class="cls-16" transform="translate(-186.466 -332.417)"/>
            <path id="Path_40" d="M192.643 340.925q-.408-.4-.689.177a.494.494 0 0 1 .689-.177z" class="cls-16" transform="translate(-186.01 -330.961)"/>
            <path id="Path_41" d="M169.352 313.922c-.193-.6.174-.686.2-.71a4.25 4.25 0 0 1-1.316-.084c.078.313.036.254-.17.519.395-.137.846-.424 1.283.275zm2.854 3.965a2.042 2.042 0 0 1 .124.644.961.961 0 0 0-.4-.563.421.421 0 0 1 .28-.081zm-3.814-2.893q.234-.345.41.026a.412.412 0 0 0-.41-.026zm.381.558q-.231-.424-.529-.083a.46.46 0 0 1 .529.083zm-.026.566q-.292-.624-.662-.106a.6.6 0 0 1 .662.106zm-.859.433q.525-.424.856.213a1.059 1.059 0 0 0-.856-.213zm1 1.048q-.6-1.126-1.37-.384a1.222 1.222 0 0 1 1.37.384zm-1.464.15q.713-.582 1.344.249a1.646 1.646 0 0 0-1.344-.249zm2.5-2.61l-.109-.213a.771.771 0 0 1 .472-.073.56.56 0 0 0-.363.285zm.213.5l-.122-.262a.542.542 0 0 1 .5-.086.672.672 0 0 0-.376.348zm2.255 3.662a.7.7 0 0 0-.01-.68 1.032 1.032 0 0 0 .01.68zm-1.515-1.536q0 .22.145.228a2.071 2.071 0 0 1 1.043-.431 1.407 1.407 0 0 0-1.189.2zm-.625-1.908c.009.021.1.2.106.218a1.178 1.178 0 0 1 .411-.379.757.757 0 0 0-.517.161zm.256.575c.012.035.076.3.088.333a1.276 1.276 0 0 1 .661-.475.718.718 0 0 0-.749.142zm.2.72a1 1 0 0 1 .949-.223 1.217 1.217 0 0 0-.881.551c-.011-.048-.061-.28-.068-.328zm-.693-9.293a2.424 2.424 0 0 1-.737-.083l-.048.717a1.2 1.2 0 0 0 .612.052 4.821 4.821 0 0 1 .172-.685zm-2.2 12.075c.208-.372.876-1.222.358-1.773a9.567 9.567 0 0 0-.358 1.773zm-3.532-2.862a2.755 2.755 0 0 1 1.254.406c.077-.032.268-.16.3-.267a1.236 1.236 0 0 0-1.552-.139zm1.806-.155a1.634 1.634 0 0 0-.7-.559c.319-.005.67-.037.885.175-.029.063-.149.326-.184.384zm.318-.7c.018-.039.129-.248.151-.288a1.146 1.146 0 0 0-.727-.178 1.7 1.7 0 0 1 .576.466zm.286-.559c.034-.059.188-.307.222-.365-.138-.12-.335-.058-.5-.012.123.065.176.246.282.377zm.417-.62c.019-.031.123-.223.141-.254-.09-.07-.326.021-.431.037a1.285 1.285 0 0 1 .29.217zm-2.685 3.933c.41-.624.795-.644.52-1.381a3.574 3.574 0 0 0-.52 1.381zm4.3-8.519l-.028.673a1.577 1.577 0 0 0 .813.041 5.864 5.864 0 0 1 .132-.612 2.657 2.657 0 0 1-.917-.1zm1.074-1.211a2.412 2.412 0 0 1-.822-.106l-.042.638a1.357 1.357 0 0 0 .729.06c.036-.2.08-.4.136-.592zm-.351 2.653a2.974 2.974 0 0 1-.92-.077l-.028.657a1.578 1.578 0 0 0 .813.041 5.794 5.794 0 0 1 .13-.615z" class="cls-3" transform="translate(-163.682 -304.348)"/>
        </g>
        <g id="Head" transform="translate(178.45 27.203)">
            <path id="Path_42" d="M212.21 20.1l-.013-.011a.3.3 0 0 0-.338-.074.506.506 0 0 0-.2.3 3.851 3.851 0 0 0-.026 1.5 3.622 3.622 0 0 1 .045 1.252c-.1.518-.216 1.035-.327 1.552-.088.412-.177.825-.252 1.24a6.6 6.6 0 0 0-.127 1.923 5.338 5.338 0 0 0 .775 2.087c.271.463.575.91.886 1.346.417.585.854 1.158 1.293 1.728l.052.067.037-.077a3.217 3.217 0 0 1 1.34-1.518 1.764 1.764 0 0 1 .726-.2 1.388 1.388 0 0 1 .658.13 1.693 1.693 0 0 1 .717.743v-.04c0-.105 0-.21-.007-.316 0-.12-.006-.241-.007-.361v-.121c0-.04 0-.088.05-.091s.06.065.07.1c.017.057.032.114.048.172.048.172.1.343.15.514.019.06.038.121.059.181.027.081.216.672.3.686.052.009.067-.019.075-.068v-.011c-.019-.325-.066-.653-.069-.979v-.186l.09.163a5 5 0 0 1 .252.83 8.525 8.525 0 0 0 .64 1.438 1.967 1.967 0 0 0 1.072.824 3.725 3.725 0 0 0 1.453-2.5 7.912 7.912 0 0 0 0-1.761c-.026-.282-.063-.565-.1-.846q-.08-.649-.168-1.3c-.062-.462-.127-.924-.2-1.384-.026-.171-.054-.342-.084-.513a2.933 2.933 0 0 0-.062-.3.694.694 0 0 0-.169-.325c-.123-.084-.194.043-.238.147a1.863 1.863 0 0 0-.1.329c-.041.184-.07.372-.095.558l-.006.042h-.084v-.042c-.053-.6-.113-1.2-.195-1.794a7.989 7.989 0 0 0-.2-1.072c-.028-.1-.108-.355-.225-.387-.136-.037-.222.186-.256.279a4.634 4.634 0 0 0-.168.674c-.07.365-.123.735-.172 1.1l-.005.041h-.083L219 25.5c-.078-.707-.183-1.414-.29-2.118-.044-.291-.1-.582-.174-.867-.065-.264-.139-.527-.228-.785a4.072 4.072 0 0 0-.259-.618.778.778 0 0 0-.28-.328c-.143-.064-.232.033-.3.156a5.589 5.589 0 0 0-.254 1.736c-.019.487-.038 1-.1 1.48a2.1 2.1 0 0 1-.061.335c-.015.051-.045.136-.111.133-.082 0-.139-.139-.165-.2a3.891 3.891 0 0 1-.147-.457c-.122-.451-.219-.915-.312-1.373-.08-.391-.155-.783-.229-1.175-.041-.216-.082-.432-.127-.648l-.228-1.092c-.046-.222-.082-.444-.121-.667a3.054 3.054 0 0 0-.117-.495 2.106 2.106 0 0 0-.577-.813c-.243-.233-.484-.342-.654.019a9.16 9.16 0 0 0-.014 3.113c.046.426.083.856.1 1.284a4.664 4.664 0 0 1-.042.959c-.015.082-.048.237-.121.288s-.149-.032-.192-.075a2.364 2.364 0 0 1-.361-.526c-.183-.334-.342-.689-.491-1.039a5.524 5.524 0 0 0-.935-1.627z" class="cls-17" transform="translate(-210.442 -17.443)"/>
            <path id="Path_43" d="M218.543 46.334c.084.12.05-.768.13-.655.176.248.444 1.342.6 1.583.046.069-.044-1.073.075-1.064a3.446 3.446 0 0 0 1.318 1.99c.954.5 2.11-.279 1.316-3.98-.157 4.368-.734 2.568-.347-.463.019-.151-.278.353-.338.089-1.284 4.417-.674-.469-.8-1.107-.068-.341-.58.62-.56.165-.476 4.8-.45 3.808-1.012-2.841-.26.862-.716.42-1.105 0 .246 3.522.2 4 .041 4.228-.285.405-1.03-2.245-1.8-5.831-.061 1.243-.355 1.622-1.057.576 1.081 3.5 1.374 4.586 1.375 4.625-1.4-.463-2-2.131-2.051-5.013-.024-1.263-.126-1.418-1.077-3.022-.208.714.449 1.425.413 2.08-.169 3.06-.162 5.939 1.806 7.458 1.1.851 1.856.421 3.074 1.181zm-5.94-5.9q.98 6.387 4.307 5.462a2.387 2.387 0 0 0-1.692 1.658c-1.943-1.668-3.266-4.561-2.618-7.117z" class="cls-18" transform="translate(-211.642 -32.067)"/>
            <path id="Path_44" d="M228.794 21.079c.05-1.243.431-1.885.8-.947a30.342 30.342 0 0 1 .961 6.2c-.342-3.285-1.294-5.022-1.761-5.25zm5.064 5.766c.129-1.343.569-.513.624 2.918-.093-1.915-.359-2.785-.624-2.918zm-1.923-2.864c.074-1.831.737-.7 1.073 3.978-.273-2.611-.702-3.797-1.073-3.978z" class="cls-18" transform="translate(-224.841 -19.213)"/>
            <path id="Path_45" d="M231.1 102.553q-.514 1.665-1.825 1.6-1.99-1.152-1.956-4.369a.836.836 0 0 1-.325-.644c-.131-1.043.034-1.661.57-1.806a1.614 1.614 0 0 1 .66-2.039 1.881 1.881 0 0 1 2.6.794l.054-.21q1.409 1.1 1.332 1.024a1.721 1.721 0 0 0 1.894-1.177c.583.349.788.632.642.853l-.132.3a1.657 1.657 0 0 1 .132.65 4.191 4.191 0 0 1 .2 1.09l-.183.413q.487.669.222.821a1.4 1.4 0 0 0-.806 2.009 7.29 7.29 0 0 0 1 2.37q3 5 .682 6.038l-.887-.389q-1.379 1.6-2.8.5a3.018 3.018 0 0 1-1.977-3.378 14.173 14.173 0 0 1 1.123-4.178z" class="cls-17" transform="translate(-223.352 -80.058)"/>
            <path id="Path_46" d="M216.373 109.765a11.562 11.562 0 0 0 5.44 2.359c.182.03-.345-.556-.185-.5a20.678 20.678 0 0 1 2.5.816c3.757-1.057 2.513-7.2 1.1-9.714q-.638 3.031-2.254 1.375-1.214 1.879-3.545-.12-1.9-1.154-1-4.054l.777-3.021q-.732 1.634-1.989 1.315-1.852-.819-1.9-4.213a2.39 2.39 0 0 1-.324-1.674c.108-.446.294-.724.59-.783a.98.98 0 0 1-.155-.647q.345-1.561 1.359-1.549a6.892 6.892 0 0 1 2.757 1.261l.7.3q-.814-1.722-1.166-2.443-.136 1.156-.083.966-.515-1.359-.59-1.519l-.041.8a1.818 1.818 0 0 0-2.6-.259 4.429 4.429 0 0 0-.809 1.521q-.294 1.644-.654 1.873a1.566 1.566 0 0 1 .339.113 2.613 2.613 0 0 1-1.113 1.658 1.123 1.123 0 0 0 1.02.568 16.233 16.233 0 0 1-1.84 2.587c-.4.646-.4.729.267.231-1.463 4.356-1.241 8.017 1.354 10.725a11.929 11.929 0 0 0 2.045 2.028z" class="cls-19" transform="translate(-211.351 -74.271)"/>
            <path id="Path_47" fill="#de9400" fill-rule="evenodd" d="M228.161 139.258c2.318-1.419 2.515-3.431 2.053-5.681a7.787 7.787 0 0 0-1.675-3.389c0 .082-1.087.451-.768.766 1.043 1.029 1.889 3.559 1.658 4.209.081-.236-.217-.827-.755-1.214a3.729 3.729 0 0 1 .14 3.347q-.1-1.992-2.4-5.636a8.816 8.816 0 0 1 .934 6.009c-1.234-3.045-2.965-.829-4-5.215a5.407 5.407 0 0 0 2.693 5.215 7.015 7.015 0 0 1-3.347-2.164c.254.507.778 1.394.42 2.008a12.5 12.5 0 0 1-4.7-6.383 7.774 7.774 0 0 0 .779 3.394c-1.8-1.286-2.232-4.182-1.806-8.314a24.615 24.615 0 0 0 .685 3.768 20.487 20.487 0 0 1 .4-6.01l.187 1.463a4.1 4.1 0 0 0 .459-1.526 5.511 5.511 0 0 1-.446-2.716c-.621.453-1.46 2.712-1.846 4.709-.921 4.772.9 8.977 3.557 11.015a11.284 11.284 0 0 0 4.942 2.01c.23.042-.294-.486-.06-.46.686.081 2.142.675 2.896.795z" transform="translate(-214.994 -101.116)"/>
            <path id="Path_48" d="M211.75 94.3c-.353.014-.641.065-.9-.266a4.22 4.22 0 0 0 1.121-2.084c-.185.26-.238.492-.568.453.783-.815.34-3.093 2.457-3.81-1.591.112-2.118 1.593-2.253 2.629a1.489 1.489 0 0 1-.507 1.178c.077.11.11.171.259.194a.993.993 0 0 0 .178.008 3.094 3.094 0 0 1-1.159 1.532 1.719 1.719 0 0 0 .759.667 20.2 20.2 0 0 1-1.878 3c-.006.114.04.342.56-.036-2.538 5.943-2.156 9.454 3.6 12.676a9.336 9.336 0 0 0 4.618 2.614 2.278 2.278 0 0 0-.669-.638 11.367 11.367 0 0 0 2.382.67 2.861 2.861 0 0 1-.841-.763 6.715 6.715 0 0 0 2.475.965 6.281 6.281 0 0 0 .849-.868l-.008.541a8.3 8.3 0 0 0 1.528-2.974c.366-1.653-.055-3.326-.721-5.354a25.319 25.319 0 0 0-1.273-3.012 5.435 5.435 0 0 1 .019 2.329 8.393 8.393 0 0 1 1.16 7.436 4.711 4.711 0 0 0 0-1.882 3.779 3.779 0 0 1-1.257 2.719 3.152 3.152 0 0 0-.31-1.8 2.937 2.937 0 0 1-.443 1.919 6.632 6.632 0 0 1-3.634-1.212 3.847 3.847 0 0 0 1.133 1.3 10.136 10.136 0 0 1-6.1-3.977 5.036 5.036 0 0 0 .682 1.455c-4.121-4.257-4.321-7.337-2.715-12.76-1.104.863.897-1.16 1.456-2.849z" class="cls-21" transform="translate(-208.326 -74.81)"/>
            <path id="Path_49" d="M231.2 99.036c-.458-.546-.1-1.3.521-1.772a1.032 1.032 0 0 1 1.472.11.95.95 0 0 0-.592-.009c-.29.155-.376.626.662 1.173a7.253 7.253 0 0 1-1.619-1.059 4.68 4.68 0 0 0 2.46 1.969 2.123 2.123 0 0 1 .426.282 2.153 2.153 0 0 0-.618-.6c.875.346.953.157 1.012-.335.98.663 1.245.448 1.674.218q-.078.47.428.125a3.711 3.711 0 0 0-.406 1.941c-.244-1.71-1.125-2.306-1.52-.129-.248-.826-1.785.049-2.879-.692a1.642 1.642 0 0 1-.717-1.414 1.188 1.188 0 0 0-.086-.724 2.022 2.022 0 0 0-.218.919zm5.978 3.781q.018 1.52-.416 1.364c.437 2.664 2.372 4.239 1.972 6.427a4.873 4.873 0 0 0-.779-3.775q1.517 2.064 1.07 3.6c1.426-1.209-1.536-5.77-1.847-7.616zm.322-5.04q.356.425-.33 1.018a1 1 0 0 0 .174-.76l.156-.258zm.309 3.8q.621-.043.088-1a.69.69 0 0 0 .093-.7l-.331.372q-.022.429-.787.746a5.066 5.066 0 0 0 .884-.112q.023.638-.816.424.108.352.87.269zm-5.625.434a3.282 3.282 0 0 1 1.365 2.063 2.6 2.6 0 0 0-.4-1.662 5.935 5.935 0 0 1 1.215.985c.178 1.111-.333 2.04-.692 3.329-.47 1.738-.439 2.759.036 3.672 1.415 2.721 5.641 2.039 3.292-2.983a8.579 8.579 0 0 1-1-3.791c-.644-.524-1.032-.917-1.49-1.264-.184-.14-.569-.107-.694-.328q-.151-.547.783-.931c-1.137.084-1.869.88-2.615-.42l-.623-.623-.041.181a2.045 2.045 0 0 0-.016.607.694.694 0 0 1-.446.276c-.165 2.227.481 3.7 1.69 4.054-1.066-.721-1.582-1.918-1.41-3.9.1 2.838 1.65 4.717 2.379 3.069-.6 1.169-1.15.086-1.741-2.611a2 2 0 0 0 .411.279zm2.932 1.915c.962 1.748 1.588 5.15.916 6.25q.546-.32.55-2.53c1.015 4.892-3.215 4.018-1.59-2.074a6.378 6.378 0 0 0-1.279 3.233c.059-1.061.449-4.105 1.399-4.876z" class="cls-18" transform="translate(-226.481 -81.606)"/>
            <path id="Path_50" fill="#ffa136" fill-rule="evenodd" d="M246.215 114.049c-.2.115-.167.27-.234.42a6.491 6.491 0 0 1 2.032 1.5l.747.413q.338.487.522.233-.018-.989 0-1.214a1.692 1.692 0 0 1 .754-1.106q-.2-.42-.552-.326-.728.029-1.183-1.152-.12-.543-.5-.28l-.42 1.09a1.965 1.965 0 0 1-1.166.422z" transform="translate(-238.709 -94.066)"/>
            <path id="Path_51" d="M237 106.732a.854.854 0 0 1-.008-.641q.185-.725.6-.529a2.1 2.1 0 0 0 1.122.654q-.189 1.026-.823 1.1a2.262 2.262 0 0 1-.891-.584z" class="cls-23" transform="translate(-231.412 -88.471)"/>
            <path id="Path_52" d="M237.747 105.64a.5.5 0 0 0-.432.342 4.049 4.049 0 0 1 1.425 1.093.834.834 0 0 0 .18-.782 2.745 2.745 0 0 1-1.173-.653z" class="cls-24" transform="translate(-231.716 -88.568)"/>
            <path id="Path_53" d="M262.618 108.143c-.322-.134-.274-.592-.24-.8.083-.506.786-.84.852-.931a1.592 1.592 0 0 1 .046 1.339 1.353 1.353 0 0 1-.658.392z" class="cls-23" transform="translate(-251.919 -89.193)"/>
            <path id="Path_54" d="M262.6 106.552a2.085 2.085 0 0 1 .407-.16.948.948 0 0 1 .278.946 1.752 1.752 0 0 1-1.3.919 1.2 1.2 0 0 1 .062-.51c.794.803 1.479-.9.553-1.195z" class="cls-25" transform="translate(-251.62 -89.175)"/>
            <path id="Path_55" fill="#de8116" fill-rule="evenodd" d="M250.885 117.826c.544.515 1.629 1.667.661-.284a1.95 1.95 0 0 1-.156-1.02 1.21 1.21 0 0 1-.934 1.082 4.882 4.882 0 0 0 1.422 1.3 5.521 5.521 0 0 1-.993-1.083zm2.762-.245a2.332 2.332 0 0 0-.858 1.309q-.291-1.187-.592-2.207a1.145 1.145 0 0 0 1.19.593z" transform="translate(-242.319 -97.349)"/>
            <path id="Path_56" fill="#ffc98c" fill-rule="evenodd" d="M255.923 114.55a5.251 5.251 0 0 1 .944 2.748 25.424 25.424 0 0 0-.944-2.748zm1 2.991c.036 0 .065.108.065.241s-.029.241-.065.241-.065-.108-.065-.241.033-.241.069-.241z" transform="translate(-246.73 -95.757)"/>
            <path id="Path_57" d="M235.928 101.894c.575.335 1.19.469 1.644.808q-.172-.014-.342-.04a1.173 1.173 0 0 1 .49.964 1.742 1.742 0 0 0-.962-.922 2.394 2.394 0 0 1 .032.644l.008.091a2.037 2.037 0 0 1-1.675-.207c-.662-.4-1.19-1.567-.1-1.631a7.207 7.207 0 0 1-.81-.852c.243-.2 1.145.813 1.715 1.145zm.477.554a3.486 3.486 0 0 1-.627-.3 4.55 4.55 0 0 1-.527-.361c-.588.009-.732.883-.093 1.268.86.521 1.576-.062 1.242-.607z" class="cls-25" transform="translate(-229.213 -84.601)"/>
            <path id="Path_58" d="M221.58 37.532c-.034-.036-.264-.332-.264-.332.4-.333.638-.439.286-.874a2.157 2.157 0 0 1-.855.275c.987-.308.948-.591.819-.927a2.361 2.361 0 0 0 .318-.4.784.784 0 0 1-.159.963q.867.669-.145 1.3zm-6.861-20.059q-.491-.471-.729.033a7.82 7.82 0 0 0-.019 3.138 9.4 9.4 0 0 1 .056 2.229.446.446 0 0 1-.1.258c-.023.016-.066 0-.132-.07a5.582 5.582 0 0 1-.841-1.55 4.776 4.776 0 0 0-.963-1.657.336.336 0 0 0-.39-.078.532.532 0 0 0-.22.328 3.9 3.9 0 0 0-.027 1.521 3.445 3.445 0 0 1 .045 1.236c-1.191 4.266-1.311 6.673 2.356 10.042.4-.849 1.057-1.794 2.095-1.839a1.338 1.338 0 0 1 .636.125c.41.195.546.5.781.853.014-.132-.027-1.034-.006-1.035s.138.514.279.933c.125.372.236.7.335.717.071.012.115-.022.129-.107v-.022c-.015-.266-.067-.693-.069-.977a5.159 5.159 0 0 1 .249.822c.263.774.757 2.226 1.481 2.238.271 0 .44.036.835-.574.2-.308.381-.547.53-.8l-.618 1.282q.535-.809.778-1.2c.419.359.419.665-.347 1.286a3.418 3.418 0 0 0 .573-.458c.133.089-.124.366-.23.477a1.745 1.745 0 0 1 .575-.163l-.248-.419a.934.934 0 0 0-.2-1.472 7.083 7.083 0 0 0 .129-2.211c-.061-.656-.484-3.909-.611-4.344a.663.663 0 0 0-.188-.351c-.115-.078-.221-.035-.308.167a3.841 3.841 0 0 0-.2.9 18.9 18.9 0 0 0-.4-2.875q-.108-.378-.257-.419-.184-.05-.312.309a10.205 10.205 0 0 0-.342 1.787l-.025-.229q-.1-.849-.29-2.12a8.336 8.336 0 0 0-.666-2.285.771.771 0 0 0-.3-.348c-.136-.06-.258-.013-.357.178a4.987 4.987 0 0 0-.259 1.756c-.054 1.4-.133 1.905-.221 1.9-.206-.008-.584-1.99-.81-3.169-.05-.264-.093-.488-.127-.649l-.228-1.092c-.2-.98-.1-1.3-.829-2zm-3.518 9.4c.363 2.3 1.258 3.934 2.928 4.667-2.04.144-3.332-3.1-2.928-4.667zm3.754-7.645a2.859 2.859 0 0 0-.029-1.2 3.825 3.825 0 0 1 .427 1.484l.228 1.093c.032.152.075.379.126.645.236 1.238.633 3.317 1 3.331.141.006.261-.255.342-.912-.118 1.2-.245 1.476-.942 1.034 1.758 1.979 1.087-1.853 1.048-2.631a3.727 3.727 0 0 1 .217-1.256c.038-.074.071-.1.1-.087a.614.614 0 0 1 .208.261 8.12 8.12 0 0 1 .643 2.22q.192 1.27.289 2.113a11.648 11.648 0 0 1 .106 1.2c.01.655-.248 1.051-.4.265.311 2.275.588.012.623-.5a13.971 13.971 0 0 1 .422-2.481 1.09 1.09 0 0 1 .074-.184q.041.011.118.282a24.049 24.049 0 0 1 .459 3.675c.058 1.107-.135.856-.319.375a2.016 2.016 0 0 0 .275.835c.16.124.231-.627.261-.961.207-2.708.67-1.046.62.481-.006.172-.01.348-.01.53s0 .367.015.553c.02.33.05.658.08.978.135 1.579-.149 2.893-.764 3.314-.46.314-1.182.2-1.637-1.047a7.054 7.054 0 0 0-.694-1.541 7.854 7.854 0 0 0-.047.987l-.066-.212a3.437 3.437 0 0 0-.556-1.173c0 .207-.115.3-.1.694a1.5 1.5 0 0 0-.5-.388 1.657 1.657 0 0 0-.851-.126c-3.931.357-4.714-4.3-3.674-7.921.063-.311-.586-1.438-.551-2.273q.167-1.207.845.552a5.032 5.032 0 0 0-.12-.775 9.334 9.334 0 0 1 .551 1.124 5.7 5.7 0 0 0 .886 1.615c.148.144.275.166.384.091a.31.31 0 0 0 .087-.1c.069.653-.192.727-.62.58.744 1.324 1.086.517.746-2.194-.018-.3-.046-.631-.082-.96-.233-2.094.471-3.967.782-1.389z" class="cls-28" transform="translate(-210.202 -17.245)"/>
            <path id="Path_59" d="M253.932 119.777c.039.035.036-.186-.053-.572.063.112.547 1.238.149 1.014a1.174 1.174 0 0 1-.323-.313c-.062-.092-.084-.178-.012-.233.041-.031.147.02.239.104z" class="cls-29" transform="translate(-244.895 -99.513)"/>
            <path id="Path_60" d="M238.856 109.442a.386.386 0 0 0 .168-.172c-.424.284-.848.066-.8-.578a.447.447 0 0 0-.093.307.841.841 0 0 1-.039-.374.688.688 0 0 0 0 .571c.161.3.747.585 1.031.2a.417.417 0 0 1-.267.046z" class="cls-30" transform="translate(-232.296 -90.977)"/>
            <path id="Path_61" d="M238.548 105.822v.014c.088.57-.205.98-.82.9a.546.546 0 0 0 .5-.252.889.889 0 0 0 .124-.618.946.946 0 0 0-.032-.137q.113.05.226.092zm-.983-.294a.459.459 0 1 0 .469.388.432.432 0 0 0-.469-.388zm-.692-.165a.815.815 0 0 1 .353-.322c.058.051.208.188.267.235a.483.483 0 0 0-.453.195.89.89 0 0 0-.124.618.923.923 0 0 0 .132.355.78.78 0 0 1-.176-1.081z" class="cls-31" transform="translate(-231.242 -88.085)"/>
            <path id="Path_62" d="M237.528 105.212c-.024.174.21.213.4.224a1.461 1.461 0 0 1-.467-.061 4.626 4.626 0 0 1-1.777-.822 1.319 1.319 0 0 0 .465-.093 1.191 1.191 0 0 1-.683-.049 1.307 1.307 0 0 0 .617-.072 5.436 5.436 0 0 0 1.445.873z" class="cls-31" transform="translate(-230.223 -87.518)"/>
            <path id="Path_63" d="M238.355 109.026a.172.172 0 1 0-.134-.168.154.154 0 0 0 .134.168z" class="cls-32" transform="translate(-232.447 -91.029)"/>
            <path id="Path_64" d="M238.007 108.213a.2.2 0 0 1 .158.081.3.3 0 0 1 0 .359.195.195 0 0 1-.315 0 .3.3 0 0 1 0-.359.2.2 0 0 1 .158-.081zm.08.143a.1.1 0 0 0-.16 0 .2.2 0 0 0 0 .235.1.1 0 0 0 .16 0 .2.2 0 0 0 0-.235z" class="cls-31" transform="translate(-232.099 -90.644)"/>
            <path id="Path_65" fill="#ff5252" fill-rule="evenodd" d="M228.168 108.673c.2.052.452.41.312.936s-.53.814-.728.762-.479-.669-.34-1.2a.612.612 0 0 1 .756-.498z" transform="translate(-223.696 -91)"/>
            <path id="Path_66" fill="#ffabab" fill-rule="evenodd" d="M228.519 109.228c.064.017.147.133.1.3s-.172.264-.236.247-.155-.217-.11-.388a.2.2 0 0 1 .245-.163zm.207.618c-.114.374-.4.577-.541.538-.121-.032-.284-.343-.286-.672 0 .014-.009.029-.013.045-.106.4.108.868.258.908s.447-.179.553-.578a.869.869 0 0 0 .029-.241z" transform="translate(-224.085 -91.458)"/>
            <path id="Path_67" d="M229.645 99.547c-.36-1-1.637.01-1.909-1.5-.172.7.2.932 1.018 1.377a2.222 2.222 0 0 0 .891.125zm.027-1.2c-.882.006-2.3.073-2.281-1.351l-.031-.046a1.42 1.42 0 0 0-.337-.308l-.023-.01a.943.943 0 0 1-.271-.3c-.068.072-.158.179-.245.29a.758.758 0 0 1 .115-.038c-.684 1.268-.012 2.315.662 1.427a1.866 1.866 0 0 1-.282.508c.363-.162.416-.428.393-1.015.262.727.135 1.1-.615 1.339-.191 6.2 5.62 4.065 2.306.7a5.361 5.361 0 0 1 1.546 1.375 4.187 4.187 0 0 0-.086-1.134l.3.281a2.189 2.189 0 0 1-.02.905c-.747 2.739-2.173 5.937-.22 7.519 3.313 2.684 4.429-.922 2.69-3.923a6.208 6.208 0 0 1-.539-1.356 18.859 18.859 0 0 1-.452-2.046l.2-.034a18.682 18.682 0 0 0 .446 2.024 6.018 6.018 0 0 0 .521 1.312 6.889 6.889 0 0 1 1.042 3.079 2.382 2.382 0 0 1-.058 1.122c2.628-.515.475-4.111-.167-5.422a13.367 13.367 0 0 1-1.056-3.014l.17-.39a16.122 16.122 0 0 0 1.065 3.316c.819 1.671 2.332 2.911 2 4.969-.116 1.041-1.507 2.067-2.1 1.243-1.077 1.185-3.084.349-4.149-.665-1.658-1.578-.642-4.47.079-6.693-1.453 2.976-4.06.046-3.7-3.3-.737-.15-.652-1.587-.2-2.163a.95.95 0 0 1 .329-.263 1.354 1.354 0 0 1-.071-.868c.339-1.165.6-1.444 1.419-1.524.966-.53 2.438 1.028 3.223 1.662l.426.689a6.176 6.176 0 0 1-1.453-1.269 5.406 5.406 0 0 0 .618 1.176c-1.84-2.388-2.786-2.1-3.135-1.563.156-.543-.716-.067-.9.868a.941.941 0 0 0 .29 1.015l.015.01a1.177 1.177 0 0 1 .269.3 3.563 3.563 0 0 1 .095-.514c-.182 1.491 1.089 2.135 2.43 1.9a.269.269 0 0 1 .257.308.965.965 0 0 0-.515-.128z" class="cls-28" transform="translate(-222.612 -79.003)"/>
            <path id="Path_68" d="M245.961 112.547c.152-.077.362-.053.662-.2.495-.237.606-.875.747-1.239.47-1.209 1.017.887 1.124 1.04a.838.838 0 0 0 .374.3c.438.159.59.038.709.092.5.228.083.521-.122.69a1.206 1.206 0 0 0-.282.327 1.122 1.122 0 0 0-.132.687 2.872 2.872 0 0 1-.017 1.182l-.023.047-.051.008a.51.51 0 0 1-.378-.069.62.62 0 0 1-.223-.293c-1.261-.65-1.424-1.237-2.421-1.774-.473-.255-.548-.508.031-.8zm2.83 2.063a9.868 9.868 0 0 0-1.107-3.431c-.417-.033-.2 1.089-.874 1.412-.262.126-.56.1-.777.239-.345.22-.007.261.226.388.95.521.7.921 2.1 1.635l.044-.115c.059.5.438.6.39-.129zm-.394-2.327a13.705 13.705 0 0 1 .474 1.514 1.22 1.22 0 0 1 .132-.336 1.447 1.447 0 0 1 .391-.431c.16-.12.187-.237-.049-.32-.1-.036-.194.057-.485-.049a1.013 1.013 0 0 1-.443-.373z" class="cls-29" transform="translate(-238.361 -92.681)"/>
            <path id="Path_69" d="M261.985 107.936a2.121 2.121 0 0 1 1.118-.525q-.023-.508-.227-.618c-.323.163-.437.242-.891 1.143z" class="cls-24" transform="translate(-251.622 -89.498)"/>
            <path id="Path_70" d="M263.691 110.768a.844.844 0 0 0-.027-.208c-.088.521-.379.742-.612.314a.435.435 0 0 0 .078.262.433.433 0 0 1-.168-.192c.046.2.131.318.229.341s.28-.083.43-.254a.616.616 0 0 0 .143-.48.567.567 0 0 1-.073.217z" class="cls-30" transform="translate(-252.411 -92.531)"/>
            <path id="Path_71" d="M262.9 106.4l.007.007a.972.972 0 0 1-.006 1.246.992.992 0 0 0 .112-.592.755.755 0 0 0-.188-.473.392.392 0 0 0-.07-.056q.074-.063.145-.132zm-.587.638a.561.561 0 0 0 .047.581c.118.117.288.047.38-.156a.561.561 0 0 0-.047-.58c-.118-.117-.288-.047-.38.156zm-.364.536c.063-.256.151-.543.317-.616-.393.675-.165.988.241 1.03-.232.093-.521.081-.561-.418z" class="cls-31" transform="translate(-251.59 -89.179)"/>
            <path id="Path_72" d="M262.873 111.578c.036-.063.1-.068.135-.011a.226.226 0 0 1 0 .218c-.036.063-.1.068-.135.011a.226.226 0 0 1 0-.218z" class="cls-32" transform="translate(-252.317 -93.319)"/>
            <path id="Path_73" d="M262.664 111.182a.145.145 0 0 1 .107-.082.112.112 0 0 1 .1.058.3.3 0 0 1 .043.158.355.355 0 0 1-.043.179.145.145 0 0 1-.107.082.112.112 0 0 1-.1-.058.3.3 0 0 1-.043-.157.352.352 0 0 1 .043-.179zm.1.019a.073.073 0 0 0-.055.041.182.182 0 0 0-.021.092.193.193 0 0 0 .029.1.065.065 0 0 0 .121 0 .181.181 0 0 0 .021-.092.191.191 0 0 0-.029-.1.073.073 0 0 0-.071-.042z" class="cls-31" transform="translate(-252.135 -92.973)"/>
            <path id="Path_74" fill="#5c0000" fill-rule="evenodd" d="M262.626 105.919a2.391 2.391 0 0 0-1.031 1.806q.048-1.6 1.066-1.931a.243.243 0 0 1 .221.33c-.17-.202-.256-.205-.256-.205z" transform="translate(-251.307 -88.692)"/>
            <path id="Path_75" d="M262.453 106.451a14.575 14.575 0 0 1 1.346-1.03 1.65 1.65 0 0 1-.458.059 1.232 1.232 0 0 0 .588-.215 1.555 1.555 0 0 1-.584.114 2.464 2.464 0 0 0-.892 1.072z" class="cls-31" transform="translate(-251.999 -88.266)"/>
            <path id="Path_76" d="M254.249 155.5c.123-.014.252.241.289.569s-.033.605-.156.619-.253-.241-.289-.569.033-.609.156-.619z" class="cls-36" transform="translate(-245.246 -128.795)"/>
            <path id="Path_77" d="M254.03 149.013c.062 0 .114.132.117.3s-.046.3-.108.3-.114-.132-.117-.3.046-.299.108-.3z" class="cls-36" transform="translate(-245.116 -123.564)"/>
            <path id="Path_78" d="M240.964 128.8c.123-.014.253.241.289.569s-.033.605-.156.619-.253-.241-.289-.569.033-.607.156-.619z" class="cls-36" transform="translate(-234.527 -107.254)"/>
            <path id="Path_79" d="M242.591 100.659c.089-.086.347.036.577.273s.344.5.255.585-.347-.036-.577-.273-.346-.498-.255-.585z" class="cls-36" transform="translate(-235.949 -84.527)"/>
            <path id="Path_80" fill="#ffd769" fill-rule="evenodd" d="M230.791 110.562l-.07-.135-1.749-3.49 2.619 2.609a5.452 5.452 0 0 1-.278-2.538l.074-.562a5.4 5.4 0 0 1-.652-.527c-1.424-1.355-1.214-3.423-.718-5.3a1.785 1.785 0 0 1-.251.014 2.3 2.3 0 0 1-1.683-.906c-.082.226-.172.437-.248.6-1.194 2.626-.473 5.737 1.1 8.077a12.184 12.184 0 0 0 1.814 2.111l.045.042zm-2.8-19.987q.526-.252.368.093a1.948 1.948 0 0 1 2.154.1q-.754-1.472-1.977-.81a1.163 1.163 0 0 1 .81-.005 2.587 2.587 0 0 0-1.355.618zm4.6 16.5a5.375 5.375 0 0 0 .832 1.981 2.472 2.472 0 0 0 .94.681 4.465 4.465 0 0 1 1.112.7l.021.019a8.521 8.521 0 0 0-.749-3.243 3.354 3.354 0 0 1-2.153-.134z" transform="translate(-223.588 -75.752)"/>
            <path id="Path_81" d="M225.524 39.9c.786 4.716.5 4.726-.577.068-.878-3.806.293-1.773.577-.068zm-2.239-.13q.309.171.425 3a3.914 3.914 0 0 1-.425-2.998z" class="cls-38" transform="translate(-220.311 -33.836)"/>
            <path id="Path_82" d="M246.2 48.565c.205 4.013-.038 4-.491.013-.369-3.257.416-1.464.491-.013zm2.528 2.105c.046 0 .083.123.083.275s-.037.275-.083.275-.083-.123-.083-.275.037-.275.083-.275zm-1.121-1.07c.08 0 .145.321.145.716s-.065.716-.145.716-.145-.321-.145-.716.064-.716.145-.716z" class="cls-38" transform="translate(-238.41 -41.049)"/>
            <path id="Path_83" d="M260.881 120c-.074.025-.247-.147-.311-.414.105.543.147.8.206.829s.124-.096.105-.415z" class="cls-29" transform="translate(-250.48 -99.82)"/>
            <path id="Path_84" d="M262.181 104.682c-.052-.033-.166.053-.255.192s-.118.279-.066.312.167-.053.255-.192.118-.279.066-.312z" class="cls-36" transform="translate(-251.5 -87.789)"/>
        </g>
        <g id="Leg_part1" transform="translate(172.34 68.887)">
            <path id="Path_85" d="M183.486 250.883l-4.44-.26q-1.205 3 1.451 6.384 1.871-.306 2.242.291a3.773 3.773 0 0 1 1.121-1.2q4.144-4.018 4.255-6.954a12.8 12.8 0 0 0-2.968 1.37q.198-.655-1.661.369z" class="cls-13" transform="translate(-178.287 -246.037)"/>
            <path id="Path_86" d="M178.167 246.174a2.087 2.087 0 0 0 .9-.816 1.316 1.316 0 0 0 .295 1.163 2.446 2.446 0 0 1 .424-1.594q.092 1.466.6 1.009-.586-.3-.075-1.619-.269 1.559.536 1.607a1.306 1.306 0 0 0 .934-.224 1.724 1.724 0 0 1-.576-.375.906.906 0 0 0 .433-.252.62.62 0 0 1-.126-.655c.472-1.162 4.022-4.618 5.1-6.264a6.918 6.918 0 0 0 1.473-5.074 7.894 7.894 0 0 0-1.709 1.616 5.2 5.2 0 0 1 0 .74c-2.8 1.785-6.606 2.682-9.488 1.337a8.965 8.965 0 0 0 1.713 7.691q.334 1.04-.856 1.323l.42.389zm7.729-8.649a17.1 17.1 0 0 1-4.73 6.105 13.672 13.672 0 0 0 1.069-1.606q-1.347 1.45-1.27.573c-.788.726-1.328.332-1.951-1.308a13.144 13.144 0 0 0 .3 2.391 9.554 9.554 0 0 1-1.246-3.413 7.225 7.225 0 0 0 .255 2.833 6.969 6.969 0 0 1-.548-5.015 2.893 2.893 0 0 0 .512 1.559 3.02 3.02 0 0 1 .137-1.358c.131.91.319.968.565 1.194.683-2.242 2.886-1.285 2.742.5a7.722 7.722 0 0 0 1.588-2.479 6.37 6.37 0 0 1-.984 2.9 9.746 9.746 0 0 0 2.977-3.674 9.085 9.085 0 0 1-2.765 4.06 11.722 11.722 0 0 0 3.353-3.262z" class="cls-8" transform="translate(-176.689 -233.078)"/>
            <path id="Path_87" d="M185.117 264.191c.014.46-.016 1.062.014 1.554l-.256-.37a10.251 10.251 0 0 0 .492 1.228 3.388 3.388 0 0 1-.045-.543l.008-.871c.221.4.858 1.78 1.431 1.825a1 1 0 0 0 .549-.191l.449-.285-.191.435c-.021.163 1.547-.762 1.646-.836l-.261.444a13.171 13.171 0 0 0 1.96-1.787 17.3 17.3 0 0 1-1.851 1.189l-.807.35.945-.961-1.3.814.71-.806a4.871 4.871 0 0 0 .526-.695 3.92 3.92 0 0 1-.759.616l-.441.271.047-.406c.165-1.416-2.706-1.913-1.906.552a5.535 5.535 0 0 1-.96-1.527z" class="cls-15" transform="translate(-183.295 -258.016)"/>
        </g>
        <g id="Wing_1" transform="translate(160.056 60.222)">
            <path id="Path_88" d="M115.918 193.59c.388.026 2.731.225 3.439.285a3.347 3.347 0 0 1-.385.126c-1.526.75-2.28 1.117-3.433 1.633a13.594 13.594 0 0 0 4.476.632 5.561 5.561 0 0 0-2.555 1.273 14.5 14.5 0 0 0 5.1.972 17.6 17.6 0 0 1-2.32 1.239 25.909 25.909 0 0 0 9.629 1.894 22.011 22.011 0 0 1-8.072-.253 4.331 4.331 0 0 0 .5-.326 4.865 4.865 0 0 1-.858.247 20.431 20.431 0 0 1-4.066-1.349 4.6 4.6 0 0 0 .694-.262 5.236 5.236 0 0 1-1.108.063l-.016-.008c.588-.108 1.715-.812 2.237-.882a25.113 25.113 0 0 1-3.383-.547 2.011 2.011 0 0 0 .381-.5q-.353.249-.621.432a3.007 3.007 0 0 1-1.125-.536 22.736 22.736 0 0 0 3.451-1.178 12.535 12.535 0 0 1-3.155-.185 4.55 4.55 0 0 0 .62-.38 5.111 5.111 0 0 1-1.009.258 4.507 4.507 0 0 0 .6-.372 5.147 5.147 0 0 1-1.023.26 3.905 3.905 0 0 1-.835-.425 27.2 27.2 0 0 1 3.968-1.391 5.116 5.116 0 0 1-1.969 0 4.839 4.839 0 0 0 .759-.45 5.49 5.49 0 0 1-1.2.286l-.039-.018a4.346 4.346 0 0 0 .511-.334 4.783 4.783 0 0 1-.806.237 1.922 1.922 0 0 1-.521-.205c1.672-.582 2.724-1.8 3.991-2.489 2.164-1.173 3.221-1.671 10.869-2.909.34.024 2.206.394 2.679.41.36.012-.083-.487-2.535-.09-1.531.248-10.567 2.427-12.876 4.847zm6.425 4.934l.221-.014c-.079.003-.153.008-.221.014z" class="cls-21" transform="translate(-113.086 -188.381)"/>
            <path id="Path_89" d="M160.078 196.116c-2.9-.42-4.114-1.572-.242-3.045-5.351 1.476-5.977 3.332-1.319 3.37-5.2 1.365-3.564 3.547 1.345 3.064-3.906.99-3.664 4.1 1.935 3.48-4.083 2.006-1.51 3.436 2.932 2.218-3.8.223-4.363-.6-1.669-2.522-4.868.112-5.154-2.114-1.971-3.33-3.401-.511-4.146-1.979-1.011-3.235z" class="cls-8" transform="translate(-147.162 -192.133)"/>
            <path id="Path_90" d="M190.375 193.222a8.685 8.685 0 0 0-10.05-2.767c-1.251.642-1.235 1.952 2.05 2.869-3.666.9-3.638 2.66-.033 3.119-2.612 1.579-2.119 2.75 2.035 2.989-2.24 2.332-1.312 3.5 2.712 2.007q6.839-3.602 3.286-8.217z" class="cls-12" transform="translate(-166.719 -189.524)"/>
            <path id="Path_91" fill="#ff2f0a" fill-rule="evenodd" d="M185.551 192.792a7.9 7.9 0 0 0-4.415-3c-4.4-1.212-9.706 1.206-3.09 3.052-3.483.856-3.253 2.3-.126 3.051a5.176 5.176 0 0 0-1.652 1.328.656.656 0 0 0-.108.6 1.025 1.025 0 0 0 .558.486 9.684 9.684 0 0 0 3.167.548 2.731 2.731 0 0 0-.954 1.741.57.57 0 0 0 .115.516.933.933 0 0 0 .606.23 5.534 5.534 0 0 0 2.662-.481q3.376-1.78 4.183-3.8t-.942-4.275zm-4.341-3.192a8.121 8.121 0 0 1 4.54 3.082q1.8 2.347.966 4.445t-4.291 3.908h-.016c-.72.267-3.4 1.432-4.165.622-.6-.639.386-2 .841-2.494-1.914.149-3.544-.331-4-1.019-.361-.541.512-1.372 2.242-2.136-3.464-.531-4.486-2.383-.051-3.184-2.03-.244-3.558-.927-3.572-1.6-.029-1.281 3.738-2.657 7.506-1.624z" transform="translate(-161.995 -189.042)"/>
            <path id="Path_92" d="M184.384 192.068a7.221 7.221 0 0 0-1.841-1.8 8.252 8.252 0 0 0-2.449-1.116 8.381 8.381 0 0 0-5.094.148 1.682 1.682 0 0 0-.716.511.488.488 0 0 0-.025.543c.253.464 1.127.98 2.889 1.471l.5.138.221.062-.732.18a5.134 5.134 0 0 0-2.108.892.546.546 0 0 0-.008.929 4.731 4.731 0 0 0 1.994.847l.467.112-.4.242c-.283.171-.607.367-.9.582a2.736 2.736 0 0 0-.684.677.723.723 0 0 0-.108.253.343.343 0 0 0 .015.19.491.491 0 0 0 .141.184 1.347 1.347 0 0 0 .311.193 5.359 5.359 0 0 0 1.467.381c.549.078 1.126.115 1.6.143l.445.025-.286.3a4.014 4.014 0 0 0-.623.765 2.648 2.648 0 0 0-.279.878.578.578 0 0 0 0 .227.285.285 0 0 0 .069.135.416.416 0 0 0 .156.1 1.136 1.136 0 0 0 .3.062 3.848 3.848 0 0 0 .987-.027 8.055 8.055 0 0 0 1.545-.435 13.008 13.008 0 0 0 2.668-1.8 5.225 5.225 0 0 0 1.4-1.884 3.287 3.287 0 0 0 .157-1.971 5.483 5.483 0 0 0-1.071-2.127l-.01-.013zm-10.494-2.451a.822.822 0 0 0-.048.913 3.139 3.139 0 0 0 1.565 1.13 7.5 7.5 0 0 1-1.534-.469c-.563-.252-.9-.532-.908-.79a.558.558 0 0 1 .042-.215 2.361 2.361 0 0 1 1.363-1.028l.086-.034a1.75 1.75 0 0 0-.566.493zm.807 3.212a1.018 1.018 0 0 0-.393.745 1 1 0 0 0 .379.729 3.138 3.138 0 0 0 .846.518 4.073 4.073 0 0 1-1.649-.74.748.748 0 0 1-.293-.484.609.609 0 0 1 .242-.475 3.63 3.63 0 0 1 1.429-.672 2.791 2.791 0 0 0-.561.379zm.4 3.475a1.082 1.082 0 0 0-.16.385.678.678 0 0 0 .035.376.874.874 0 0 0 .248.334 1.806 1.806 0 0 0 .417.261 5.846 5.846 0 0 0 1.613.424c.223.032.447.057.664.077a7.448 7.448 0 0 1-2.217-.187 2.385 2.385 0 0 1-1.38-.747l-.01-.015c-.1-.167-.013-.391.23-.65a4.163 4.163 0 0 1 .92-.688 2.368 2.368 0 0 0-.361.43zm2.636 3.443a.913.913 0 0 0 0 .361.649.649 0 0 0 .163.308.862.862 0 0 0 .327.208 1.641 1.641 0 0 0 .432.093 4.514 4.514 0 0 0 .713.014c-.8.219-1.593.321-1.912-.017a.8.8 0 0 1-.058-.821 4.138 4.138 0 0 1 .647-1.124 2.993 2.993 0 0 0-.313.978zm2.583-11.161a8.988 8.988 0 0 1 2.664 1.215c2.319 1.574 4.033 3.948 2.987 6.564a5.8 5.8 0 0 1-1.542 2.094 13.731 13.731 0 0 1-2.849 1.921l-.023.012-.022.008-.263.1c-1.013.394-3.372 1.313-4.172.464a1.118 1.118 0 0 1-.141-1.179 4.524 4.524 0 0 1 .694-1.218 7.8 7.8 0 0 1-2.089-.213 2.8 2.8 0 0 1-1.645-.929l-.021-.034c-.188-.319-.079-.691.286-1.079a5.589 5.589 0 0 1 1.524-1.04 4.942 4.942 0 0 1-2.157-.914 1.1 1.1 0 0 1-.42-.737.964.964 0 0 1 .368-.771 4.3 4.3 0 0 1 1.754-.815 7.954 7.954 0 0 1-1.593-.493c-.712-.319-1.143-.716-1.151-1.129a.906.906 0 0 1 .064-.351 2.759 2.759 0 0 1 1.612-1.268 9.018 9.018 0 0 1 3.037-.581 10.608 10.608 0 0 1 3.097.373z" class="cls-11" transform="translate(-161.027 -188.212)"/>
            <path id="Path_93" fill="#db4d00" fill-rule="evenodd" d="M193.079 194.663c-3.567-4.1-8.833-2.95-9.214-1.921-.228.615 1.255 1.429 3.6 2.127-1.94.362-3.335 1.126-3.2 1.663s1.784.834 3.918.89c-1.938.729-3.527 1.778-3.036 2.387.416.516 2.632.677 4.211.487-1.089.98-1.82 2.3-1.4 2.61 1.119.8 7.627-1.331 6.1-6.612-.192 3.181-2.117 4.834-4.249 5.165-.222-.477.977-2.615 1.707-3.33a7.5 7.5 0 0 1-5 1.477c.338-1.215 3.031-2.736 4.15-3-1.68.306-4.479.265-5.217-.3.64-.8 3.233-1.376 4.731-1.5-2.971-.532-4.844-1.409-5.155-2.029 1.261-.577 4.292-.942 8.054 1.886z" transform="translate(-170.176 -191.082)"/>
            <path id="Path_94" fill="#ff8747" fill-rule="evenodd" d="M210.281 204.018l.634-.741a4.928 4.928 0 0 1-1.9 3.582q-.32-1.121.98-3.239a7.542 7.542 0 0 1-3.158 1.523 4.845 4.845 0 0 1 3.12-2.319 16.439 16.439 0 0 1-4.411-.014 6.788 6.788 0 0 1 3.818-.806 11.118 11.118 0 0 1-4.011-1.7 6.334 6.334 0 0 1 5.207 1.746q-.708-.337-1.249-.551a1.885 1.885 0 0 0 .9.63 8.841 8.841 0 0 0-1.586.313 14.227 14.227 0 0 0 1.923.033 8.89 8.89 0 0 1-1.181.88l1.215-.457q-.203.676-.301 1.12z" transform="translate(-187.537 -197.925)"/>
            <path id="Path_95" d="M125.785 202.453a17.478 17.478 0 0 0 5.11.554 4.753 4.753 0 0 0-3.189 1.351c.837.46 1.655.711 4.221.9-1.058.695-1.5 1.141-1.874 1.308a26.177 26.177 0 0 0 5.9 1.479c-.181-.485.39-1.192 2.014-1.99-5.6.622-5.949-2.462-2.043-3.451-4.909.483-6.3-1.741-1.1-3.107-3.862-.031-4.189-1.341-1.19-2.622-3.365.971-6.32 2.3-7.469 3.536.388.026 2.731.225 3.439.285-1.411.572-2.558 1.243-3.819 1.757z" class="cls-19" transform="translate(-123.332 -195.199)"/>
            <path id="Path_96" fill="#a15b00" fill-rule="evenodd" d="M125.089 201.184a16.656 16.656 0 0 0 6.027.646c-2.1.366-3.329.024-5.069 1.269q1.888-.088 3.977-.329-1.725.259-2.827.4a7.86 7.86 0 0 0 2.16.413 8.93 8.93 0 0 1-2.633-.356 7.726 7.726 0 0 0 2.465.5 7.645 7.645 0 0 1-2.883-.455 6.546 6.546 0 0 0 3.835.619c-1.44.486-1.048.825-2.118 1.487q1.664-.194 3.114-.5-.949.3-1.686.479a11.331 11.331 0 0 0 2.773.492 9.538 9.538 0 0 1-3.206-.391 22.117 22.117 0 0 0 2.986.664 14.612 14.612 0 0 1-3.457-.551c1.477.523 4.223 1.285 5.23.289a5.519 5.519 0 0 1 1.217-.852c-1.067.079-4.289-.088-4.591-1.262-.189-.736 1.258-1.976 2.329-2.208-3.248.446-6.742-1.164-.884-3.174-2.515-.094-5-.6-1.779-2.244-2.472.8-3.287 1.014-4.886 2.493a12.03 12.03 0 0 1 2.932-.94c-.994.357-1.884.691-2.565.962q.6.085 2.138.149a18.923 18.923 0 0 1-2.553.019l-.031.013q.77.107 2.056.162a21.31 21.31 0 0 1-2.486.021 12.1 12.1 0 0 0 5.714-.445l-3.2 1.037a12.778 12.778 0 0 0-2.4 1.457q2.07-.231 3.657-.423l-2.457.408q.872.147 2.92.455a29.97 29.97 0 0 1-3.334-.386 22.223 22.223 0 0 0 3.249.584 20.829 20.829 0 0 1-3.733-.5zm3.928 4.275zm-3.165-3.63c-1.13-.131-2.011-.4-3.125-.48a21.306 21.306 0 0 0 3.992-1.781 18.552 18.552 0 0 1-3.343-.267c.516-.195 1.72-1.527 3-2.107a40.5 40.5 0 0 1 5.483-1.8 8.976 8.976 0 0 0-2.382 1.492.534.534 0 0 0-.125.476.739.739 0 0 0 .4.392 5.7 5.7 0 0 0 2.747.528 5.488 5.488 0 0 0-3.013 1.552.644.644 0 0 0-.162.582.892.892 0 0 0 .467.488c1.167.648 3.117.433 4.083.451-.98.425-2.14.577-2.692 1.561a.972.972 0 0 0-.119.726 1.131 1.131 0 0 0 .488.633c1.178.813 3.18.521 4.607.455a5.987 5.987 0 0 0-2.208 1.258c-.332.328-.437.61-.355.831l.127.327a27.509 27.509 0 0 1-7.121-1.709c1.011-.339 1.517-1.1 2.555-1.3a17.815 17.815 0 0 1-2.487-.328 5.724 5.724 0 0 1-1.622-.633 8.26 8.26 0 0 1 1.571-1.064 3.481 3.481 0 0 1 .563-.189c-.445-.01-.887-.043-1.329-.094z" transform="translate(-120.865 -194.009)"/>
            <path id="Path_97" d="M168.5 202.592zm1.061-1.963c-3.182 1.216-2.9 3.442 1.971 3.33-2.543 1.811-2.185 2.649 1.062 2.549a1.29 1.29 0 0 1-.892-.344 1.118 1.118 0 0 1-.141-1.179 4.524 4.524 0 0 1 .694-1.218 7.8 7.8 0 0 1-2.089-.213 2.8 2.8 0 0 1-1.645-.929l-.021-.034c-.188-.319-.079-.691.286-1.079a5.589 5.589 0 0 1 1.524-1.04 4.942 4.942 0 0 1-2.157-.914 1.1 1.1 0 0 1-.42-.737.964.964 0 0 1 .368-.771 4.3 4.3 0 0 1 1.754-.815 7.954 7.954 0 0 1-1.593-.493c-.712-.319-1.143-.716-1.151-1.129a.907.907 0 0 1 .064-.351 1.6 1.6 0 0 1 .466-.609q-.282.078-.574.161c-2.374 1.234-1.072 2.208 1.484 2.579-3.138 1.256-2.393 2.724 1.006 3.236z" class="cls-9" transform="translate(-155.631 -193.41)"/>
            <path id="Path_98" d="M169.117 199.806a3.711 3.711 0 0 0-1.872 1.28.849.849 0 0 0-.122.687 1.1 1.1 0 0 0 .52.6 6.58 6.58 0 0 0 3.4.575h.049q-.22-.011-.43-.032a7.034 7.034 0 0 1-1.017-.176 4.318 4.318 0 0 1-1.052-.4 2.022 2.022 0 0 1-.6-.487h-.007c-.026-.04-.055-.083-.079-.124a.729.729 0 0 1-.075-.575 1.479 1.479 0 0 1 .375-.611 3.924 3.924 0 0 1 .644-.535q.175-.119.378-.239l-.112.043zM167.04 201a3.58 3.58 0 0 1 1.663-1.241 5.7 5.7 0 0 1-2.207-.774 1.181 1.181 0 0 1-.523-.69.923.923 0 0 1 .238-.779 4.006 4.006 0 0 1 1.487-.991 5.87 5.87 0 0 1-1.9-.6 1.19 1.19 0 0 1-.54-.557.708.708 0 0 1 .124-.684 3.183 3.183 0 0 1 1.14-.862l.011-.005.3-.085.289-.08.451-.124-.336.289a1.907 1.907 0 0 0-.273.284 1.173 1.173 0 0 0-.165.285.86.86 0 0 0-.045.158.688.688 0 0 0 .261.687 2.819 2.819 0 0 0 .816.516 6.385 6.385 0 0 0 .719.267c.262.081.546.154.848.217l.4.084-.4.107a6.477 6.477 0 0 0-1.03.363 2.643 2.643 0 0 0-.673.425 1.138 1.138 0 0 0-.265.342.713.713 0 0 0-.071.355.785.785 0 0 0 .107.34 1.339 1.339 0 0 0 .281.334 3.146 3.146 0 0 0 .85.5 7.052 7.052 0 0 0 1.252.384l.273.059-.245.123a7.827 7.827 0 0 0-.885.514 3.7 3.7 0 0 0-.608.5 1.291 1.291 0 0 0-.328.53.56.56 0 0 0 .055.44l.02.032a1.7 1.7 0 0 0 .588.5 4.086 4.086 0 0 0 .991.38 6.751 6.751 0 0 0 .979.169 8.483 8.483 0 0 0 1.074.04l.221-.006-.122.159a5.525 5.525 0 0 0-.417.622 3.317 3.317 0 0 0-.262.569 1.476 1.476 0 0 0-.087.636.777.777 0 0 0 .208.453 2.109 2.109 0 0 0 1.325.4c-.788.15-3.01.257-3.335-.519q-.275-.655 1.43-1.922a6.4 6.4 0 0 1-3.217-.615 1.289 1.289 0 0 1-.609-.709 1.019 1.019 0 0 1 .142-.827zm4.311 1.957h.2a5.519 5.519 0 0 0-.315.488 3.494 3.494 0 0 0-.277.6 1.641 1.641 0 0 0-.1.711.955.955 0 0 0 .257.557 1.031 1.031 0 0 0 .24.188q-1.652-.03-1.85-.5-.239-.569 1.6-1.88l.235-.167zm-1.822-3.359c-.456.245-2.451-.459-2.884-.766a1 1 0 0 1-.444-.574.752.752 0 0 1 .2-.629 4.275 4.275 0 0 1 1.709-1.056l.338-.135-.364-.053a6.238 6.238 0 0 1-2.154-.626 1 1 0 0 1-.453-.457.541.541 0 0 1 .1-.52 2.959 2.959 0 0 1 1.05-.788l.176-.05-.036.045a1.374 1.374 0 0 0-.191.332 1.035 1.035 0 0 0-.054.191.969.969 0 0 0-.015.194.959.959 0 0 0 .331.653 3.036 3.036 0 0 0 .882.56 6.6 6.6 0 0 0 .748.278q.24.074.5.139a6.007 6.007 0 0 0-.707.271 2.872 2.872 0 0 0-.733.465 1.338 1.338 0 0 0-.311.4.883.883 0 0 0-.088.441.956.956 0 0 0 .129.416 1.535 1.535 0 0 0 .322.384 3.383 3.383 0 0 0 .913.543 6.922 6.922 0 0 0 1.036.338z" class="cls-7" transform="translate(-155.146 -192.496)"/>
            <path id="Path_99" fill="#ffe294" fill-rule="evenodd" d="M138.976 204.655c2.022.128.9.5 3.295-.065-.1-.017-.194-.036-.289-.057-.389-.086-1.023-.256-1.234-.654l.026.117-.2.072q-.8.287-1.6.587zm3.064.554l-2.4.776a6.416 6.416 0 0 0-.626.3c-.326.177-.643.376-.95.584q1.363-.154 2.725-.318h.037a1.572 1.572 0 0 1 .716-1.018 4.837 4.837 0 0 1 .494-.321zm-1.1 1.809l-1.073.178q.728.112 1.456.221h.005a1.242 1.242 0 0 1-.389-.4zm2.625 1.21h-.028c-.532.093-1.061.146-1.6.193-.443.039-.89.074-1.328.154a4.824 4.824 0 0 0-1.218.388c1.045-.069 2.531-.423 3.489-.1a3.886 3.886 0 0 1-2.033.543 7.385 7.385 0 0 0 1.711.212c.009 0 .834-1.254 1.005-1.39zm-.891 2.031l-.076.026a5.033 5.033 0 0 0-.472.183 1.841 1.841 0 0 0-.655.462c-.082.089-.16.179-.243.266.717-.1 1.431-.219 2.139-.365a1.7 1.7 0 0 1-.693-.571zm1.078.735a7.1 7.1 0 0 0 1.352.315 12.347 12.347 0 0 0 1.294.115h.106a4.171 4.171 0 0 0-.517.427l-.012.012-1.355-.092a12.926 12.926 0 0 1-1.861-.249c.5-.142.742-.1.994-.532zm-3.073-7.415l-.211.022a6.318 6.318 0 0 0-1.238.292q-.166.053-.331.111a6.566 6.566 0 0 1 .867-.5 11.085 11.085 0 0 1 1.161-.464.9.9 0 0 0-.249.538z" transform="translate(-133.243 -200.175)"/>
        </g>
    </g>
</svg>
