<svg xmlns="http://www.w3.org/2000/svg" xmlns:xlink="http://www.w3.org/1999/xlink" width="183.523" height="76.232" viewBox="0 0 183.523 76.232">
  <defs>
    <filter id="Path_709" x="0" y="0" width="76.232" height="76.232" filterUnits="userSpaceOnUse">
      <feOffset dy="3" input="SourceAlpha"/>
      <feGaussianBlur stdDeviation="3" result="blur"/>
      <feFlood flood-color="#ff9416" flood-opacity="0.8"/>
      <feComposite operator="in" in2="blur"/>
      <feComposite in="SourceGraphic"/>
    </filter>
  </defs>
  <g id="Group_843" data-name="Group 843" transform="translate(-157.477 -76)">
    <g id="Group_844" data-name="Group 844" transform="translate(3 4.302)">
      <g id="Group_846" data-name="Group 846">
        <text id="YFBTC" transform="translate(286 108.698)" fill="#fff" font-size="30" font-family="Ubuntu-Bold, Ubuntu" font-weight="700" letter-spacing="0.07em"><tspan x="-51.12" y="0">YF</tspan><tspan y="0" fill="#ff9416">BTC</tspan></text>
        <text id="DeFi_Bitcoin" data-name="DeFi Bitcoin" transform="translate(285 129.735)" fill="#ff9416" font-size="12" font-family="Montserrat-Regular, Montserrat" letter-spacing="0.2em"><tspan x="-49.926" y="0">DeFi Bitcoin</tspan></text>
      </g>
    </g>
    <g id="Group_845" data-name="Group 845" transform="translate(13 -313.723)">
      <g transform="matrix(1, 0, 0, 1, 144.48, 389.72)" filter="url(#Path_709)">
        <path id="Path_709-2" data-name="Path 709" d="M29.116,0A29.116,29.116,0,1,1,0,29.116,29.116,29.116,0,0,1,29.116,0Z" transform="translate(9 6)" fill="#ff9416"/>
      </g>
      <g id="Group_3" data-name="Group 3" transform="translate(167.62 404.601)">
        <g id="Group_2" data-name="Group 2">
          <g id="Group_1" data-name="Group 1">
            <path id="Path_1" data-name="Path 1" d="M234,454.917a7.21,7.21,0,0,1-3.533,6.584,15.758,15.758,0,0,1-6.425,1.946v4.376H220.36v-4.155c-.145,0-.29,0-.438,0h-3.51v4.151h-3.685v-4.151h-8.668v-2.378h2.018a4.969,4.969,0,0,0,1.022-.1,1.681,1.681,0,0,0,.8-.4,2.105,2.105,0,0,0,.542-.873,4.7,4.7,0,0,0,.2-1.529V436.962a4.315,4.315,0,0,0-.2-1.449,2.054,2.054,0,0,0-.552-.863,1.941,1.941,0,0,0-.818-.428,4.025,4.025,0,0,0-1-.121h-2.018v-2.357h8.668V427h3.685v4.745h2.019c.666,0,1.308.014,1.929.041V427h3.686v5.145a15.241,15.241,0,0,1,4.935,1.563,6.562,6.562,0,0,1,3.534,6.159,6.891,6.891,0,0,1-.445,2.588,5.537,5.537,0,0,1-1.26,1.9,7.747,7.747,0,0,1-1.96,1.363,14.593,14.593,0,0,1-2.536.963v.217a14.431,14.431,0,0,1,3.113,1.08,9.284,9.284,0,0,1,2.426,1.684,7.067,7.067,0,0,1,1.587,2.3A7.389,7.389,0,0,1,234,454.917Z" transform="translate(-204.059 -427)" fill="#fff"/>
          </g>
        </g>
      </g>
      <g id="Group_4" data-name="Group 4" transform="translate(173.535 411.213)">
        <path id="Path_2" data-name="Path 2" d="M241.552,504.171a7.2,7.2,0,0,1-5.655,8.044,6.949,6.949,0,0,1-7.765-9.114l-2.3,1.028-.619-1.89,4.506-1.714,1.452-.552.522,1.611,1.447,4.468-1.847.627-1.018-3.25a4.834,4.834,0,1,0,9.191,1.107,5.164,5.164,0,0,0-.457-1.371,6.726,6.726,0,0,0-3.047-3l-.4-2.215A7.54,7.54,0,0,1,241.552,504.171Z" transform="translate(-225.212 -484.72)" fill="#ff9416"/>
        <path id="Path_3" data-name="Path 3" d="M231.411,458.8a7.2,7.2,0,0,1,5.655-8.044,6.949,6.949,0,0,1,7.765,9.114l2.3-1.028.619,1.89-4.506,1.714-1.452.552-.522-1.611-1.448-4.468,1.848-.627,1.018,3.25a4.834,4.834,0,1,0-9.191-1.107,5.165,5.165,0,0,0,.457,1.371,6.726,6.726,0,0,0,3.047,3l.4,2.215A7.539,7.539,0,0,1,231.411,458.8Z" transform="translate(-229.633 -450.648)" fill="#ff9416"/>
      </g>
    </g>
  </g>
</svg>
