<svg xmlns="http://www.w3.org/2000/svg" width="63.976" height="74.757" viewBox="0 0 63.976 74.757">
    <defs>
        <style>
            .cls-1{fill:#ff8700}.cls-2{fill:#a73000}.cls-2,.cls-20{opacity:.4}.cls-10,.cls-11,.cls-12,.cls-13,.cls-16,.cls-2,.cls-20,.cls-27,.cls-30,.cls-32,.cls-4,.cls-5{mix-blend-mode:multiply}.cls-10,.cls-11,.cls-12,.cls-13,.cls-16,.cls-2,.cls-20,.cls-27,.cls-30,.cls-32,.cls-35,.cls-4,.cls-5{isolation:isolate}.cls-3{fill:#f43400}.cls-4{fill:#963000}.cls-27,.cls-32,.cls-4{opacity:.8}.cls-5{fill:#e15e00}.cls-6{fill:#ff9d00}.cls-13,.cls-16,.cls-35{opacity:.5}.cls-10,.cls-11,.cls-13{fill:#d7c7a5}.cls-10{opacity:.7}.cls-12{fill:#2d2827}.cls-16,.cls-35{fill:#934f2a}.cls-20,.cls-32{fill:#0e6440}.cls-35{mix-blend-mode:screen}.cls-27{fill:#e18d00}.cls-31{fill:#fff}.cls-33{fill:#54d157}.cls-37{fill:#635d5c}
        </style>
    </defs>
    <g id="Group_729" transform="translate(-332.586 -427.398)">
        <g id="Group_47" transform="translate(346.243 482.041)">
            <path id="Path_976" d="M437.8 576.255a12.3 12.3 0 0 0-1.686-2.739c-.858-1.259-1.721-2.612-3.435-2.636a2.474 2.474 0 0 0-2.642 2.307c-.092.937.263 1.857.167 2.8a3.068 3.068 0 0 1-2.147 2.473.072.072 0 0 0 .012.143.177.177 0 0 0 .038 0c0 .009.01.02.021.016a7.1 7.1 0 0 1 1.705.03 1.489 1.489 0 0 1 .926.533c.212.254.264.6.456.863a.012.012 0 0 1 .007 0c.159.572 1.619-.443 1.813-.57.474-.322.89-.726 1.379-1.042 1.08-.686 2 .2 3.029.489a.149.149 0 0 0 .183-.153.161.161 0 0 0 .038-.084 4.462 4.462 0 0 0 .136-2.43z" class="cls-1" transform="translate(-398.198 -560.177)"/>
            <path id="Path_977" d="M437.8 576.255a12.3 12.3 0 0 0-1.686-2.739c-.858-1.259-1.721-2.612-3.435-2.636a2.474 2.474 0 0 0-2.642 2.307c-.092.937.263 1.857.167 2.8a3.068 3.068 0 0 1-2.147 2.473.072.072 0 0 0 .012.143.177.177 0 0 0 .038 0c0 .009.01.02.021.016a8.5 8.5 0 0 1 1.457-.007 1.906 1.906 0 0 0 1.074-.565 7.473 7.473 0 0 0 .472-.759c.082-.114.214-.331.384-.321.488.029.455.871.348 1.181-.213.611-.759 1.219-.579 1.9a.065.065 0 0 1-.029.072c.266.4 1.6-.521 1.78-.641.474-.322.89-.726 1.379-1.042a1.52 1.52 0 0 1 .787-.253 2.128 2.128 0 0 1-.342-.2 1.5 1.5 0 0 1-.481-1.067c-.055-.537 0-1.083-.079-1.623-.032-.241-.162-.724.089-.9.329-.23.666.157.863.384.334.4.679.811 1 1.226a4.742 4.742 0 0 1 .915 1.569c.084.332.1 1.045.46 1.224v-.031a.161.161 0 0 0 .038-.084 4.462 4.462 0 0 0 .136-2.427z" class="cls-2" transform="translate(-398.198 -560.177)"/>
            <path id="Path_978" d="M375.744 576.048c.117-.744-.826-.819-1.495-.833a4.225 4.225 0 0 0-1.681.332 7.62 7.62 0 0 1-2.667.549c-.895.034-1.793-.087-2.691-.068a7.6 7.6 0 0 0-2.29.427c-.42.143-1.637.433-1.6 1.025a.118.118 0 0 0 .156.1c.016-.007.036-.009.052-.016.605.1 1.289-.094 1.741.413a5.034 5.034 0 0 1 .674 1.481c-.036.283-.141.6.114.807.224.182.6 0 .823-.069 1.8-.536 3.206-.757 4.854.267a5.023 5.023 0 0 1 1.035.826 1.633 1.633 0 0 0 .664.553.149.149 0 0 0 .16-.042c.389-.048.547-1.294.572-1.476a10.855 10.855 0 0 1 1.581-4.086.175.175 0 0 0-.002-.19z" class="cls-1" transform="translate(-362.98 -562.538)"/>
            <path id="Path_979" d="M375.744 576.048c.117-.744-.826-.819-1.495-.833a4.225 4.225 0 0 0-1.681.332 7.62 7.62 0 0 1-2.667.549c-.895.034-1.793-.087-2.691-.068a7.6 7.6 0 0 0-2.29.427c-.42.143-1.637.433-1.6 1.025a.118.118 0 0 0 .156.1c.016-.007.036-.009.052-.016a5.51 5.51 0 0 0 .706.042 8.716 8.716 0 0 1 1.832-.342c.293-.013 1.536-.127 1.568.388.026.387-.521.706-.8.891-.329.217-.667.426-1 .637.033.095.065.186.1.277-.036.283-.141.6.114.807.224.182.6 0 .823-.069.3-.087.586-.173.865-.237a9.5 9.5 0 0 1 1.709-.495 6.526 6.526 0 0 0 1.805-.414 5.227 5.227 0 0 1 1.178-.51c.876-.173.869.991.85 1.583a6.172 6.172 0 0 1-.232 1.474.982.982 0 0 0 .378.244.149.149 0 0 0 .16-.042c.389-.048.547-1.294.572-1.476a10.855 10.855 0 0 1 1.581-4.086.175.175 0 0 0 .007-.188z" class="cls-2" transform="translate(-362.98 -562.538)"/>
            <path id="Path_980" d="M378.181 566.658a.086.086 0 0 0-.043-.075c-.56-.407-.6-.986-.94-1.53a2.638 2.638 0 0 0-1.089-.868.052.052 0 0 0-.024-.027c-.325-.218-.722-.278-1.044-.516a1.088 1.088 0 0 1-.332-.489c-.007-.787.039-1.574.055-2.366.02-1.044.046-2.117.114-3.162a.126.126 0 0 0-.013-.072c.2-.5-.394-.872-.826-.989a2.757 2.757 0 0 0-2.245.335.074.074 0 0 0-.013.107.093.093 0 0 0 0 .072c.279 1.327.527 2.661.787 3.995a6.773 6.773 0 0 1 .27 2.359.058.058 0 0 0-.055.039c-.306.787-1.2 1-1.946 1.2a14.443 14.443 0 0 1-2.554.429c-.761.062-1.536.068-2.3.056a3.146 3.146 0 0 0-1.626.192.109.109 0 0 0-.134.02 9.642 9.642 0 0 1-1.216 1c-.173.123-.391.292-.4.51a.042.042 0 0 0-.029.046c.2 1.307 1.552.186 2.193-.039 1.363-.485 2.943.208 4.349-.035-.654.348-1.285.735-1.925 1.093a15.185 15.185 0 0 0-1.43.761c-.347.244-.575.612-.917.866a.07.07 0 0 0-.072.039c0 .006-.006.012-.01.022a.05.05 0 0 0-.016.014.044.044 0 0 0-.016.055c-.165.463.25.638.694.556a2.759 2.759 0 0 0 1.419-.635c1.158-.409 2.449-.491 3.627-.848a5.583 5.583 0 0 0 1.428-.84c.3-.205 1.19-.8 1.6-.628a3.263 3.263 0 0 1-.107.4 8.568 8.568 0 0 0-.781 2.242c-.048.458-.088.94-.114 1.4a.616.616 0 0 0 .215.54c.468.71.973-.513 1.1-.855a7.154 7.154 0 0 0 .244-1.289 4.86 4.86 0 0 1 1.514-2.512.132.132 0 0 0 .038-.11 3.1 3.1 0 0 1 .306-.361c.219-.194.915.394 1.126.5.563.3.833-.031 1.185-.4a.138.138 0 0 0-.047-.202z" class="cls-3" transform="translate(-362.573 -552.327)"/>
            <path id="Path_981" d="M369.115 576.924c-.549.3-1.086.615-1.63.924.467-.22.927-.455 1.4-.667.761-.348 1.471-.755 2.193-1.175a15.822 15.822 0 0 0 1.746-1.048c-1 .261-1.912.73-2.882 1.072a3.852 3.852 0 0 1-1.376.257c-.531-.01-1.055-.1-1.578-.136a5.853 5.853 0 0 0-1.812.035 6.236 6.236 0 0 0-1.468.589c-.211.111-.579.381-.826.191a.342.342 0 0 1-.146-.3.458.458 0 0 0-.134.286.042.042 0 0 0-.029.046c.2 1.307 1.552.186 2.193-.039 1.363-.484 2.944.209 4.349-.035z" class="cls-4" transform="translate(-362.573 -562.398)"/>
            <path id="Path_982" d="M382.767 557.08c.279 1.327.527 2.661.787 3.995a9.065 9.065 0 0 1 .306 2.036 1.774 1.774 0 0 0 .085-.5 11.914 11.914 0 0 0-.264-2.14c-.059-.355-.114-.7-.157-1.052a1.552 1.552 0 0 1-.019-.751.351.351 0 0 1 .274-.176 3.305 3.305 0 0 0 .8-.244.06.06 0 0 1 .087.023c.294.465.761.7.844 1.285.071.5.012 1 .049 1.507.049.687.081 1.369.139 2.049v.01c-.007-.777.039-1.552.055-2.334.02-1.044.046-2.117.114-3.162a.126.126 0 0 0-.013-.072c.2-.5-.394-.872-.826-.989a2.757 2.757 0 0 0-2.245.335.074.074 0 0 0-.013.107.093.093 0 0 0-.003.073z" class="cls-4" transform="translate(-373.562 -552.327)"/>
            <path id="Path_983" d="M388.693 571.862a5.938 5.938 0 0 1-.316.54c.25.024.448-.318.7-.364a2.112 2.112 0 0 1 .681.026l.312.06a10.628 10.628 0 0 1-.972-.475 1.037 1.037 0 0 1-.329-.483 1.443 1.443 0 0 1-.076.696z" class="cls-4" transform="translate(-376.625 -560.333)"/>
            <path id="Path_984" d="M390.018 577.655a1.085 1.085 0 0 1-.765-.226 5.643 5.643 0 0 1-.812-.657c-.122-.111-.232-.235-.359-.338s-.351-.3-.541-.176a.766.766 0 0 0-.182.163 10.394 10.394 0 0 1-.741 1.662 7.168 7.168 0 0 0-.687 1.36c-.164.591-.253 1.21-.426 1.806-.107.37-.281 1.138-.755 1.222a.426.426 0 0 1-.26-.035.666.666 0 0 0 .156.21c.468.71.973-.513 1.1-.855a7.153 7.153 0 0 0 .244-1.289 4.86 4.86 0 0 1 1.514-2.512.132.132 0 0 0 .038-.11 3.088 3.088 0 0 1 .306-.361c.219-.194.915.394 1.126.5.563.3.833-.031 1.185-.4a.112.112 0 0 0 .026-.049.329.329 0 0 1-.167.085z" class="cls-4" transform="translate(-374.509 -563.084)"/>
            <path id="Path_985" d="M376.033 578.265a3.264 3.264 0 0 1-.107.4 15.579 15.579 0 0 0-.673 1.7c.328-.869.763-1.7 1.1-2.577.1-.263.208-.534.28-.807.029-.111.139-.456-.136-.378a2.67 2.67 0 0 0-.521.215c-.667.377-1.278.836-1.949 1.21a16.775 16.775 0 0 1-4.363 1.737 2.877 2.877 0 0 0-1.132.515 1.717 1.717 0 0 1-.644.354.643.643 0 0 1-.536-.094.063.063 0 0 0-.046.036c0 .006-.006.012-.01.022a.05.05 0 0 0-.016.014.044.044 0 0 0-.016.055c-.165.463.25.638.694.556a2.76 2.76 0 0 0 1.419-.635c1.158-.409 2.449-.491 3.627-.848a5.583 5.583 0 0 0 1.428-.84c.303-.213 1.191-.807 1.601-.635z" class="cls-4" transform="translate(-365.108 -563.284)"/>
            <path id="Path_986" d="M435.415 562.6a12.249 12.249 0 0 0-2.254-3.48 6.466 6.466 0 0 1-1.875-3l.03-.01a2.944 2.944 0 0 0 .439-.215.448.448 0 0 0 .26-.377.105.105 0 0 0 .036-.178 3.32 3.32 0 0 0-.552-.3 4.589 4.589 0 0 1-.726-.5.642.642 0 0 0-.5-.162.071.071 0 0 0-.081 0c-.4.2-1.2 1.005-1.451.28a2.8 2.8 0 0 1 .054-1.292c.088-.475.261-.937.385-1.409.342-.394.833-.937.407-1.273a12.351 12.351 0 0 0-1.428-1.373 12.358 12.358 0 0 1-1.614-1.773.048.048 0 0 0-.066-.008c-.3-.383-1.331.12-1.642.248a3.716 3.716 0 0 0-2.02 2.062c-.03.079.062.16.123.12a5.047 5.047 0 0 1 3.862 2.158.081.081 0 0 0 .04.029c-.138.475-.4.94-.551 1.409a10.6 10.6 0 0 0-.433 1.643 2.574 2.574 0 0 0 .13 1.4c-.055 2.134.888 4.233.68 6.351a3.944 3.944 0 0 1-1.668 1.734c-.28.163-.508.345-.557.585a.049.049 0 0 0-.026.047.6.6 0 0 0 .029.156.83.83 0 0 0 .085.227.045.045 0 0 0 .065.014 1.213 1.213 0 0 0 .823.13 2.883 2.883 0 0 0 1.978-.589c1.022-1.061.908-2.538.9-3.895.114.352.231.7.381 1.042a13.517 13.517 0 0 1 .628 1.584 2.358 2.358 0 0 1-.351 1.865 1.344 1.344 0 0 0-.618 1.008c-.046.319.049.606.4.635a2.118 2.118 0 0 0 1.093-.429 4.464 4.464 0 0 0 1.2-1.051.089.089 0 0 0 .013-.1 3.091 3.091 0 0 0 .166-.969 6.821 6.821 0 0 0-.228-2.19c-.176-.761-.837-2.678-.038-3.254.728.444 1.151 1.613 1.6 2.242.4.566.85 1.1 1.211 1.7a4.939 4.939 0 0 1 .521 1.636 1.927 1.927 0 0 0 0 .413.713.713 0 0 0 .075.28.1.1 0 0 0 .01.051c.311.7.927-.107 1.116-.449a3.015 3.015 0 0 0-.061-2.773z" class="cls-3" transform="translate(-395.378 -547.38)"/>
            <path id="Path_987" d="M426.8 552.109a.081.081 0 0 0 .04.029 4.042 4.042 0 0 1-.177.485c.075-.117.15-.231.235-.341a1.477 1.477 0 0 1 1.617-.761 2.774 2.774 0 0 0-1.159-.937 6.56 6.56 0 0 1-1.165-.732.064.064 0 0 1 0-.089c.746-.8 1.747-.279 2.486.253.283.209.829.548.847.947s-.472.583-.684.853c-.25.319-.186.8-.281 1.178a4.442 4.442 0 0 0-.3 1.88c.137.608.621.335 1.032.029a.378.378 0 0 1-.557-.256 2.8 2.8 0 0 1 .054-1.292c.088-.475.261-.937.385-1.409.342-.394.833-.937.407-1.273a12.351 12.351 0 0 0-1.428-1.373 12.358 12.358 0 0 1-1.614-1.773.048.048 0 0 0-.066-.008c-.3-.383-1.331.12-1.642.248a3.716 3.716 0 0 0-2.02 2.062c-.03.079.062.16.123.12a5.047 5.047 0 0 1 3.867 2.16z" class="cls-4" transform="translate(-395.378 -547.38)"/>
            <path id="Path_988" d="M441.071 565.2a.448.448 0 0 0 .26-.377.1.1 0 0 0 .038-.176.443.443 0 0 1-.377.312 1.546 1.546 0 0 1-1.061-.481 1.716 1.716 0 0 0 .228.9c.124.3.247.592.371.889a3.383 3.383 0 0 0 .771 1.25c.3.267.6.527.888.794.283.25.563.507.829.774-.176-.221-.358-.44-.543-.654a6.465 6.465 0 0 1-1.875-3l.03-.01a2.945 2.945 0 0 0 .441-.221z" class="cls-4" transform="translate(-404.694 -556.692)"/>
            <path id="Path_989" d="M431.03 575.282a13.612 13.612 0 0 0-.937-2.671 22.881 22.881 0 0 1-1.09-3.423 32.359 32.359 0 0 0 .537 3.374 4.165 4.165 0 0 1-.31 2.99 4.412 4.412 0 0 1-.991 1.037 2.782 2.782 0 0 1-1.054.6.6.6 0 0 1-.657-.339.623.623 0 0 0-.163.292.049.049 0 0 0-.026.046.6.6 0 0 0 .029.156.832.832 0 0 0 .085.227.045.045 0 0 0 .065.014 1.213 1.213 0 0 0 .823.13 2.883 2.883 0 0 0 1.978-.589c1.022-1.061.908-2.538.9-3.895.114.352.231.7.381 1.042s.3.67.43 1.009z" class="cls-4" transform="translate(-397.298 -559.256)"/>
            <path id="Path_990" d="M442.35 575.583a3.981 3.981 0 0 1-.234 1.018c-.095.206-.377.716-.706.313-.348-.42-.085-.967-.263-1.462a15.624 15.624 0 0 0-2.61-3.887 16.954 16.954 0 0 0-3.124-2.421c.322 1.243.436 2.421.882 3.658.208.562.371 1.142.536 1.72a8.4 8.4 0 0 1 .318 1.406 2.215 2.215 0 0 1-1 2.313c-.228.137-.722.432-.92.1a.471.471 0 0 1-.049-.28 1.341 1.341 0 0 0-.244.65c-.046.319.049.606.4.635a2.118 2.118 0 0 0 1.093-.429 4.463 4.463 0 0 0 1.2-1.051.089.089 0 0 0 .013-.1 3.091 3.091 0 0 0 .166-.969 6.82 6.82 0 0 0-.228-2.19c-.176-.761-.837-2.678-.038-3.254.728.444 1.151 1.613 1.6 2.242.4.566.85 1.1 1.211 1.7a4.94 4.94 0 0 1 .521 1.636 1.927 1.927 0 0 0 0 .413.713.713 0 0 0 .075.28.1.1 0 0 0 .01.052c.311.7.927-.107 1.116-.449a2.46 2.46 0 0 0 .275-1.644z" class="cls-4" transform="translate(-401.974 -559.233)"/>
            <g id="Group_46" transform="translate(1.102 2.247)">
                <path id="Path_991" d="M365.681 577.451a.7.7 0 0 0-.667-.355.022.022 0 0 0-.006.043.833.833 0 0 1 .488.405c.091.19.019.382.033.58a.069.069 0 0 0 .119.036.622.622 0 0 0 .033-.709z" class="cls-5" transform="translate(-364.993 -565.81)"/>
                <path id="Path_992" d="M368.1 575.78c-.042.01-.026.062 0 .071a1.152 1.152 0 0 1 .7.41.9.9 0 0 1 .019.777c-.009.034.036.056.06.04.735-.471-.065-1.496-.779-1.298z" class="cls-5" transform="translate(-366.671 -565.079)"/>
                <path id="Path_993" d="M372.764 576.448a1.118 1.118 0 0 0-1.021-.466.039.039 0 0 0 0 .076 1.3 1.3 0 0 1 .717.387.539.539 0 0 1 .149.374c-.013.153-.133.267-.179.409a.058.058 0 0 0 .071.079.586.586 0 0 0 .263-.859z" class="cls-5" transform="translate(-368.65 -565.201)"/>
                <path id="Path_994" d="M375.983 575.6c-.039.01-.052.071 0 .077a.932.932 0 0 1 .692 1.353c-.028.068.072.139.117.072.424-.602.037-1.67-.809-1.502z" class="cls-5" transform="translate(-370.959 -564.985)"/>
                <path id="Path_995" d="M370.016 583.8a.8.8 0 0 0-.814-.091.058.058 0 0 0 .026.111.84.84 0 0 1 .619.092c.179.13.117.383.081.569-.01.043.051.065.081.033a.488.488 0 0 0 .007-.714z" class="cls-5" transform="translate(-367.266 -569.374)"/>
                <path id="Path_996" d="M373.563 582a.474.474 0 0 0-.357-.068 3.735 3.735 0 0 0-.42.065.031.031 0 0 0-.006.046c.15.111.349.042.521.049.354.016.337.556.263.787a.031.031 0 0 0 .052.033.626.626 0 0 0-.053-.912z" class="cls-5" transform="translate(-369.229 -568.44)"/>
                <path id="Path_997" d="M376.961 580.333a1.58 1.58 0 0 0-1.522.11.04.04 0 0 0 .036.072 1.963 1.963 0 0 1 1.207-.012c.472.157.455.556.39.966a.046.046 0 0 0 .082.036.773.773 0 0 0-.193-1.172z" class="cls-5" transform="translate(-370.671 -567.492)"/>
                <path id="Path_998" d="M379.584 578.385a1.8 1.8 0 0 0-1.626.341c-.033.02-.006.076.029.059a2.413 2.413 0 0 1 1.23-.211c.738.062.716.712.635 1.272a.057.057 0 0 0 .106.036c.267-.547.28-1.234-.374-1.497z" class="cls-5" transform="translate(-372.045 -566.467)"/>
                <path id="Path_999" d="M381.277 575.968a1.73 1.73 0 0 0-1.47.13.879.879 0 0 0 .111-.54.657.657 0 0 0-.287-.443 1.707 1.707 0 0 0-.99-.016.022.022 0 0 0 0 .045c.237.069.482.02.72.091.4.117.332.6.322.925a4.146 4.146 0 0 0-.469.308c-.01.01 0 .033.016.027a3.351 3.351 0 0 1 1.48-.362c.612.029 1.054.378.908 1.022-.007.032.042.056.057.026a.752.752 0 0 0-.398-1.213z" class="cls-5" transform="translate(-372.414 -564.685)"/>
                <path id="Path_1000" d="M382.489 574.463a.872.872 0 0 0-.849-.013c-.025.015-.006.054.019.051a1.492 1.492 0 0 1 .632.094c.24.107.179.3.182.518a.044.044 0 0 0 .069.035.4.4 0 0 0-.053-.685z" class="cls-5" transform="translate(-374.052 -564.312)"/>
                <path id="Path_1001" d="M387.7 573.587a.93.93 0 0 0-.977-.028 1.268 1.268 0 0 0-.547.8c-.065-.026-.133-.051-.2-.071a2.376 2.376 0 0 0-2.557.446c-.011.009 0 .022.009.016 1.194-.725 3.37-.5 3.709 1.048a.048.048 0 0 0 .092-.007 1.427 1.427 0 0 0-.966-1.4 1.389 1.389 0 0 1 .575-.617c.284-.128.548-.04.842-.089a.055.055 0 0 0 .02-.098z" class="cls-5" transform="translate(-375.026 -563.815)"/>
                <path id="Path_1002" d="M387.65 577.711c-.58.007-.736.491-.708.979a.056.056 0 0 0 .109.006c.06-.377.139-.631.556-.67a1.552 1.552 0 0 1 .583.062c.214.072.244.33.315.5.013.036.078.039.081-.007.046-.607-.358-.881-.936-.87z" class="cls-5" transform="translate(-376.944 -566.145)"/>
                <path id="Path_1003" d="M387.136 580.112a.718.718 0 0 0-.774.638.043.043 0 0 0 .077.031c.184-.22.245-.454.586-.416.311.036.378.192.43.459a.066.066 0 0 0 .124.022c.221-.379-.059-.685-.443-.734z" class="cls-5" transform="translate(-376.629 -567.449)"/>
                <path id="Path_1004" d="M385.986 583.059c-.39-.023-.6.25-.713.589a.025.025 0 0 0 .046.02.587.587 0 0 1 .491-.388c.215-.013.515.066.562.3a.042.042 0 0 0 .076.013c.152-.335-.153-.524-.462-.534z" class="cls-5" transform="translate(-376.036 -569.057)"/>
                <path id="Path_1005" d="M385.939 586.057a.464.464 0 0 0-.4-.146c-.361-.014-.628.192-.546.562.009.042.065.022.068-.013.01-.309.25-.348.515-.332.227.015.22.153.3.326a.037.037 0 0 0 .066 0 .427.427 0 0 0-.003-.397z" class="cls-5" transform="translate(-375.878 -570.61)"/>
                <path id="Path_1006" d="M393.931 576.889a.623.623 0 0 0-.863-.059 1.253 1.253 0 0 0-.377.758.039.039 0 0 0 .069.03c.111-.15.169-.326.283-.472a.835.835 0 0 1 .342-.193.716.716 0 0 1 .5.01c.039.014.068-.042.046-.074z" class="cls-5" transform="translate(-380.076 -565.586)"/>
                <path id="Path_1007" d="M395.073 578.161c-.341-.409-.886.085-.91.486 0 .058.081.094.1.032a.616.616 0 0 1 .745-.441c.043.011.105-.038.065-.077z" class="cls-5" transform="translate(-380.878 -566.306)"/>
                <path id="Path_1008" d="M387.012 571.428c0-.024-.036-.04-.046-.014-.119.322-.119.5-.533.54a3 3 0 0 1-.679-.008c-.241-.043-.247-.212-.3-.4a.033.033 0 0 0-.065.013c.019.176-.053.334.084.475.189.183.569.163.807.163a.861.861 0 0 0 .666-.2c.112-.133.054-.417.066-.569z" class="cls-5" transform="translate(-376.099 -562.708)"/>
                <path id="Path_1009" d="M386.875 569.36c-.021-.068-.108-.042-.123.013-.058.208-.117.3-.339.328a2.327 2.327 0 0 1-.488 0c-.128 0-.348.007-.446-.1a1.524 1.524 0 0 1-.176-.426.062.062 0 0 0-.12.022.95.95 0 0 0 .206.567c.143.162.409.165.608.189.42.047 1.03-.018.878-.593z" class="cls-5" transform="translate(-375.988 -561.474)"/>
                <path id="Path_1010" d="M386.447 565.859c-.155.213-.253.358-.534.394a1.783 1.783 0 0 1-.472 0 1.968 1.968 0 0 1-.5-.12c-.179-.075-.2-.237-.283-.384a.044.044 0 0 0-.081 0c-.351.7 1.815 1.358 1.956.154.002-.05-.059-.087-.086-.044z" class="cls-5" transform="translate(-375.635 -559.613)"/>
                <path id="Path_1011" d="M386.27 561.116c-.01-.046-.075-.082-.108-.037a1.023 1.023 0 0 1-1.018.374c-.488-.016-.944.033-1.207-.449-.026-.052-.11-.02-.1.032.082.632.686.7 1.221.719.418.019 1.303.001 1.212-.639z" class="cls-5" transform="translate(-375.252 -557.033)"/>
                <path id="Path_1012" d="M429.115 585.1a1.1 1.1 0 0 0-1.1.051.037.037 0 0 0 .016.071c.318-.006.563-.11.876.049a1.247 1.247 0 0 1 .542.632c.02.039.082.039.088-.006a.861.861 0 0 0-.422-.797z" class="cls-5" transform="translate(-399.3 -570.098)"/>
                <path id="Path_1013" d="M431.529 582.489c-.377-.254-.719-.02-.961.283-.023.027.009.065.036.046a.636.636 0 0 1 .923-.052 1.055 1.055 0 0 1 .355.758c0 .032.055.029.052 0-.034-.43-.014-.775-.405-1.035z" class="cls-5" transform="translate(-400.699 -568.688)"/>
                <path id="Path_1014" d="M432.188 578.846c-.385.017-.462.329-.414.65a.032.032 0 0 0 .062 0c.041-.227.109-.414.37-.423a.888.888 0 0 1 .8.5c.014.023.046.013.039-.013a.874.874 0 0 0-.857-.714z" class="cls-5" transform="translate(-401.353 -566.763)"/>
                <path id="Path_1015" d="M431.906 575.667a.45.45 0 0 0-.374.69c.016.029.065.032.072 0 .042-.261.02-.453.348-.437a.964.964 0 0 1 .843.4.037.037 0 0 0 .068-.024.858.858 0 0 0-.957-.629z" class="cls-5" transform="translate(-401.195 -565.031)"/>
                <path id="Path_1016" d="M436.839 574.028c-.394-.6-1.233-.5-1.832-.306-.687.23-.784.742-.433 1.324a.031.031 0 0 0 .056-.02c-.026-.176-.079-.352-.1-.53-.049-.347.436-.5.683-.579.434-.153 1.217-.234 1.533.169a.055.055 0 0 0 .093-.058z" class="cls-5" transform="translate(-402.777 -563.89)"/>
                <path id="Path_1017" d="M437.432 577.211c-.274-.345-1.016-.141-1.368-.024-.523.169-.461.573-.354 1.006a.027.027 0 0 0 .052-.013.657.657 0 0 1 .466-.8 2.131 2.131 0 0 1 1.18-.128c.02.001.041-.024.024-.041z" class="cls-5" transform="translate(-403.464 -565.769)"/>
                <path id="Path_1018" d="M438.457 581.042c-.147-.488-.927-.429-1.3-.333-.521.138-.335.531-.2.895.019.049.1.036.094-.019-.02-.13-.048-.261-.069-.391-.028-.172.121-.211.258-.25a2.052 2.052 0 0 1 .55-.052.917.917 0 0 1 .552.224.071.071 0 0 0 .115-.074z" class="cls-5" transform="translate(-404.103 -567.742)"/>
                <path id="Path_1019" d="M439 584.569c-.284-.543-1.637-.856-1.5.071.006.033.052.046.066.013a2.378 2.378 0 0 1 .13-.3c.068-.108.266-.085.364-.078a1.273 1.273 0 0 1 .833.364c.046.047.136-.015.107-.07z" class="cls-5" transform="translate(-404.473 -569.596)"/>
                <path id="Path_1020" d="M437.453 587.23c-.309-.152-.564.033-.807.212-.03.022-.006.078.03.061a.829.829 0 0 1 .686-.085.774.774 0 0 1 .485.557c.006.032.059.02.056-.014a.813.813 0 0 0-.45-.731z" class="cls-5" transform="translate(-404.006 -571.298)"/>
                <path id="Path_1021" d="M442.99 572c-.209-.3-.614-.105-.813.1a1.036 1.036 0 0 0-.019 1.2.029.029 0 0 0 .055-.019c-.163-.582.061-1.237.748-1.226a.038.038 0 0 0 .029-.055z" class="cls-5" transform="translate(-406.914 -562.949)"/>
                <path id="Path_1022" d="M444.737 575.077c-.549.286-.559.817-.432 1.354.01.043.062.02.062-.01a1.143 1.143 0 0 1 .384-1.057 1.1 1.1 0 0 1 .445-.162c.163-.026.254.051.388.12a.052.052 0 0 0 .075-.036c.041-.466-.687-.329-.922-.209z" class="cls-5" transform="translate(-408.148 -564.647)"/>
                <path id="Path_1023" d="M447.775 578.949a.735.735 0 0 0-1.061-.335c-.386.2-.386.719-.358 1.083 0 .036.056.039.056.007a1.405 1.405 0 0 1 .267-.774c.3-.354.732-.1 1.042.075a.044.044 0 0 0 .054-.056z" class="cls-5" transform="translate(-409.295 -566.583)"/>
                <path id="Path_1024" d="M448.411 582.088a1.088 1.088 0 0 0-.556 1.071c.006.041.074.049.078 0a1.1 1.1 0 0 1 .38-.725.53.53 0 0 1 .759.006c.02.022.062.019.065-.013.039-.407-.43-.471-.726-.339z" class="cls-5" transform="translate(-410.114 -568.495)"/>
                <path id="Path_1025" d="M431.746 571.1c-.326-.036-.622-.214-.947-.26-.228-.032-.652.118-.6.4a.1.1 0 0 0 .126.077c.107-.027.143-.1.231-.159a.819.819 0 0 1 .427-.081c.256 0 .5.071.761.061.018-.002.018-.038.002-.038z" class="cls-5" transform="translate(-400.501 -562.4)"/>
                <path id="Path_1026" d="M437 568.577a1.293 1.293 0 0 0-1.415.13 3.091 3.091 0 0 0-.638.654c-.211.256-.3.459-.653.611-.163.072-.326.092-.489.173-.023.014-.02.052.013.046a1.891 1.891 0 0 0 1.175-.534c.251-.247.478-.5.752-.719a2.032 2.032 0 0 1 1.246-.3c.031 0 .031-.045.009-.061z" class="cls-5" transform="translate(-402.456 -561.084)"/>
                <path id="Path_1027" d="M440.4 570c-.261-.393-.834-.055-1.1.153a1.372 1.372 0 0 0-.588 1.129c.007.026.049.032.049 0a1.574 1.574 0 0 1 1.6-1.223.039.039 0 0 0 .039-.059z" class="cls-5" transform="translate(-405.136 -561.846)"/>
                <path id="Path_1028" d="M434.792 564.017a1.462 1.462 0 0 0-1.393.583c-.374.367-.823 1.512-1.392 1.535-.543.02-1.8-.306-2.018.417 0 .013.016.019.026.01.48-.732 1.65.165 2.3-.136a1.428 1.428 0 0 0 .676-.73 3.776 3.776 0 0 1 1.805-1.636.022.022 0 0 0-.004-.043z" class="cls-5" transform="translate(-400.388 -558.666)"/>
                <path id="Path_1029" d="M432.218 563.659a2.167 2.167 0 0 0-1.854-.154 1.189 1.189 0 0 0-.547 1.37.025.025 0 1 0 .049 0c-.006-1.272 1.367-1.311 2.339-1.168a.023.023 0 0 0 .013-.048z" class="cls-5" transform="translate(-400.275 -558.323)"/>
                <path id="Path_1030" d="M432.606 559.961a1.344 1.344 0 0 0-2.21.8c0 .024.037.026.043.006a1.054 1.054 0 0 1 .874-.751 2.456 2.456 0 0 1 1.221.054.068.068 0 0 0 .072-.109z" class="cls-5" transform="translate(-400.61 -556.298)"/>
                <path id="Path_1031" d="M433.171 555.42a1.368 1.368 0 0 0-2 .4.128.128 0 0 0 .189.156c.221-.149.4-.337.631-.48a1.205 1.205 0 0 1 1.152-.03.026.026 0 0 0 .028-.046z" class="cls-5" transform="translate(-401.028 -553.859)"/>
                <path id="Path_1032" d="M432.251 552.62a1.559 1.559 0 0 0-1.688-.111c-.423.212-1.054.755-.739 1.259a.114.114 0 0 0 .2-.045 1.576 1.576 0 0 1 2.2-1.064c.023.01.05-.023.027-.039z" class="cls-5" transform="translate(-400.251 -552.314)"/>
            </g>
            <path id="Path_1033" d="M367.5 575.9c-.42-.043-.839-.085-1.262-.1a4.283 4.283 0 0 0-1.061.024 2.259 2.259 0 0 0-.972.593c-.29.247-.638.429-.918.686-.01.009 0 .019.013.015.294-.185.606-.331.9-.519a3.907 3.907 0 0 1 .96-.567 9.708 9.708 0 0 1 2.339-.1c.018-.011.02-.032.001-.032z" class="cls-6" transform="translate(-362.961 -562.844)"/>
            <path id="Path_1034" d="M378.791 573.086a4.029 4.029 0 0 1-2.131.875 13.221 13.221 0 0 1-2.648.367c-.02 0-.023.033 0 .033a9.468 9.468 0 0 0 2.727-.2 8.55 8.55 0 0 0 1.376-.485 1.469 1.469 0 0 0 .722-.566c.009-.02-.03-.043-.046-.024z" class="cls-6" transform="translate(-368.793 -561.375)"/>
            <path id="Path_1035" d="M372.2 579.731c-.778.319-1.481.795-2.251 1.133a3.694 3.694 0 0 0-1.819 1.273c-.01.013.006.031.023.016a5.748 5.748 0 0 1 1.88-1.13c.745-.384 1.419-.907 2.17-1.282.005-.003-.003-.01-.003-.01z" class="cls-6" transform="translate(-365.596 -564.998)"/>
            <path id="Path_1036" d="M381.025 574.636a6.24 6.24 0 0 1-1.679 1.256c-.586.345-1.19.663-1.78 1.005-.017.01 0 .039.016.03 1.22-.543 2.785-1.035 3.479-2.269.013-.022-.019-.041-.036-.022z" class="cls-6" transform="translate(-370.734 -562.219)"/>
            <path id="Path_1037" d="M386.242 577.458a18.923 18.923 0 0 1-1.171 2.9 2.443 2.443 0 0 0-.234 1.124c0 .489-.026.971-.046 1.461 0 .033.049.03.051 0a12.4 12.4 0 0 0 .166-1.357 3.569 3.569 0 0 1 .355-1.337 9.429 9.429 0 0 0 .9-2.788.011.011 0 0 0-.021-.003z" class="cls-6" transform="translate(-374.672 -563.755)"/>
            <path id="Path_1038" d="M392.769 574.745a4.721 4.721 0 0 0-.337-.667 2.62 2.62 0 0 0-1.511-.8.014.014 0 0 0-.01.026 2.742 2.742 0 0 1 1.419.953 5.581 5.581 0 0 1 .342.715 3.688 3.688 0 0 0 .455.622c.013.016.04 0 .033-.014a5.6 5.6 0 0 0-.391-.835z" class="cls-6" transform="translate(-378.001 -561.485)"/>
            <path id="Path_1039" d="M385.229 564.8c-.056-.5-.137-1-.228-1.491a7.256 7.256 0 0 0-.287-1.321c-.013-.032-.072-.029-.075.007a3.85 3.85 0 0 0 .111 1.217c.086.459.166.917.235 1.373.068.435.117.869.179 1.3a3.037 3.037 0 0 1-.033 1.292c0 .016.02.019.026.007a4.126 4.126 0 0 0 .072-2.384z" class="cls-6" transform="translate(-374.58 -555.323)"/>
            <path id="Path_1040" d="M433.026 552.5a3.653 3.653 0 0 0-1.579-.461c-.022 0-.022.029 0 .035a4.748 4.748 0 0 1 1.344.521 3.5 3.5 0 0 1 1.2.95c.028.039.082 0 .071-.039-.102-.478-.637-.781-1.036-1.006z" class="cls-6" transform="translate(-400.071 -549.919)"/>
            <path id="Path_1041" d="M430.28 558.33a4.172 4.172 0 0 1 .925-1.552 2.428 2.428 0 0 0-.358.241 4.593 4.593 0 0 0-1.162 2.353 2.585 2.585 0 0 0-.121 1.893c.01.013.066.107.133.2a6.828 6.828 0 0 1 .583-3.135z" class="cls-6" transform="translate(-398.978 -552.498)"/>
            <path id="Path_1042" d="M439.044 563.672c-.338-.1-.989-.722-1.393-.838-.387-.112-.621.373-1.592.731l.814-.264a1.172 1.172 0 0 1 1.054-.1c.368.169.993.729 1.292.578.027-.012-.143-.097-.175-.107z" class="cls-6" transform="translate(-402.592 -555.787)"/>
            <path id="Path_1043" d="M443.63 571.34c-.947-1.193-2.046-1.594-2.721-2.973-.276-.557-.263-.5-.065.026.508 1.34 1.477 1.767 2.408 2.834a9.264 9.264 0 0 1 1.277 1.942 9.583 9.583 0 0 1 .4.954 4.582 4.582 0 0 1 .209 1.333c0 .023.035.023.038 0 .23-1.456-.671-3.01-1.546-4.116z" class="cls-6" transform="translate(-405.118 -558.594)"/>
            <path id="Path_1044" d="M435.307 575.694a19.1 19.1 0 0 0-.777-2.021c-.266-.745-.6-1.675-.9-2.411-.15-.361-.432-1.7-.13-.172a38.6 38.6 0 0 0 1.386 4.272 3.474 3.474 0 0 1 .273 1.7 3.437 3.437 0 0 1-.673 1.7c-.023.035-.046.241-.02.2a6.981 6.981 0 0 0 .839-1.5 3.165 3.165 0 0 0 .002-1.768z" class="cls-6" transform="translate(-401.125 -559.903)"/>
            <path id="Path_1045" d="M429.527 573.015a19.487 19.487 0 0 0-.364-2.346c-.172-.96-.355-1.579-.478-2.548-.007-.022-.081-.768-.088-.478a35.164 35.164 0 0 0 .693 4.981 2.84 2.84 0 0 1-.228 1.691 3.5 3.5 0 0 1-.726.9 5.768 5.768 0 0 1-.855.713c-.016.007 0 .035.013.026a4.7 4.7 0 0 0 .842-.566 3.327 3.327 0 0 0 .784-.742 2.515 2.515 0 0 0 .407-1.631z" class="cls-6" transform="translate(-397.916 -558.378)"/>
        </g>
        <path id="Path_1046" fill="#e1dbcc" d="M400.909 460.463a3.86 3.86 0 0 0-.892-2.164 2.783 2.783 0 0 0-1.385-1.05 1.083 1.083 0 0 0-.749.24 7.96 7.96 0 0 0-.98.706c-.449.371-.306.907-.091 1.369.235.5.7.442 1.172.352.048-.008.061-.086 0-.089a2.534 2.534 0 0 1-.436-.068c-.169-.185-.03-.446.123-.648.273-.348 1.177.155.785.677a1.5 1.5 0 0 1-.931.55c-.071-.02-.139-.033-.208-.049-.6-.137-1.1-.508-1.692-.654a6.183 6.183 0 0 0-1.457-.169c.133-.157.263-.325.389-.491.388-.505.82-.974 1.215-1.471.016-.006.032-.01.052-.016a.1.1 0 0 0 .065-.131.089.089 0 0 1 .016-.022c.048-.062-.03-.156-.1-.1a.6.6 0 0 0-.049.046 36.628 36.628 0 0 0-4.742.068 10.7 10.7 0 0 0-2.149.4 11.524 11.524 0 0 1-1.119.531c-.684-.052-1.371-.082-2.057-.1a14.383 14.383 0 0 0-2.726.055c-.8.133-1.259.755-1.949 1.09-.95-.458-1.864-.982-2.794-1.48-.979-.527-1.985-1.006-3-1.461-.985-.446-1.958-.94-2.98-1.3a8.655 8.655 0 0 0-5.51.26 20.482 20.482 0 0 0-5.261 2.489c-.111-.09-.218-.185-.329-.276a4.675 4.675 0 0 1-.94-1.168 1.875 1.875 0 0 1-.129-1.555c.025 0 .227-.628.246-.657.652-1.188.961-1.868 1.559-3.081.635-1.286 1.328-2.544 2.057-3.784a31.9 31.9 0 0 0 3.693-7.649 7.773 7.773 0 0 0-1.777-6.991 23.92 23.92 0 0 0-2.515-2.632 8.022 8.022 0 0 0-1.766-1.308c.035.01.072.014.1.021.251.045.489.133.736.191a.034.034 0 0 0 .029-.058 2.375 2.375 0 0 0-.577-.316 6.967 6.967 0 0 0-4.358-1.044 9 9 0 0 0-2.063.5.177.177 0 0 1 .024-.013 4.56 4.56 0 0 1 1.294-.491c.039-.013.026-.068-.009-.075a1.75 1.75 0 0 0-1.038.085 6.185 6.185 0 0 0-2.857.934 1.59 1.59 0 0 1 .318-.32.029.029 0 0 0-.025-.051 1.072 1.072 0 0 0-.306.13.017.017 0 0 0-.011 0c-3.19.38-5.627 3.634-6.476 6.478a10.514 10.514 0 0 0 1.46 8.8 8.307 8.307 0 0 0 2.085 2.355c1.283 1.012 2.7 1.842 3.976 2.87-.062 2.066-1.818 3.862-3.224 5.212-1.513 1.454-3.211 2.7-4.756 4.126a16.442 16.442 0 0 0-4.937 7.552.047.047 0 0 0-.036.032 5.761 5.761 0 0 0-.331 2.5v.027a10.846 10.846 0 0 0 1.154 3.764 24.178 24.178 0 0 0 3.774 5.762 31.187 31.187 0 0 0 5.228 4.444 18.231 18.231 0 0 0 6.064 2.81 8.719 8.719 0 0 1 .78.527c.394.3.746.676 1.14.972.01.339.01.674.052 1.006a.047.047 0 0 0-.01.01.039.039 0 0 0 .035.066.049.049 0 0 0 .079-.031c.211-.114.429-.209.637-.312a4.746 4.746 0 0 0 0 .569.056.056 0 0 0 .058.042.085.085 0 0 0 .068.029 8.03 8.03 0 0 0 2.121-.37 2.779 2.779 0 0 0 .456.465 1.526 1.526 0 0 0 .765.391.86.86 0 0 0 .106.133c.027.026.076-.01.059-.04a1.663 1.663 0 0 1-.127-.894 12.448 12.448 0 0 0 5.957 1.119 11.059 11.059 0 0 0 4.145-1.243c.787-.413 1.539-.885 2.294-1.347.39-.238.79-.465 1.185-.7a19.868 19.868 0 0 1 2.989-.1.8.8 0 0 0 .1.029.075.075 0 0 0 .059-.131 1.487 1.487 0 0 1-.26-.259c.367-.029.738-.062 1.089-.059a.066.066 0 0 0 .062-.04h.065a.063.063 0 0 0 .022-.12.966.966 0 0 1-.318-.291c.2-.077.391-.182.562-.262.567-.263 1.171-.426 1.722-.722a.043.043 0 0 0 .016-.036.606.606 0 0 0 .1-.029.041.041 0 0 0 .006-.076 2.7 2.7 0 0 1-.6-.328c.159-.019.316-.046.468-.072l.076.02a.059.059 0 0 0 .044-.1 2.557 2.557 0 0 1-.435-.559c-.006-.009-.009-.02-.016-.033a35.645 35.645 0 0 0 6.855-5.846 26.438 26.438 0 0 0 3.023-4.21c.8-1.24 1.6-2.47 2.325-3.751.179-.1.352-.212.524-.316a8.757 8.757 0 0 0 3.28-3.277h.006a.059.059 0 0 0 .006-.117c-.149-.022-.306-.038-.475-.059a5.822 5.822 0 0 0 1.962-2.163h.052c.043 0 .06-.075.017-.085a.3.3 0 0 1-.033-.01c-.013-.032-.056-.056-.085-.029-.137-.042-.277-.078-.429-.111.078-.055.159-.111.235-.166.473-.341 1.272-.927 1.289-1.578z" transform="translate(-4.347)"/>
        <path id="Path_1047" d="M455.744 496.141a3.86 3.86 0 0 0-.892-2.164 2.783 2.783 0 0 0-1.385-1.05 1.083 1.083 0 0 0-.749.24 7.963 7.963 0 0 0-.98.706c-.449.371-.306.907-.091 1.369.235.5.7.442 1.172.352.048-.008.061-.086 0-.089a2.533 2.533 0 0 1-.436-.068c-.169-.185-.03-.446.123-.648.273-.348 1.177.155.785.677a1.5 1.5 0 0 1-.931.55c-.072-.02-.139-.033-.208-.049a3.44 3.44 0 0 1-.5-.169 3.285 3.285 0 0 1-.747 1.217 10.809 10.809 0 0 1-1.406 1.63 5.74 5.74 0 0 1-3.1.986 7.078 7.078 0 0 1-.927 2.127 20.909 20.909 0 0 1-1.53 2.278 13.822 13.822 0 0 1-2.16 2.2c-.172.136-.345.27-.523.4a33.065 33.065 0 0 0 4.154-1.109c2.97-.94 6.286-2.1 7.782-5.076h.006a.059.059 0 0 0 .006-.117c-.149-.022-.306-.038-.475-.059a5.823 5.823 0 0 0 1.962-2.163h.052c.043 0 .06-.075.017-.085a.3.3 0 0 1-.033-.01.055.055 0 0 0-.088-.026c-.137-.042-.277-.078-.429-.111.078-.055.159-.111.235-.166.48-.34 1.28-.922 1.296-1.573z" transform="translate(-59.183 -35.678)" style="isolation:isolate;mix-blend-mode:multiply" fill="#3a3231"/>
        <path id="Path_1048" fill="#3a3231" d="M455.744 496.141a3.86 3.86 0 0 0-.892-2.164 2.783 2.783 0 0 0-1.385-1.05 1.083 1.083 0 0 0-.749.24 7.963 7.963 0 0 0-.98.706c-.449.371-.306.907-.091 1.369.235.5.7.442 1.172.352.048-.008.061-.086 0-.089a2.533 2.533 0 0 1-.436-.068c-.169-.185-.03-.446.123-.648.273-.348 1.177.155.785.677a1.5 1.5 0 0 1-.931.55c-.072-.02-.139-.033-.208-.049a3.44 3.44 0 0 1-.5-.169 3.285 3.285 0 0 1-.747 1.217 10.809 10.809 0 0 1-1.406 1.63 5.74 5.74 0 0 1-3.1.986 7.078 7.078 0 0 1-.927 2.127 20.909 20.909 0 0 1-1.53 2.278 13.822 13.822 0 0 1-2.16 2.2c-.172.136-.345.27-.523.4a33.065 33.065 0 0 0 4.154-1.109 17.076 17.076 0 0 0 6.048-2.889 14.95 14.95 0 0 1-1.785.944 26.731 26.731 0 0 1-2.939 1.083 16.016 16.016 0 0 1-2 .423c-1.376.3-.677-.514-.648-.556a3.95 3.95 0 0 1 1.406-1.314 12.929 12.929 0 0 1 2.361-1.243 21.222 21.222 0 0 1 2.76-1.012c.872-.234 1.752-.41 2.638-.582a.054.054 0 0 0-.046-.046c-.149-.022-.306-.038-.475-.059a5.51 5.51 0 0 0 1.842-1.972c-2.6 2.21-5.68 2.633-6.831 3.088-.489.192-1.631.4-1.351-.087a3.254 3.254 0 0 0 .491-1.548.061.061 0 0 1 .049-.062 9.652 9.652 0 0 0 2.719-.857.066.066 0 0 1 .085.023 7.619 7.619 0 0 1 2.437-.615 13.321 13.321 0 0 1 2.461-.163l.087-.077a.054.054 0 0 0-.078-.013c-.137-.042-.277-.078-.429-.111.078-.055.159-.111.235-.166.478-.342 1.278-.924 1.294-1.575z" transform="translate(-59.183 -35.678)" style="isolation:isolate;mix-blend-mode:multiply" opacity="0.5"/>
        <path id="Path_1049" d="M400.909 460.463a2.445 2.445 0 0 0-.127-.749c-.17.472.1.69-.225 1.113a11.474 11.474 0 0 1-4.552 3 6.509 6.509 0 0 1 1.474.131.062.062 0 0 1 .03.1c-1.888 1.6-4.412 2.242-6.247 3.9a11.533 11.533 0 0 0 2.56-.94.065.065 0 0 1 .087.088 24.1 24.1 0 0 1-8.657 10.219c-.063.038-.111-.034-.089-.088a20.992 20.992 0 0 0 1.376-2.908 27.492 27.492 0 0 0-3.585 2.408 11.42 11.42 0 0 1-2.064 1.183c-.7.307-1.411.592-2.125.853A43.421 43.421 0 0 1 374 480.2a26.023 26.023 0 0 1-4.617.778 12.608 12.608 0 0 1-5.569-.869 16.586 16.586 0 0 1-4.133-2.564 15.6 15.6 0 0 1-5.13-7.564c-.215.818-.358 1.644-.583 2.456a.07.07 0 0 1-.111.03 4.362 4.362 0 0 1-1.018-2.284c-.326.53-.8 1.23-1.433 1.321-.689.1-.927-.853-1.025-1.383-.432.384-.729.865-1.148 1.253a.934.934 0 0 1-1.077.186 4.168 4.168 0 0 1-2.008-2.47l-.448.443a.067.067 0 0 1-.1-.011 8.092 8.092 0 0 1-.885-2.241 2.932 2.932 0 0 0-.687.341c-.043.033-.117.014-.114-.048.02-.264.052-.53.1-.792-.027.011-.053.02-.078.027s-.078-.011-.082-.043a13.857 13.857 0 0 1 .248-3.227c-.235.1-.5.106-.732.208a.067.067 0 0 1-.094-.075 6.169 6.169 0 0 1 1.821-3.085.065.065 0 0 1 .111.046c-.013.614-.257 1.194-.312 1.8a3.631 3.631 0 0 1 .86-.71.062.062 0 0 1 .094.068 4.746 4.746 0 0 0-.283 1.334 8.194 8.194 0 0 1 1.077-1.2.064.064 0 0 1 .108.061 8.636 8.636 0 0 0-.14 3.023 16.067 16.067 0 0 0 1.181-1.414.065.065 0 0 1 .12.031 11.054 11.054 0 0 0 .224 2.659c.557-.729.9-1.755 1.741-2.206a.07.07 0 0 1 .1.041c.123.44.4.866.486 1.319a17.346 17.346 0 0 1 1.845-3.117.064.064 0 0 1 .12.03 4.477 4.477 0 0 0 .306 2 14.522 14.522 0 0 1 1.633-3.813.066.066 0 0 1 .121.032 6.619 6.619 0 0 0 .322 2.093c.374-1.188.765-2.365 1.2-3.534a34.518 34.518 0 0 1 4.106-8.049 25.4 25.4 0 0 1 4.354-4.691 27.851 27.851 0 0 0 3.155-6.735 7.773 7.773 0 0 0-1.777-6.991 23.92 23.92 0 0 0-2.515-2.632 8.022 8.022 0 0 0-1.766-1.308c.035.01.072.014.1.021.251.045.489.133.736.191a.034.034 0 0 0 .029-.058 2.375 2.375 0 0 0-.577-.316 6.967 6.967 0 0 0-4.358-1.044 9 9 0 0 0-2.063.5.177.177 0 0 1 .024-.013 4.56 4.56 0 0 1 1.294-.491c.039-.013.026-.068-.009-.075a1.75 1.75 0 0 0-1.038.085 6.185 6.185 0 0 0-2.857.934 1.59 1.59 0 0 1 .318-.32.029.029 0 0 0-.025-.051 1.072 1.072 0 0 0-.306.13.017.017 0 0 0-.011 0c-3.19.38-5.627 3.634-6.476 6.478a10.514 10.514 0 0 0 1.46 8.8 8.307 8.307 0 0 0 2.085 2.355c1.283 1.012 2.7 1.842 3.976 2.87-.062 2.066-1.818 3.862-3.224 5.212-1.513 1.454-3.211 2.7-4.756 4.126a16.442 16.442 0 0 0-4.937 7.552.047.047 0 0 0-.036.032 5.761 5.761 0 0 0-.331 2.5v.027a10.846 10.846 0 0 0 1.154 3.764 24.178 24.178 0 0 0 3.774 5.762 31.187 31.187 0 0 0 5.228 4.444 18.231 18.231 0 0 0 6.064 2.81 8.719 8.719 0 0 1 .78.527c.394.3.746.676 1.14.972.01.339.01.674.052 1.006a.047.047 0 0 0-.01.01.039.039 0 0 0 .035.066.049.049 0 0 0 .079-.031c.211-.114.429-.209.637-.312a4.746 4.746 0 0 0 0 .569.056.056 0 0 0 .058.042.085.085 0 0 0 .068.029 8.03 8.03 0 0 0 2.121-.37 2.779 2.779 0 0 0 .456.465 1.526 1.526 0 0 0 .765.391.86.86 0 0 0 .106.133c.027.026.076-.01.059-.04a1.663 1.663 0 0 1-.127-.894 12.448 12.448 0 0 0 5.957 1.119 11.059 11.059 0 0 0 4.145-1.243c.787-.413 1.539-.885 2.294-1.347.39-.238.79-.465 1.185-.7a19.868 19.868 0 0 1 2.989-.1.8.8 0 0 0 .1.029.075.075 0 0 0 .059-.131 1.487 1.487 0 0 1-.26-.259c.367-.029.738-.062 1.089-.059a.066.066 0 0 0 .062-.04h.065a.063.063 0 0 0 .022-.12.966.966 0 0 1-.318-.291c.2-.077.391-.182.562-.262.567-.263 1.171-.426 1.722-.722a.043.043 0 0 0 .016-.036.606.606 0 0 0 .1-.029.041.041 0 0 0 .006-.076 2.7 2.7 0 0 1-.6-.328c.159-.019.316-.046.468-.072l.076.02a.059.059 0 0 0 .044-.1 2.557 2.557 0 0 1-.435-.559c-.006-.009-.009-.02-.016-.033a35.645 35.645 0 0 0 6.855-5.846 26.438 26.438 0 0 0 3.023-4.21c.8-1.24 1.6-2.47 2.325-3.751.179-.1.352-.212.524-.316a8.757 8.757 0 0 0 3.28-3.277h.006a.059.059 0 0 0 .006-.117c-.149-.022-.306-.038-.475-.059a5.822 5.822 0 0 0 1.962-2.163h.052c.043 0 .06-.075.017-.085a.3.3 0 0 1-.033-.01c-.013-.032-.056-.056-.085-.029-.137-.042-.277-.078-.429-.111.078-.055.159-.111.235-.166.473-.333 1.272-.919 1.289-1.57z" class="cls-10" transform="translate(-4.347)"/>
        <path id="Path_1050" d="M404.117 531.913c-1.2 1.056-2.326 2.2-3.556 3.233-.578.488-1.181.95-1.743 1.459a5.675 5.675 0 0 1-1.447 1.056c-.918.4-1.562-.667-2.06-1.369a8.3 8.3 0 0 0 1.337 2.945.065.065 0 0 1-.054.1c-.407 0-.814-.024-1.221.009a7.855 7.855 0 0 1 1.122.423.064.064 0 0 1-.016.117c-.977.2-1.946.462-2.945.573a5.348 5.348 0 0 1 .856.539c.039.033.048.112-.017.122a8.594 8.594 0 0 1-1.383.045 1.479 1.479 0 0 1 .478.372c.04.051-.022.1-.071.087a.062.062 0 0 1-.026.006c-2.311 0-4.611-.2-6.917-.214 1.2.192 2.394.4 3.607.468a.065.065 0 0 1 .017.127c-1.471.513-2.714 1.5-4.162 2.062a9.07 9.07 0 0 1-4.357.583 13.98 13.98 0 0 1-4.311-1.37 35.363 35.363 0 0 1-3.211-2.154c.523.592 1.034 1.2 1.6 1.756a.264.264 0 0 0 .065.062.142.142 0 0 1 .016.02c.24.224.527.413.741.657a.5.5 0 0 1 .045.547c-.016.042-.074.068-.106.026a5.633 5.633 0 0 1-.752-1.1c-.475.358-.992.654-1.493.979a.065.065 0 0 1-.1-.072 5.124 5.124 0 0 0 .046-1.089 6.2 6.2 0 0 1-.839.813.066.066 0 0 1-.111-.046c-.026-.485.075-.87-.29-1.266a5.148 5.148 0 0 0-1.021-.8 4.573 4.573 0 0 0-1.23-.6c-.442-.13-.892-.215-1.338-.319a14.816 14.816 0 0 1-2.546-.872 17.182 17.182 0 0 0 4.326 1.725 8.728 8.728 0 0 1 .78.527c.394.3.746.676 1.14.972.01.339.01.674.052 1.006a.046.046 0 0 0-.01.01.039.039 0 0 0 .035.066.049.049 0 0 0 .079-.031c.211-.114.429-.209.637-.312a4.739 4.739 0 0 0 0 .569.056.056 0 0 0 .058.042.085.085 0 0 0 .068.029 8.025 8.025 0 0 0 2.121-.37 2.784 2.784 0 0 0 .456.465 1.526 1.526 0 0 0 .765.391.864.864 0 0 0 .106.133c.027.026.076-.01.059-.04a1.663 1.663 0 0 1-.127-.894 12.448 12.448 0 0 0 5.957 1.119 11.059 11.059 0 0 0 4.152-1.235c.787-.413 1.539-.885 2.294-1.347.39-.238.79-.465 1.185-.7a19.884 19.884 0 0 1 2.989-.1.809.809 0 0 0 .1.029.075.075 0 0 0 .059-.131 1.485 1.485 0 0 1-.26-.259c.367-.029.738-.062 1.089-.059a.066.066 0 0 0 .062-.04h.065a.063.063 0 0 0 .022-.12.964.964 0 0 1-.318-.291c.2-.077.391-.182.562-.262.566-.263 1.171-.426 1.722-.722a.043.043 0 0 0 .016-.036.62.62 0 0 0 .1-.029.041.041 0 0 0 .006-.076 2.706 2.706 0 0 1-.6-.328c.159-.019.316-.046.468-.072l.076.02a.059.059 0 0 0 .044-.1 2.559 2.559 0 0 1-.435-.559c-.006-.009-.009-.02-.016-.033a35.644 35.644 0 0 0 6.855-5.846 14.114 14.114 0 0 0 1.3-1.588c-.22.19-.437.379-.646.562z" class="cls-11" transform="translate(-18.595 -56.607)"/>
        <path id="Path_1051" d="M461.742 493.977a2.782 2.782 0 0 0-1.385-1.05 1.083 1.083 0 0 0-.749.24 7.965 7.965 0 0 0-.98.706c-.449.371-.306.907-.091 1.369.235.5.7.442 1.172.352.048-.008.061-.086 0-.089a2.533 2.533 0 0 1-.436-.068c-.169-.185-.03-.446.123-.648.273-.348 1.177.155.785.677a1.5 1.5 0 0 1-.931.55c-.072-.02-.139-.033-.208-.049-.6-.137-1.1-.508-1.692-.654a6.181 6.181 0 0 0-1.457-.169c.081-.092.152-.189.227-.286a6.807 6.807 0 0 1-.921.647 2.875 2.875 0 0 1-.4.269 3.307 3.307 0 0 1-.892.326 13.681 13.681 0 0 1 3.859.661c-.8.628-1.494 1.4-2.274 2.082a22.076 22.076 0 0 1 3.078-.817 9.1 9.1 0 0 1 2.554-.162c.072-.049.143-.1.212-.15.475-.342 1.274-.923 1.291-1.574a3.859 3.859 0 0 0-.885-2.163z" class="cls-12" transform="translate(-66.072 -35.678)"/>
        <path id="Path_1052" d="M442.454 498.749a4.459 4.459 0 0 0 1.032-.6 14.828 14.828 0 0 1-1.949.761 10.46 10.46 0 0 1 3.032.5.076.076 0 0 1 .033.123 4.337 4.337 0 0 1-2.248 1.158c-.524.058-1.058.1-1.591.131a4.178 4.178 0 0 1 1.341.351.071.071 0 0 1 .016.111 2.728 2.728 0 0 1-2.02.847c-.976.062-1.959-.011-2.938.025a14.953 14.953 0 0 0-3.729.447c-.647.194-1.272.451-1.906.7a20.249 20.249 0 0 1 2.631-.484 32.128 32.128 0 0 1 4.3.035.073.073 0 0 1 .072.091 19.944 19.944 0 0 1-1.836 4.585 29.714 29.714 0 0 1-2.912 3.286 14.959 14.959 0 0 0 4.839-3.59 23.452 23.452 0 0 0 1.578-2.452 7 7 0 0 0 .924-2.1.087.087 0 0 1 .056-.067c.677-.213 1.421-.112 2.091-.352a10.766 10.766 0 0 0 1.585-.9c-.166-.02-.328-.039-.488-.072a.073.073 0 0 1-.017-.133 17.619 17.619 0 0 0 2.461-1.468 28.621 28.621 0 0 0-3.969-.858c-.068-.024-.463-.047-.388-.075z" class="cls-13" transform="translate(-53.881 -38.526)"/>
        <path id="Path_1053" d="M401.613 493.215a2.355 2.355 0 0 0-2.4-.316 22.836 22.836 0 0 1-2.219 1.568c-.13.137-.263.273-.39.407a11.5 11.5 0 0 1 3.006-.852c.576-.065 1.155-.035 1.724-.108a2.468 2.468 0 0 0 .57-.127c.176-.062.191-.052.093-.2a1.276 1.276 0 0 0-.384-.372z" class="cls-13" transform="translate(-34.86 -35.553)"/>
        <path id="Path_1054" d="M411.516 492.282a2.5 2.5 0 0 0 .7.706 1.9 1.9 0 0 0 1.23.183c-.339-.8-1.146-.878-1.93-.889z" class="cls-13" transform="translate(-42.983 -35.334)"/>
        <path id="Path_1055" d="M417.437 498.481c-.2.055-.486.218-.387.475.055.15.254.169.391.173a5.636 5.636 0 0 0 1.139-.153 1.12 1.12 0 0 0-1.143-.495z" class="cls-13" transform="translate(-45.986 -38.692)"/>
        <path id="Path_1056" d="M423.44 503.746a4.426 4.426 0 0 0 1.711.82c.2.022.911.114.68-.283a1.169 1.169 0 0 0-.449-.478 2.092 2.092 0 0 0-.765-.14c-.39.003-.784.052-1.177.081z" class="cls-13" transform="translate(-49.477 -41.533)"/>
        <path id="Path_1057" d="M424.012 492.886a.606.606 0 0 0-.049.046c-.907-.028-1.8-.052-2.7-.039a4.312 4.312 0 0 1 1.539.245c.059.022.04.1 0 .127-.556.4-1.057.871-1.634 1.243.205-.027.407-.062.613-.1.078-.016.137.1.058.13-.459.205-.823.583-1.292.745a14.308 14.308 0 0 1-2.047.251c-.064.013-.136-.071-.072-.12a6.713 6.713 0 0 0 .866-1 8.79 8.79 0 0 0-3.176-.383 9.2 9.2 0 0 1 1.9.377.071.071 0 0 1 0 .137 3.925 3.925 0 0 1-1.064.215 5.57 5.57 0 0 1 1.094.065.07.07 0 0 1 .019.13 8.153 8.153 0 0 1-2.7.505c.453.044.912.044 1.364.127.077.015.054.117 0 .143a7.47 7.47 0 0 1-2.6 1 7.824 7.824 0 0 1-2.119-.459 3.392 3.392 0 0 1 .654.419.071.071 0 0 1 0 .1 9.106 9.106 0 0 1-1.506 1.354 7.47 7.47 0 0 1 2.36-1.077 3.77 3.77 0 0 1 2.45.439.073.073 0 0 1 0 .127 7.461 7.461 0 0 1-2.6 1.422 14.446 14.446 0 0 1-1.826.267c.121 0 .244.01.361.019a.074.074 0 0 1 .04.137 10.055 10.055 0 0 1-1.2.531 13.9 13.9 0 0 1 3.446-.631.07.07 0 0 1 .065.107 4.3 4.3 0 0 1-1.471 1.738 9.368 9.368 0 0 1-2.44.846 11.776 11.776 0 0 1-2.719.367c-.955 0-1.908-.055-2.858.037a5.3 5.3 0 0 1-1.562.321c-.517.065-1.031.121-1.551.176a9.7 9.7 0 0 1 1.474.137.072.072 0 0 1 .032.12 9.61 9.61 0 0 1-2.906 1.767 4.335 4.335 0 0 1-1.666.3 8.285 8.285 0 0 1-1.841-.4 16.037 16.037 0 0 1-3.7-1.435c-.212-.127-.43-.247-.647-.364a.228.228 0 0 1-.046.04c.281.234.481.54.756.777a4.488 4.488 0 0 0 .972.657c.709.335 1.451.641 2.18.914a6.909 6.909 0 0 0 2.431.521 3.15 3.15 0 0 0 1.191-.215 6.829 6.829 0 0 1 .952-.364.066.066 0 0 1 .078.033.694.694 0 0 1 .141 0c.25-.006.5.026.754.029.374.01.746 0 1.123 0 .767 0 1.535-.013 2.3-.036a16.17 16.17 0 0 0 4.5-.459 7.015 7.015 0 0 0 3.51-2.469 19.059 19.059 0 0 0 2.085-3.487.068.068 0 0 1 .033-.079 4.694 4.694 0 0 0 1.024-.858 5.8 5.8 0 0 0 .572-.632c-.293-.035-.572-.143-.868-.159a.074.074 0 0 1-.039-.137 5.609 5.609 0 0 1 1.614-.991c.589-.153 1.211-.134 1.807-.234a13.65 13.65 0 0 0 1.867-.426 5.6 5.6 0 0 0 1.139-.515c.1-.12.193-.24.286-.364.388-.505.82-.974 1.215-1.471.016-.006.032-.01.052-.016a.1.1 0 0 0 .065-.131.088.088 0 0 1 .016-.022c.046-.071-.032-.166-.099-.115z" class="cls-11" transform="translate(-32.548 -35.655)"/>
        <path id="Path_1058" d="M387.017 504.387c.114-.081.228-.169.348-.25.367-.253.787-.425 1.171-.654a6.112 6.112 0 0 0 1.923-1.536c-.218-.072-.439-.1-.661-.16a6.665 6.665 0 0 0 1.231-.256 5.136 5.136 0 0 0 .868-.582c.5-.418.992-.853 1.5-1.27.244-.2.862-.549.436-.882a3.648 3.648 0 0 0-.706-.417c-.511-.25-1-.536-1.507-.774a12.291 12.291 0 0 0-2.164-.761c-.589-.146-1.17-.345-1.769-.452a2.789 2.789 0 0 0-2.106.459 7.714 7.714 0 0 0-1.153.9c.092-.049.169-.088.193-.1.351-.2.719-.388 1.086-.554a3.614 3.614 0 0 1 2.192-.276 13.233 13.233 0 0 1 2.467.807 15.77 15.77 0 0 1 2.264 1.122.075.075 0 0 1 0 .127 17.653 17.653 0 0 0-3.6 1.825 2.862 2.862 0 0 1-1.318.735 7.256 7.256 0 0 1-1.584-.013 2.555 2.555 0 0 1-2.144-1.343c-.176-.358-.287-.755-.495-1.094a1.077 1.077 0 0 0-1.188-.485c-.061.01-.136-.071-.076-.12.283-.222.6-.39.9-.586-.937-.51-1.9-1.161-3.019-.868-.086.026-.121-.085-.056-.131.13-.1.253-.2.389-.29a2.281 2.281 0 0 0-1.148-.6c-.078-.012-.059-.117 0-.139a5.759 5.759 0 0 1 .582-.186 2.29 2.29 0 0 0-.706-.663 1.81 1.81 0 0 0-1.015-.156c-.088.009-.088-.114-.019-.143a11.035 11.035 0 0 1 1.076-.3c-.537-.5-1.031-1.135-1.831-1.126a.073.073 0 0 1-.052-.123 4.119 4.119 0 0 1 1.185-.97c-.377.009-.752.029-1.132.033a.073.073 0 0 1-.052-.123 8.029 8.029 0 0 1 .963-.944 17.022 17.022 0 0 0-2.452 1.392c-.111-.09-.218-.185-.329-.276a4.676 4.676 0 0 1-.94-1.168c0-.009-.007-.016-.012-.027a56.85 56.85 0 0 0-3.879 5.249c-.7 1.123-1.389 2.258-2.066 3.39a14.7 14.7 0 0 0-1.656 3.6c.967 0 1.85-.657 2.8-.814a11.551 11.551 0 0 1 3.287-.153 2.573 2.573 0 0 0 1.577-.108 4.23 4.23 0 0 0 1.026-.832 5.239 5.239 0 0 1 1.89-1.467.12.12 0 0 1 .095.1 2.768 2.768 0 0 1-.26 1.042 3.66 3.66 0 0 1 1.617-.631.071.071 0 0 1 .081.1 3.115 3.115 0 0 1-.458.6 1.68 1.68 0 0 1 .716-.1c.054.011.1.059.065.111a4.219 4.219 0 0 1-.866 1.029c.281.234.481.54.756.777a4.49 4.49 0 0 0 .972.657c.709.335 1.451.641 2.18.914a6.909 6.909 0 0 0 2.431.521 3.148 3.148 0 0 0 1.191-.215 6.823 6.823 0 0 1 .952-.364z" class="cls-10" transform="translate(-18.718 -34.626)"/>
        <path id="Path_1059" fill="#934f2a" d="M345.69 477.879c.326.237.579.565.921.8a12.873 12.873 0 0 0 1.515.85 3.025 3.025 0 0 1-.474-.964.07.07 0 0 1 .129-.054 10.726 10.726 0 0 0 2.972 2.713 2.2 2.2 0 0 0-.326-.7c-.052-.081.071-.149.127-.074a7.309 7.309 0 0 0 2.642 1.868c-.107-.3-.251-.582-.384-.873a.073.073 0 0 1 .127-.071 5.265 5.265 0 0 0 1.967 1.425 7.314 7.314 0 0 0 1.889 1 7.858 7.858 0 0 0-.471-.819c-.036-.071.061-.156.117-.088a3.747 3.747 0 0 0 1.159.847 10.276 10.276 0 0 0-1.015-1.621c-.052-.075.052-.14.113-.087a7.868 7.868 0 0 0 .917.848 4.993 4.993 0 0 0 1.221.465c.712.2 1.428.42 2.134.644-.469-.96-1-1.884-1.553-2.795a.073.073 0 0 1 .124-.076 2.068 2.068 0 0 0 .731.726 5.435 5.435 0 0 0-1.2-2.483c-.059-.071.038-.176.1-.1a2.282 2.282 0 0 0 .576.5 7.578 7.578 0 0 0-1.113-2.392c-.052-.078.076-.152.131-.074a1.543 1.543 0 0 0 .589.533 3.869 3.869 0 0 0-1.032-2c-.058-.059.023-.162.091-.113a3.587 3.587 0 0 0 .641.393 3.934 3.934 0 0 0-1.116-2.225c-.068-.065.033-.163.105-.1a3.26 3.26 0 0 0 .79.559 5.029 5.029 0 0 0-1.152-2.625c-.061-.068.033-.169.1-.1a2.6 2.6 0 0 0 .81.541 5.639 5.639 0 0 0-1.237-2.766.073.073 0 0 1 .072-.121 1.7 1.7 0 0 0 .963.072 2.689 2.689 0 0 0-1.161-.855c-.092-.02-.052-.157.038-.141 0 0 .01 0 .017.006a.025.025 0 0 1 .01-.006 15.485 15.485 0 0 0 2.9-.812 2.65 2.65 0 0 0-1-.413.077.077 0 0 1-.016-.138 7.993 7.993 0 0 0 1.083-.8c-.394.052-.771.18-1.156.266-.065.017-.133-.071-.071-.116a9.56 9.56 0 0 0 1.256-.967 8.171 8.171 0 0 1 .72-.735c-.592.081-1.155.293-1.744.386a.073.073 0 0 1-.056-.133c1.258-.872 2.563-1.675 3.8-2.576a10.253 10.253 0 0 0-2.209-.478.073.073 0 0 1 0-.14c.3-.048.605-.081.908-.111-.319-.214-.634-.433-.957-.647-.068-.042-.026-.16.055-.134.342.114.675.251 1.025.335a8.72 8.72 0 0 0-1.063-1.23c-.06-.059.005-.133.071-.123.283.046.569.091.853.139a5.423 5.423 0 0 0-.586-.39c-.078-.039-.022-.147.059-.131a6.439 6.439 0 0 0 2.138-.168 4.8 4.8 0 0 1-1.956-1.487l-.218-.183a4.675 4.675 0 0 1-.94-1.168 1.875 1.875 0 0 1-.129-1.555c.025 0 .227-.628.246-.657.652-1.188.961-1.868 1.559-3.081.635-1.286 1.328-2.544 2.057-3.784a31.9 31.9 0 0 0 3.693-7.649 7.773 7.773 0 0 0-1.777-6.991 23.92 23.92 0 0 0-2.515-2.632 8.022 8.022 0 0 0-1.766-1.308c.035.01.072.014.1.021.251.045.489.133.736.191a.034.034 0 0 0 .029-.058 2.375 2.375 0 0 0-.577-.316 6.967 6.967 0 0 0-4.358-1.044 9 9 0 0 0-2.063.5.177.177 0 0 1 .024-.013 4.56 4.56 0 0 1 1.294-.491c.039-.013.026-.068-.009-.075a1.75 1.75 0 0 0-1.038.085 6.185 6.185 0 0 0-2.857.934 1.59 1.59 0 0 1 .318-.32.029.029 0 0 0-.025-.051 1.072 1.072 0 0 0-.306.13.017.017 0 0 0-.011 0c-3.19.38-5.627 3.634-6.476 6.478a10.514 10.514 0 0 0 1.46 8.8 8.307 8.307 0 0 0 2.085 2.355c1.283 1.012 2.7 1.842 3.976 2.87-.062 2.066-1.818 3.862-3.224 5.212-1.513 1.454-3.211 2.7-4.756 4.126a16.442 16.442 0 0 0-4.937 7.552.047.047 0 0 0-.036.032 5.761 5.761 0 0 0-.331 2.5v.027a10.846 10.846 0 0 0 1.154 3.764 24.178 24.178 0 0 0 3.774 5.762c.069.053.128.114.186.173z" transform="translate(-4.347)"/>
        <path id="Path_1060" d="M382.047 491.021c.062-.068.123-.133.189-.2a16.123 16.123 0 0 0-1.991 1.165c-.111-.09-.218-.185-.329-.276a4.675 4.675 0 0 1-.94-1.168 1.8 1.8 0 0 1-.178-.416 8.321 8.321 0 0 1-.9 2.267 2.588 2.588 0 0 0 .914-.878.063.063 0 0 1 .117.033 5.824 5.824 0 0 1-.956 2.707 3.292 3.292 0 0 0 1.408-1.7.064.064 0 0 1 .125.032c-.567 2.688-3.092 4.363-3.818 6.966a31.21 31.21 0 0 1 2.437-2.131c.052-.03.124.032.088.087-1.1 1.6-2.743 2.883-3.169 4.842a7.458 7.458 0 0 1 2.5-1.868.062.062 0 0 1 .075.1 6.108 6.108 0 0 0-2.083 3.381 6.164 6.164 0 0 1 3.97-1.259.065.065 0 0 1 .057.094 5.1 5.1 0 0 1-1.321 1.379 17.167 17.167 0 0 0 4.084-.643.064.064 0 0 1 .061.107c-.442.536-1.083.871-1.515 1.411 1.092-.084 2.2-.465 3.239.046.6.293 1.146.7 1.731 1.021a8.188 8.188 0 0 0 1.939.821c2.891.729 9.929.589 11.788.358a12.629 12.629 0 0 0 8.211-4.463 14.85 14.85 0 0 0 1.916-2.977c.175-.384.308-.777.465-1.172.075-.189.163-.475.384-.536a.061.061 0 0 1 .062.016 5.211 5.211 0 0 0 2.977-1 5.934 5.934 0 0 0 1.3-1.829 7.551 7.551 0 0 1-2.033 1.9 6.443 6.443 0 0 1-2.779.559 8.266 8.266 0 0 1-.884.176 10 10 0 0 1-1.923.126 3.211 3.211 0 0 1-1.311-.25.055.055 0 0 1-.029-.067 11.505 11.505 0 0 1 1.129-1.933 1.427 1.427 0 0 0-.42-.155c-.049 0-.1-.069-.046-.107.611-.5 1.188-1.048 1.773-1.589a12.854 12.854 0 0 1-2.662 1.4c-.242.059-.482.1-.722.147a2.493 2.493 0 0 1 1.636.484.066.066 0 0 1 0 .092c-1.36 1.543-3.546 1.737-5.179 2.86a8 8 0 0 1 3.52-1.123.063.063 0 0 1 .062.081c-1.412 3.96-6.46 4.568-10.111 4.252a.064.064 0 0 1-.046-.107c.992-.926 1.78-2.033 2.717-3.013a3.211 3.211 0 0 0 .521-.569c.152-.277-.109-.5-.314-.654a2.628 2.628 0 0 0-1.328-.487 4.652 4.652 0 0 1 1.016.914.065.065 0 0 1-.022.087 22.455 22.455 0 0 1-4.06 2.356 9.989 9.989 0 0 1-3.9.478 14.514 14.514 0 0 1 2.472.488.064.064 0 0 1 .014.117c-2.492 1.383-4.981-.582-7.331-1.331a.064.064 0 0 1-.041-.078 4.8 4.8 0 0 1 .8-1.045 5.99 5.99 0 0 0-2.154-.279c-.052 0-.1-.069-.049-.112.374-.3.787-.56 1.148-.881-1.222-.413-2.511.195-3.76-.026-.059-.01-.061-.091-.016-.121.874-.485 1.812-.846 2.713-1.278-.361-.147-.747-.228-1.1-.394-.056-.026-.03-.1.016-.114a7.377 7.377 0 0 1 1.351-.228c-.85-.627-2.265-.6-2.809-1.59a.063.063 0 0 1 .058-.095 5.688 5.688 0 0 0 1.11-.088 6.105 6.105 0 0 1-1.412-.764.063.063 0 0 1 .046-.107h1.848a10.361 10.361 0 0 0-.888-.736.429.429 0 0 1-.186-.472 2.881 2.881 0 0 1 .728-1.041z" transform="translate(-23.122 -34.16)" style="isolation:isolate;mix-blend-mode:multiply" fill="#d7c7a5" opacity="0.4"/>
        <path id="Path_1061" d="M365.849 432.665a23.92 23.92 0 0 0-2.515-2.632 8.022 8.022 0 0 0-1.766-1.308c.035.01.072.014.1.021.251.045.489.133.736.191a.034.034 0 0 0 .029-.058 2.375 2.375 0 0 0-.577-.316 6.967 6.967 0 0 0-4.358-1.044 9 9 0 0 0-2.063.5.177.177 0 0 1 .024-.013 4.56 4.56 0 0 1 1.294-.491c.039-.013.026-.068-.009-.075a1.75 1.75 0 0 0-1.038.085 6.185 6.185 0 0 0-2.857.934 1.59 1.59 0 0 1 .318-.32.029.029 0 0 0-.025-.051 1.072 1.072 0 0 0-.306.13.017.017 0 0 0-.011 0c-3.19.38-5.627 3.634-6.476 6.478a10.514 10.514 0 0 0 1.46 8.8 8.307 8.307 0 0 0 2.085 2.355c1.283 1.012 2.7 1.842 3.976 2.87-.062 2.066-1.818 3.862-3.224 5.212-1.513 1.454-3.211 2.7-4.756 4.126a16.442 16.442 0 0 0-4.937 7.552.047.047 0 0 0-.036.032 5.761 5.761 0 0 0-.331 2.5v.027a10.846 10.846 0 0 0 1.154 3.764 24.178 24.178 0 0 0 3.774 5.762c.055.062.113.123.172.182.326.237.579.565.921.8a12.873 12.873 0 0 0 1.515.85 3.025 3.025 0 0 1-.474-.964.07.07 0 0 1 .129-.054 10.726 10.726 0 0 0 2.972 2.713 2.2 2.2 0 0 0-.326-.7c-.052-.081.071-.149.127-.074a7.309 7.309 0 0 0 2.642 1.868c-.107-.3-.251-.582-.384-.873a.073.073 0 0 1 .127-.071 5.265 5.265 0 0 0 1.967 1.425 7.314 7.314 0 0 0 1.889 1 7.858 7.858 0 0 0-.471-.819c-.036-.071.061-.156.117-.088a3.747 3.747 0 0 0 1.159.847 10.276 10.276 0 0 0-1.015-1.621c-.052-.075.052-.14.113-.087a7.868 7.868 0 0 0 .917.848 4.993 4.993 0 0 0 1.221.465c.712.2 1.428.42 2.134.644-.469-.96-1-1.884-1.553-2.795a.073.073 0 0 1 .124-.076 2.068 2.068 0 0 0 .731.726 5.435 5.435 0 0 0-1.2-2.483c-.059-.071.038-.176.1-.1a2.282 2.282 0 0 0 .576.5 7.578 7.578 0 0 0-1.113-2.392c-.052-.078.076-.152.131-.074a1.543 1.543 0 0 0 .589.533c-.069-.26-.146-.518-.238-.765a15.4 15.4 0 0 1-4.571-7.076c-.215.818-.358 1.644-.583 2.456a.07.07 0 0 1-.111.03 4.362 4.362 0 0 1-1.018-2.284c-.326.53-.8 1.23-1.433 1.321-.689.1-.927-.853-1.025-1.383-.432.384-.729.865-1.148 1.253a.934.934 0 0 1-1.077.186 4.168 4.168 0 0 1-2.008-2.47l-.448.443a.067.067 0 0 1-.1-.011 8.092 8.092 0 0 1-.885-2.241 2.932 2.932 0 0 0-.687.341c-.043.033-.117.014-.114-.048.02-.264.052-.53.1-.792-.027.011-.053.02-.078.027s-.078-.011-.082-.043a13.857 13.857 0 0 1 .248-3.227c-.235.1-.5.106-.732.208a.067.067 0 0 1-.094-.075 6.169 6.169 0 0 1 1.821-3.085.065.065 0 0 1 .111.046c-.013.614-.257 1.194-.312 1.8a3.631 3.631 0 0 1 .86-.71.062.062 0 0 1 .094.068 4.746 4.746 0 0 0-.283 1.334 8.194 8.194 0 0 1 1.077-1.2.064.064 0 0 1 .108.061 8.636 8.636 0 0 0-.14 3.023 16.067 16.067 0 0 0 1.181-1.414.065.065 0 0 1 .12.031 11.054 11.054 0 0 0 .224 2.659c.557-.729.9-1.755 1.741-2.206a.07.07 0 0 1 .1.041c.123.44.4.866.486 1.319a17.346 17.346 0 0 1 1.845-3.117.064.064 0 0 1 .12.03 4.477 4.477 0 0 0 .306 2 14.522 14.522 0 0 1 1.633-3.813.066.066 0 0 1 .121.032 6.619 6.619 0 0 0 .322 2.093c.374-1.188.765-2.365 1.2-3.534a34.518 34.518 0 0 1 4.106-8.049 25.4 25.4 0 0 1 4.354-4.691 27.851 27.851 0 0 0 3.155-6.735 7.773 7.773 0 0 0-1.768-6.994z" class="cls-16" transform="translate(-4.347)"/>
        <path id="Path_1062" d="M359.541 512.988a2.069 2.069 0 0 0 .731.726 5.435 5.435 0 0 0-1.2-2.483c-.059-.071.038-.176.1-.1a2.077 2.077 0 0 0 .332.329 22.033 22.033 0 0 0-1.734-2.519q.342.693.615 1.418c.025.062-.062.1-.108.059-.211-.191-.451-.351-.677-.524.283.794.7 1.529.957 2.334a.065.065 0 0 1-.108.062c-.225-.234-.423-.492-.624-.743a9.691 9.691 0 0 1 .816 2.209.065.065 0 0 1-.107.062c-.931-.842-1.789-1.759-2.711-2.608.042.523.231 1.022.244 1.541 0 .066-.068.079-.111.049a22.435 22.435 0 0 1-2.759-2.717 19.974 19.974 0 0 1 .377 2.077.064.064 0 0 1-.1.054 11.492 11.492 0 0 1-4.1-4.655c.052.774.233 1.529.245 2.306a.066.066 0 0 1-.111.046 9.886 9.886 0 0 1-2.785-3.16 2.234 2.234 0 0 1-.209.937.064.064 0 0 1-.087.023c-2.909-1.984-4.343-5.836-4.281-9.233a9.073 9.073 0 0 1 .806-3.735 13.978 13.978 0 0 1 2.648-3.569c1.644-1.695 3.592-3.266 4.91-5.244-1.483 1.4-3.127 2.625-4.633 4.008a16.442 16.442 0 0 0-4.937 7.552.047.047 0 0 0-.036.032 5.761 5.761 0 0 0-.331 2.5v.027a10.846 10.846 0 0 0 1.154 3.764 24.177 24.177 0 0 0 3.774 5.762c.055.062.113.123.172.182.326.237.579.565.921.8a12.873 12.873 0 0 0 1.515.85 3.024 3.024 0 0 1-.474-.964.07.07 0 0 1 .129-.054 10.727 10.727 0 0 0 2.972 2.713 2.2 2.2 0 0 0-.326-.7c-.052-.081.071-.149.127-.074a7.309 7.309 0 0 0 2.642 1.868c-.107-.3-.251-.582-.384-.873a.073.073 0 0 1 .127-.071 5.263 5.263 0 0 0 1.967 1.425 7.312 7.312 0 0 0 1.889 1 7.871 7.871 0 0 0-.471-.819c-.036-.071.061-.156.117-.088a3.748 3.748 0 0 0 1.159.847 10.276 10.276 0 0 0-1.015-1.621c-.052-.075.052-.14.113-.087a7.864 7.864 0 0 0 .917.849 4.99 4.99 0 0 0 1.221.465c.712.2 1.428.42 2.134.644-.469-.96-1-1.884-1.553-2.794a.073.073 0 0 1 .141-.085z" class="cls-16" transform="translate(-4.347 -31.873)"/>
        <path id="Path_1063" fill="#f7f7f7" d="M356.318 445.855c1.282 1.012 2.7 1.842 3.976 2.87-.062 2.066-1.818 3.862-3.224 5.212-.228.218-.456.429-.69.635-.084.189-.156.383-.22.565a3.379 3.379 0 0 0-.283 1.64 6.414 6.414 0 0 0 1.236-.937c.052-.043.128.019.107.081a5.977 5.977 0 0 0-.286 1.067 4.03 4.03 0 0 0 .505-.5.076.076 0 0 1 .127.068 26.512 26.512 0 0 0-.732 4.558c.787-.231 1.284-1.233 1.777-1.809a19.121 19.121 0 0 1 2.309-2.351.075.075 0 0 1 .124.071c-.046.3-.137.592-.212.886.484-.314.843-.792 1.308-1.136a.073.073 0 0 1 .11.057c-.012.317-.093.623-.123.935.944-.569 1.561-1.526 2.6-1.975a6.257 6.257 0 0 1 1.67-.429 2.733 2.733 0 0 1 .1-.534c.025 0 .227-.628.246-.657.652-1.188.961-1.868 1.559-3.081.635-1.286 1.328-2.544 2.057-3.784a31.9 31.9 0 0 0 3.693-7.649 7.773 7.773 0 0 0-1.777-6.991 23.917 23.917 0 0 0-2.515-2.632 8.021 8.021 0 0 0-1.766-1.308c.035.01.072.014.1.021.251.045.489.133.736.191a.034.034 0 0 0 .029-.058 2.376 2.376 0 0 0-.577-.316 6.967 6.967 0 0 0-4.358-1.044 9 9 0 0 0-2.063.5.177.177 0 0 1 .024-.013 4.561 4.561 0 0 1 1.294-.491c.039-.013.026-.068-.009-.075a1.75 1.75 0 0 0-1.038.085 6.185 6.185 0 0 0-2.857.934 1.59 1.59 0 0 1 .318-.32.029.029 0 0 0-.025-.051 1.073 1.073 0 0 0-.306.13.017.017 0 0 0-.011 0c-3.19.38-5.627 3.634-6.476 6.478a10.514 10.514 0 0 0 1.46 8.8 8.307 8.307 0 0 0 2.083 2.357z" transform="translate(-10.768)"/>
        <path id="Path_1064" fill="#97a09b" d="M365.219 482.908c-.046.3-.137.593-.212.886a14.685 14.685 0 0 0 1.227-1.074c.27-.668.546-1.335.849-1.992a14.36 14.36 0 0 1 1.3-2.388 18.107 18.107 0 0 0 1.425-2.089c.043-.082.553-1.187.4-1.224a3.718 3.718 0 0 0-1.045-.094 8.125 8.125 0 0 0-2.3.494c-1.008.349-1.975.8-2.967 1.2a13.3 13.3 0 0 1-2.648 3.2c-.228.218-.456.429-.69.635-.084.189-.156.383-.22.565a3.381 3.381 0 0 0-.283 1.641 6.416 6.416 0 0 0 1.236-.937c.052-.043.128.019.107.081a5.969 5.969 0 0 0-.286 1.067 4.029 4.029 0 0 0 .505-.5.076.076 0 0 1 .127.068 26.506 26.506 0 0 0-.732 4.558c.787-.231 1.284-1.233 1.777-1.809a19.128 19.128 0 0 1 2.309-2.351.075.075 0 0 1 .121.063z" transform="translate(-14.945 -25.884)"/>
        <path id="Path_1065" fill="#19915a" d="M356.318 445.855c1.282 1.012 2.7 1.842 3.976 2.87a6.056 6.056 0 0 1-1.676 3.6 3.394 3.394 0 0 1 .3-.183.072.072 0 0 1 .111.058 7.176 7.176 0 0 1-.432 1.427 2.3 2.3 0 0 1 .621-.51.073.073 0 0 1 .107.081 12.461 12.461 0 0 1-.3 1.455 2.3 2.3 0 0 1 .529-.559.078.078 0 0 1 .112.045 5.376 5.376 0 0 1-.573 2.385 5.672 5.672 0 0 1 2.755-2.9c.063-.021.1.038.092.09a4.308 4.308 0 0 1-.276.914 5 5 0 0 1 1.542-1.294c.056-.024.131.013.111.081-.1.312-.263.6-.387.892a7.191 7.191 0 0 1 2.752-1.773 13.133 13.133 0 0 1 2.232-.667c.117-.241.24-.491.381-.774.635-1.286 1.328-2.544 2.057-3.784a31.9 31.9 0 0 0 3.693-7.649 7.773 7.773 0 0 0-1.777-6.991 23.917 23.917 0 0 0-2.515-2.632 8.021 8.021 0 0 0-1.766-1.308c.035.01.072.014.1.021.251.045.489.133.736.191a.034.034 0 0 0 .029-.058 2.376 2.376 0 0 0-.577-.316 6.967 6.967 0 0 0-4.358-1.044 9 9 0 0 0-2.063.5.177.177 0 0 1 .024-.013 4.561 4.561 0 0 1 1.294-.491c.039-.013.026-.068-.009-.075a1.75 1.75 0 0 0-1.038.085 6.185 6.185 0 0 0-2.857.934 1.59 1.59 0 0 1 .318-.32.029.029 0 0 0-.025-.051 1.073 1.073 0 0 0-.306.13.017.017 0 0 0-.011 0c-3.19.38-5.627 3.634-6.476 6.478a10.514 10.514 0 0 0 1.46 8.8 8.307 8.307 0 0 0 2.09 2.355z" transform="translate(-10.768)"/>
        <path id="Path_1066" d="M361.852 457.3c.063-.021.1.038.092.09a4.307 4.307 0 0 1-.276.914 5.891 5.891 0 0 1 1.318-1.181l.4-.6c1.071-1.6 2.163-3.2 3.362-4.7.6-.755 1.252-1.471 1.867-2.215a22.5 22.5 0 0 0 2.236-3.1c.416-.733 1.011-1.816.654-2.68a15.053 15.053 0 0 1-2.873 1.548 5.633 5.633 0 0 1-3.657-.338 2.909 2.909 0 0 1 .056-5.336 4.621 4.621 0 0 1 3.523.108 4.016 4.016 0 0 0-2.554-1.26.944.944 0 0 1-.63-.58 8.377 8.377 0 0 1-.339-.978.067.067 0 0 1 .062-.079 2.916 2.916 0 0 1 1.279.456 4.312 4.312 0 0 0-1.146-2.18 2.409 2.409 0 0 0-2.3-.976 2.158 2.158 0 0 0-1.308 2.115 5.214 5.214 0 0 0 .274 2.14 2.885 2.885 0 0 1 .982-2.12c.043-.031.115.016.1.058a3.65 3.65 0 0 0 .2 2.863c.1.263-1.2 1.178-1.412 1.331-.524.371-1.211.878-1.9.637a2.183 2.183 0 0 1-1.239-1.3c-.281-.6-.7-1.105-1.449-.96a6.17 6.17 0 0 0-1.479.622 2.326 2.326 0 0 1-1.224.344 1.062 1.062 0 0 1-.8-.79 4.029 4.029 0 0 1-.093-2.352c.068-.264.15-.521.23-.778a10.791 10.791 0 0 0-1.027 2.35 10.514 10.514 0 0 0 1.46 8.8 8.308 8.308 0 0 0 2.085 2.355c1.282 1.012 2.7 1.842 3.976 2.87a6.056 6.056 0 0 1-1.676 3.6 3.379 3.379 0 0 1 .3-.183.072.072 0 0 1 .111.058 7.176 7.176 0 0 1-.432 1.427 2.3 2.3 0 0 1 .621-.51.073.073 0 0 1 .107.081 12.46 12.46 0 0 1-.3 1.455 2.3 2.3 0 0 1 .529-.559.078.078 0 0 1 .112.045 5.376 5.376 0 0 1-.573 2.385 5.672 5.672 0 0 1 2.751-2.897z" class="cls-20" transform="translate(-10.768 -3.675)"/>
        <path id="Path_1067" d="M358.615 463.531a3.384 3.384 0 0 1 .3-.183.072.072 0 0 1 .111.058 4.025 4.025 0 0 1-.342 1.145l.189-.212c.784-.9 1.584-1.959 2.291-2.915a5.549 5.549 0 0 1 2.892-1.848 13.666 13.666 0 0 0 4-2.683 7.34 7.34 0 0 0 2.57-3.8 9.231 9.231 0 0 1-4.376 3.892c-2.739 1.411-5.068.725-4.6-.915a3.974 3.974 0 0 1 .747-1.682 1.921 1.921 0 0 0 .739-1.458 5.314 5.314 0 0 0-.315-1.376c-.176-.472-.478-1.275-1.038-1.435-.661-.191-1.138.68-1.838.436-.583-.208-.8-.947-1.169-1.376-.436-.5-.887-1.123-1.617-1.194a5.359 5.359 0 0 0-1.883.361.939.939 0 0 1-.71.033c-.261-.153-.527-.43-.859-.4-.315.032-1.051.751-1.347.393a11.168 11.168 0 0 0 1.871 6.335 8.308 8.308 0 0 0 2.085 2.355c1.283 1.012 2.7 1.842 3.976 2.87a6.056 6.056 0 0 1-1.677 3.599z" class="cls-20" transform="translate(-10.764 -11.205)"/>
        <path id="Path_1068" d="M366.721 462.278a8.489 8.489 0 0 0 3.906-2.5 9.876 9.876 0 0 1-6.484 2.406 2.157 2.157 0 0 1-1.35-.231c-.419-.345-.087-.947.144-1.3.256-.4.572-.765.826-1.172a8.451 8.451 0 0 0 .586-1.154 10.035 10.035 0 0 1 .709-1.183 1.815 1.815 0 0 0 .277-1.377c-.2-.81-1.025-2.05-2-1.542a5.981 5.981 0 0 0-1.006.725c-.3.247-.631.462-.957.687-1.388.955-2.729 1.984-4.1 2.969a8.654 8.654 0 0 0 1.724 1.8c1.2.947 2.516 1.731 3.719 2.671a11.043 11.043 0 0 0 4.006-.799z" transform="translate(-13.439 -14.54)" style="isolation:isolate;mix-blend-mode:multiply" fill="#0e6440" opacity="0.7"/>
        <path id="Path_1069" d="M375.249 442.45a2.988 2.988 0 0 0-1.031 2.339 5.743 5.743 0 0 1 .348-.822 3.2 3.2 0 0 1 .6-.71 5.807 5.807 0 0 1 1.662-1.1 4.068 4.068 0 0 1 1.907-.286 6.706 6.706 0 0 1 1.255.292c-.457-.185-.9-.41-1.369-.575a2.894 2.894 0 0 0-1.009-.225 3.807 3.807 0 0 1-.611-.006.057.057 0 0 1-.036-.091 4.579 4.579 0 0 0-.576-1.8c-.844-1.126-1.584 0-1.564.923a18.957 18.957 0 0 0 .456 2.011.057.057 0 0 1-.032.05z" class="cls-20" transform="translate(-22.672 -6.313)"/>
        <path id="Path_1070" d="M376.409 437.312a3.723 3.723 0 0 0-1.012-1.493c-.416-.368-1.213-.923-1.724-.387a2.576 2.576 0 0 0-.543 1.627 3.678 3.678 0 0 0 .139 1.435c.021-.1.046-.2.075-.3a2.606 2.606 0 0 1 .527-1.278c.749-.899 1.75-.055 2.538.396z" class="cls-20" transform="translate(-22.071 -4.254)"/>
        <g id="Group_48" transform="translate(332.586 436.587)">
            <path id="Path_1071" fill="#ce3000" d="M351.123 460.816c-1.1 2.8-2.072 4.738-2.376 5.618s-1.34 3.632-.288 3.769 4.177-1.91 6.887-6.882 3.67-6.721 3.67-6.721l-3.38-.634z" transform="translate(-340.98 -452.143)"/>
            <path id="Path_1072" fill="#ff8e89" d="M358.577 455.965l-2.011 2.156c-.267.765-.778 1.442-1.073 2.19-.426 1.06-.944 2.089-1.332 3.165a11.336 11.336 0 0 0-.757 3.491 8.77 8.77 0 0 0 .224 2.206 18.772 18.772 0 0 0 4.66-5.853c2.706-4.968 3.67-6.721 3.67-6.721z" transform="translate(-343.922 -452.143)"/>
            <path id="Path_1073" d="M355.636 455.965l-4.513 4.851c-1.1 2.8-2.072 4.738-2.376 5.618s-1.34 3.632-.288 3.769a1.085 1.085 0 0 0 .169 0 1.09 1.09 0 0 1-.153-.524 6.994 6.994 0 0 1 .374-2.362 7.818 7.818 0 0 1 .385-1.093c.071-.16.521-.873.765-.511a.906.906 0 0 1 .054.582 7.085 7.085 0 0 0 0 1.1c.049.676.143 1.367.261 2.046.107-.071.214-.156.323-.234a10.826 10.826 0 0 1-.141-2.316 8.621 8.621 0 0 1 .628-2.4c.257-.736.534-2.014 1.253-2.447 1.314-.787-.136 1.488-.329 2.672l-.13.6c.28-1.1.924-2.307 1.116-3.04a2.036 2.036 0 0 1 .924-1.295c.257-.133.716-.234.732.258a3.614 3.614 0 0 1-.433 1.721 17.146 17.146 0 0 1-2.854 4.7c-.494.51 1.282-.765 1.007-.108a22.2 22.2 0 0 0 2.937-4.23c2.706-4.968 3.67-6.721 3.67-6.721z" transform="translate(-340.98 -452.143)" style="isolation:isolate;mix-blend-mode:multiply" fill="#ce3000" opacity="0.4"/>
            <path id="Path_1074" fill="#ffb600" d="M351.823 451.649c-.185-.341-.657-1.145-1.123-1.195a1.616 1.616 0 0 0-1.015.339 1.166 1.166 0 0 1-1.028-.157 2.718 2.718 0 0 1-.618-.754 7.807 7.807 0 0 0-1.067-1.492 1.375 1.375 0 0 0-1.283-.325c-.592.133-1.313.84-1.971.766a4.1 4.1 0 0 1-.475-.547c-.1-.128-.266-.336-.439-.349-.478-.039-.68.365-1.057.491-.023-.247-.013-.5-.04-.749a.054.054 0 0 0-.041-.042.2.2 0 0 1 0-.039.03.03 0 0 0-.059 0c-.222.839-.475 1.721-.768 2.541l-.042.108a33.028 33.028 0 0 1-2.114 2.755c-.9 1.1-1.706 2.261-2.62 3.347s-1.984 2.113-2.824 3.267a2.664 2.664 0 0 0-.378 2.889.163.163 0 0 0 .147.1 6.564 6.564 0 0 0 4.916-.092 7.861 7.861 0 0 0 4.085-2.81 9.021 9.021 0 0 1 5.89-5.129c0 .006-.008.01-.008.017-.259.565-.572 1.093-.8 1.672-.219.543-.393 1.1-.634 1.636a21.281 21.281 0 0 1-1.432 2.646 16.6 16.6 0 0 1-3.84 4.269c-.243.183-.826.683-1.161.445-.7-.5.42-3.078.527-3.711.007-.036-.049-.056-.061-.02-.17.452-.348.918-.5 1.389a13.551 13.551 0 0 0-.946 3.683c-.03.852.729.82 1.515.527a7.789 7.789 0 0 0 2.457-1.854 29.8 29.8 0 0 0 5.043-6.843 17.826 17.826 0 0 1 1.673-2.847 6.413 6.413 0 0 0 .838-.972 1.075 1.075 0 0 0 .109-.485c.871-.562 1.735-1.385 1.144-2.475z" transform="translate(-332.587 -447.573)"/>
            <path id="Path_1075" d="M345.358 451.325a1.587 1.587 0 0 1 1.588-.271 3.871 3.871 0 0 1 .5.277c.128.095.352.326.534.2.352-.257.338-.621.309-1.016-.038-.54-.175-1.75-.917-1.747a4.292 4.292 0 0 0-1.894.843c-.338.182-.819.475-1.126.1-.142-.172-.426-.749-.669-.726s-.506.31-.69.434c-.045.033-.09 0-.11-.043a2.093 2.093 0 0 0-.307-.53 6.884 6.884 0 0 0-.383 1.025 4.172 4.172 0 0 1-.41 2.479c-.193.432-.729 1.481-1.24.858-1.031 1.1-1.826 2.4-2.746 3.583-.446.572-.927 1.122-1.406 1.669a15.982 15.982 0 0 0-1.425 1.688 2.181 2.181 0 0 0-.469 1.825c.323.807 1.5.759 2.212.632a7.711 7.711 0 0 0 4.253-2.834 46.67 46.67 0 0 0 3.37-4.7 10 10 0 0 0 .824-1.266c.074-.172.306-.609-.063-.468a1.457 1.457 0 0 0-.468.306c-.384.37-.765.962-1.369.93a.073.073 0 0 1-.076-.071 4.522 4.522 0 0 1 2.178-3.177z" transform="translate(-333.588 -448.222)" style="mix-blend-mode:screen;isolation:isolate" fill="#ffde42"/>
            <path id="Path_1076" d="M357.545 454.327a.868.868 0 0 0-.361.026 5.773 5.773 0 0 0-.65.342c-.117.084-.235.175-.342.253a.063.063 0 0 1-.055.013 4.093 4.093 0 0 0-1.2 1.311 2.04 2.04 0 0 0-.3.811c-.013.289.309.182.448.046a3.2 3.2 0 0 0 .358-.419 2.142 2.142 0 0 1 .95-.648c.335-.12.863-.157 1.124-.427.167-.183.454-1.25.028-1.308z" class="cls-27" transform="translate(-344.594 -451.247)"/>
            <path id="Path_1077" d="M348.354 454.546c-.075.127-.019.234.166.312a1.28 1.28 0 0 0 .165-.15l.169-.211a3.53 3.53 0 0 0 .434-.664 4.633 4.633 0 0 0 .355-2.184c-.079.241-.157.479-.238.71l-.042.108c-.208.319-.432.627-.66.933a4.451 4.451 0 0 1-.349 1.146z" class="cls-27" transform="translate(-341.156 -449.793)"/>
            <path id="Path_1078" d="M338.787 476.254c-.882.229-2.167.5-2.983-.077a1.317 1.317 0 0 1-.56-1.071 3.374 3.374 0 0 1 .1-.923c.009-.04.12-.384-.052-.313a2.133 2.133 0 0 0-.426.241 3.749 3.749 0 0 0-1.709 2.681c.008.007.008.016.013.025a.163.163 0 0 0 .147.1 6.564 6.564 0 0 0 4.916-.092 9.24 9.24 0 0 0 2.667-1.36 11.031 11.031 0 0 1-2.113.789z" class="cls-12" transform="translate(-332.899 -461.888)"/>
            <path id="Path_1079" fill="#e18d00" d="M351.823 456.448l-.033-.062a1.747 1.747 0 0 1-1.055 1.979 1.83 1.83 0 0 0-.422.185c-.189.127-.13.3-.186.464a1.279 1.279 0 0 1-.282.469 13.334 13.334 0 0 0-1.845 3.072c-.574 1.1-1.32 2.094-1.935 3.172-1.321 2.307-5.41 6.575-6.345 5.96-.13-.088-.13-.894.072-.462.419.9 3.009-2.281 4.3-3.832a20.2 20.2 0 0 0 3.126-5.163c.192-.463.378-.935.541-1.4a8.054 8.054 0 0 1 .363-.99 2.616 2.616 0 0 1 .547-.751 2.569 2.569 0 0 0 .8-.971.085.085 0 0 1 .123-.035 1.159 1.159 0 0 0 .853-1.054 1.4 1.4 0 0 1-1.738-.479 1.809 1.809 0 0 0 .089.306 1.267 1.267 0 0 0 .312.527.059.059 0 0 1 0 .1.064.064 0 0 1 0 .056 2.875 2.875 0 0 1-1.564 1.333c-.7.292-1.452.453-2.128.793a6.021 6.021 0 0 0-2.047 1.949c-.559.761-1.059 1.569-1.665 2.3a9.8 9.8 0 0 1-2.15 1.926 8.036 8.036 0 0 1-5.3 1.442 1.682 1.682 0 0 1-1.487-.97 2.073 2.073 0 0 1-.1-.71 2.35 2.35 0 0 0 .2 1.7.163.163 0 0 0 .147.1 6.563 6.563 0 0 0 4.916-.092 7.861 7.861 0 0 0 4.085-2.81 9.021 9.021 0 0 1 5.89-5.129c0 .006-.008.01-.008.017-.259.565-.572 1.093-.8 1.672-.219.543-.393 1.1-.634 1.636a21.272 21.272 0 0 1-1.432 2.646 16.6 16.6 0 0 1-3.84 4.269c-.243.183-.826.683-1.161.445-.7-.5.42-3.078.527-3.711.007-.036-.049-.056-.061-.02-.17.452-.348.918-.5 1.389a13.55 13.55 0 0 0-.946 3.683c-.03.852.729.82 1.515.527a7.789 7.789 0 0 0 2.457-1.854 29.794 29.794 0 0 0 5.043-6.843 17.823 17.823 0 0 1 1.673-2.847 6.415 6.415 0 0 0 .838-.972 1.074 1.074 0 0 0 .109-.485c.865-.561 1.729-1.385 1.138-2.475z" transform="translate(-332.587 -452.372)" style="isolation:isolate;mix-blend-mode:multiply" opacity="0.6"/>
            <path id="Path_1080" d="M347.036 472.13a1.568 1.568 0 0 1-.079-.969c.094-.514.222-1.032.3-1.552.013-.082.143-.058.143.019.01.332.1.941.573.9a2.625 2.625 0 0 0 1.289-.638 12.91 12.91 0 0 0 1.718-1.724c.549-.654 1.07-1.334 1.57-2.023.271-.364.531-.738.765-1.129a.051.051 0 0 1 0-.052c.264-.631.567-1.243.853-1.867.3-.66.553-1.344.838-2.008a6.7 6.7 0 0 1 1.013-1.7c.442-.517 1.022-.924 1.2-1.614a.075.075 0 0 1 .072-.049c.247 0 .739-.022.833-.3a1.477 1.477 0 0 1-.654.151 1.254 1.254 0 0 1-1.042-.72 2.352 2.352 0 0 0 .079.253c.009.03.022.059.032.089a2.9 2.9 0 0 0 .481.546.07.07 0 0 1 .02.071 2.328 2.328 0 0 1-.82 1.139 6.747 6.747 0 0 1-1.484.669 7.537 7.537 0 0 0-3.143 2.155c-.9 1.067-1.63 2.274-2.535 3.344a15.151 15.151 0 0 1-1.366 1.431c-.078.072-.16.14-.241.21a7.071 7.071 0 0 0 2.268-2.014 9.021 9.021 0 0 1 5.89-5.129c0 .006-.008.01-.008.017-.259.565-.572 1.093-.8 1.672-.219.543-.393 1.1-.634 1.636a21.287 21.287 0 0 1-1.432 2.646 16.605 16.605 0 0 1-3.84 4.269c-.243.183-.826.683-1.161.445-.7-.5.42-3.078.527-3.711.007-.036-.049-.056-.061-.02-.17.452-.348.918-.5 1.389a13.551 13.551 0 0 0-.946 3.683c-.017.416.159.621.432.69a.808.808 0 0 1-.15-.205z" transform="translate(-340.299 -452.629)" style="isolation:isolate;mix-blend-mode:multiply" fill="#e18d00"/>
            <path id="Path_1081" d="M349.012 454.851c-.024.117.12.149.188.065a1.586 1.586 0 0 0 .164-.238 4.07 4.07 0 0 0 .217-.461c.14-.352.582-1.256.3-1.672-.033.1-.069.2-.1.3l-.042.108c-.13.191-.26.383-.4.572.161.32-.282 1.104-.327 1.326z" class="cls-30" transform="translate(-341.53 -450.28)"/>
            <path id="Path_1082" d="M357.469 455.052a.074.074 0 0 1-.065-.01 4.837 4.837 0 0 0-1.932 1.835c-.107.25.163.218.208.143a1.692 1.692 0 0 1 .274-.335 2.476 2.476 0 0 1 .719-.39 2.943 2.943 0 0 0 .914-.436.5.5 0 0 0 .12-.426c-.007-.102-.007-.459-.238-.381z" class="cls-30" transform="translate(-345.036 -451.64)"/>
            <path id="Path_1083" d="M344.244 449.937a1.857 1.857 0 0 0-.934 1.242 5.735 5.735 0 0 1-.873 2.36c-.706 1.178-.8.634-1.48 1.526s-3.64 4.427-4.639 5.768.777-.635 1.318-1.178c.63-.632 3.995-4.161 4.675-4.972a14.334 14.334 0 0 0 2.414-4.268c.036-.415-.125-.671-.481-.478z" class="cls-31" transform="translate(-334.455 -448.825)"/>
        </g>
        <path id="Path_1084" d="M379.651 445.224a4.749 4.749 0 0 0-3.274-.035 4.24 4.24 0 0 0-2.147 2.479.037.037 0 0 0 .07.023 4.959 4.959 0 0 1 2.365-2.238 7.237 7.237 0 0 1 2.983-.166c.038 0 .038-.056.003-.063z" class="cls-32" transform="translate(-22.677 -9.534)"/>
        <path id="Path_1085" d="M375.886 436.39c-.3-.537-.966-1.624-1.757-1.445-.944.219-.837 1.867-.941 2.576a.028.028 0 0 0 .052.017.832.832 0 0 0 .072-.151 3.4 3.4 0 0 1 .772-1.373c.556-.453 1.037-.034 1.532.237a1.445 1.445 0 0 0 .218.189c.035.022.066-.014.052-.05z" class="cls-32" transform="translate(-22.11 -4.099)"/>
        <path id="Path_1086" d="M376.763 443.235a5.332 5.332 0 0 1 .973-.553 2.407 2.407 0 0 0-.045-.508c-.18-.9-.85-1.812-1.162-1.75s-.423.845-.247 1.75a2.076 2.076 0 0 0 .481 1.061z" transform="translate(-23.75 -7.092)"/>
        <path id="Path_1087" d="M377.2 441.181c.2.472.339.622.5.573s-.079-.511-.29-.732-.369-.209-.21.159z" class="cls-31" transform="translate(-24.261 -7.339)"/>
        <path id="Path_1088" d="M380.405 445.468c-.684-.052-1.852.013-2.307.628-1.194 1.607 2.823 1.8 3.4.54.351-.764-.479-1.118-1.093-1.168z" class="cls-33" transform="translate(-24.665 -9.833)"/>
        <path id="Path_1089" d="M376.1 449.191c-.013-.234-.169-.391-.514-.209-.415.215-.7 1.148.072.931a.738.738 0 0 0 .442-.722z" class="cls-33" transform="translate(-23.195 -11.711)"/>
        <path id="Path_1090" d="M359.74 430.428a8.583 8.583 0 0 0-4.263 5.408c-.006.02.027.033.036.012a13.979 13.979 0 0 1 4.245-5.387c.021-.013.004-.045-.018-.033z" class="cls-33" transform="translate(-12.465 -1.649)"/>
        <path id="Path_1091" d="M367.292 429.007a4.741 4.741 0 0 0-2.8 2.35c-.027.036.038.075.068.04a10.068 10.068 0 0 1 2.8-2.258c.079-.039.004-.151-.068-.132z" class="cls-33" transform="translate(-17.37 -.875)"/>
        <path id="Path_1092" d="M375.832 428.76a5.838 5.838 0 0 0-6.392 1.357c-.017.013.009.043.026.026a7.4 7.4 0 0 1 6.338-1.278c.058.016.09-.083.028-.105z" class="cls-33" transform="translate(-20.066 -.523)"/>
        <path id="Path_1093" d="M384.562 432.464c-1.539-1.555-3.793-2.839-6.068-2.364-.035.009-.035.062 0 .058a7.683 7.683 0 0 1 5.811 2.611 13.659 13.659 0 0 1 1.971 2.581 13.319 13.319 0 0 1 1.409 3.377c.013.049.091.026.087-.02a9.79 9.79 0 0 0-3.21-6.243z" class="cls-33" transform="translate(-24.986 -1.417)"/>
        <path id="Path_1094" d="M395.45 454.865a23.313 23.313 0 0 1-2.038 4.824c-.029.062.062.1.1.046a12.545 12.545 0 0 0 2.008-4.861.034.034 0 1 0-.07-.009z" class="cls-33" transform="translate(-33.121 -14.941)"/>
        <path id="Path_1095" d="M349.7 493.046c-3.96 3.142-8.56 8.469-5.306 13.626.032.049.1 0 .087-.046a16.518 16.518 0 0 1-.42-2.079 10.85 10.85 0 0 1 .062-2.1 9.733 9.733 0 0 1 1.118-3.447c1.158-2.239 2.928-3.973 4.5-5.913a.03.03 0 0 0-.041-.041z" transform="translate(-5.83 -35.746)" style="mix-blend-mode:screen;isolation:isolate" fill="#934f2a" opacity="0.8"/>
        <path id="Path_1096" d="M375.469 496.141a17.961 17.961 0 0 1-1.87 2.109 17.726 17.726 0 0 0-1.552 2.183 7.32 7.32 0 0 0-1.37 4.707c.009.049.091.062.094 0a9.34 9.34 0 0 1 1.91-4.8 32.411 32.411 0 0 0 2.837-4.177c.016-.028-.028-.048-.049-.022z" class="cls-35" transform="translate(-20.715 -37.429)"/>
        <path id="Path_1097" d="M379.565 489.971a.044.044 0 0 0-.088 0 17.223 17.223 0 0 1-1.805 3.745c-.021.043.035.1.074.062a4.694 4.694 0 0 0 1.819-3.807z" class="cls-35" transform="translate(-24.55 -34.053)"/>
        <path id="Path_1098" d="M369.508 508.291a5.313 5.313 0 0 0-.57 2.034 6.908 6.908 0 0 0 .366 2.274c.016.058.106.036.1-.026a14.314 14.314 0 0 1 .179-4.256c.017-.045-.056-.062-.075-.026z" class="cls-35" transform="translate(-19.794 -44.042)"/>
        <path id="Path_1099" d="M411.875 505.346a11.526 11.526 0 0 0-2.043-1.08 8.632 8.632 0 0 0-2.369-.772c-1.653-.2-3.192.966-4.526 1.775a.054.054 0 0 0 .049.1 10.124 10.124 0 0 1 4.546-1.018 28.253 28.253 0 0 1 4.242 1.217.124.124 0 0 0 .101-.222z" class="cls-31" transform="translate(-38.299 -41.427)"/>
        <path id="Path_1100" d="M404.772 491.458a19.323 19.323 0 0 0-7.487-3.14 10.654 10.654 0 0 0-7.67 2.307.068.068 0 0 0 .063.117c2.456-.859 4.792-2.017 7.479-1.7 2.649.312 5.093 1.588 7.549 2.518.062.025.124-.06.066-.102z" class="cls-31" transform="translate(-31.042 -33.132)"/>
        <path id="Path_1101" d="M438.131 495.6c-.582-.139-1.184-.143-1.773-.225-.739-.1-1.477-.156-2.222-.195a4.387 4.387 0 0 0-3.033.895.083.083 0 0 0 .078.146 10.524 10.524 0 0 1 1.4-.458 14.663 14.663 0 0 1 1.778-.05c.665-.01 1.322-.042 1.985-.052.6-.012 1.181.1 1.777.13.117.009.112-.168.01-.191z" class="cls-31" transform="translate(-53.63 -36.908)"/>
        <path id="Path_1102" d="M452.818 493.195a9.119 9.119 0 0 0-2.457.027 12.555 12.555 0 0 0-2.4.519c-.045.016-.03.089.016.082.8-.1 1.614-.169 2.418-.25s1.639-.076 2.416-.221a.079.079 0 0 0 .007-.157z" class="cls-31" transform="translate(-62.815 -35.791)"/>
        <path id="Path_1103" fill="#474241" d="M462.064 498.178a1.044 1.044 0 0 0 .42-.725 1.358 1.358 0 0 0-.387-.756h-.006a1.572 1.572 0 0 1 .09.373.343.343 0 0 1 0 .149.73.73 0 0 1-.14.423 1.94 1.94 0 0 1-.944.619.26.26 0 0 1-.266-.027 18.385 18.385 0 0 0-1.848-.745 5.537 5.537 0 0 0-1.479-.2c-.206.143-.421.273-.635.4a8.717 8.717 0 0 1 2.781.41 22.738 22.738 0 0 1 2.447.846c.072.03.152.059.235.088a7.694 7.694 0 0 0-.969-.518 2.359 2.359 0 0 0 .701-.337z" transform="translate(-67.683 -37.738)"/>
        <path id="Path_1104" d="M461.706 504.728a27.034 27.034 0 0 0-2.665.5c-1.158.25-2.268.69-3.436.911-.035.006-.032.059 0 .056a37.487 37.487 0 0 0 6.112-1.4c.044-.005.028-.073-.011-.067z" class="cls-37" transform="translate(-66.979 -42.111)"/>
        <path id="Path_1105" d="M455.634 510.943a12.86 12.86 0 0 0-3.23 1.21c-.911.465-1.689 1.145-2.587 1.637-.036.023 0 .084.035.069.919-.407 1.764-.947 2.663-1.4 1.031-.515 2.143-.862 3.156-1.422a.053.053 0 0 0-.037-.094z" class="cls-37" transform="translate(-63.832 -45.496)"/>
        <path id="Path_1106" d="M464.555 506.056c-.657.146-1.3.364-1.946.55-.009 0-.006.017 0 .014a8.4 8.4 0 0 0 1.965-.508.03.03 0 0 0-.019-.056z" class="cls-37" transform="translate(-70.804 -42.834)"/>
        <path id="Path_1107" d="M460.291 510.708c-.6.368-1.233.683-1.871.988s-1.229.7-1.894.974c0 0 0 .006 0 0 .729-.267 1.421-.625 2.124-.944a7.286 7.286 0 0 0 1.676-.962.035.035 0 0 0-.035-.056z" class="cls-37" transform="translate(-67.494 -45.365)"/>
    </g>
</svg>
