<svg xmlns="http://www.w3.org/2000/svg" xmlns:xlink="http://www.w3.org/1999/xlink" width="88.423" height="72.49" viewBox="0 0 88.423 72.49">
    <defs>
        <linearGradient id="linear-gradient" x1=".498" x2=".937" y1=".5" y2=".5" gradientUnits="objectBoundingBox">
            <stop offset=".274"/>
            <stop offset=".35" stop-color="#121212"/>
            <stop offset=".504" stop-color="#434343"/>
            <stop offset=".721" stop-color="#919191"/>
            <stop offset=".993" stop-color="#fbfbfb"/>
            <stop offset="1" stop-color="#fff"/>
        </linearGradient>
        <linearGradient id="linear-gradient-2" x1=".497" x2=".492" y1=".616" y2="1.065" xlink:href="#linear-gradient"/>
        <linearGradient id="linear-gradient-3" x1=".5" x2=".622" y1=".523" y2="1.206" xlink:href="#linear-gradient"/>
        <linearGradient id="linear-gradient-4" x1=".535" x2=".502" y1="1.234" y2=".322" xlink:href="#linear-gradient"/>
        <linearGradient id="linear-gradient-5" x1=".507" x2=".528" y1=".501" y2="-.166" xlink:href="#linear-gradient"/>
        <linearGradient id="linear-gradient-6" x1="-1305.707" x2="-1305.268" y1=".5" y2=".5" xlink:href="#linear-gradient"/>
        <linearGradient id="linear-gradient-7" x1="-380.847" x2="-380.852" y1=".616" y2="1.065" xlink:href="#linear-gradient"/>
        <linearGradient id="linear-gradient-8" x1="-696.662" x2="-696.54" y1=".523" y2="1.206" xlink:href="#linear-gradient"/>
        <linearGradient id="linear-gradient-9" x1="-977.765" x2="-977.798" y1="1.234" y2=".322" xlink:href="#linear-gradient"/>
        <linearGradient id="linear-gradient-10" x1="-478.981" x2="-478.96" y1=".501" y2="-.166" xlink:href="#linear-gradient"/>
        <linearGradient id="linear-gradient-11" x1=".547" x2=".777" y1=".558" y2=".769" xlink:href="#linear-gradient"/>
        <linearGradient id="linear-gradient-12" x1=".5" x2=".5" y1=".898" y2="-.138" xlink:href="#linear-gradient"/>
        <linearGradient id="linear-gradient-14" x1=".379" x2=".285" y1=".36" y2=".251" xlink:href="#linear-gradient"/>
        <radialGradient id="radial-gradient" cx=".5" cy=".5" r=".717" gradientTransform="matrix(.891 0 0 1 .055 0)" gradientUnits="objectBoundingBox">
            <stop offset="0" stop-color="#3995c0"/>
            <stop offset=".603" stop-color="#215a9b"/>
            <stop offset="1" stop-color="#143886"/>
        </radialGradient>
        <radialGradient id="radial-gradient-2" cx=".5" cy=".5" r=".571" gradientTransform="matrix(1.145 0 0 .99 -.063 .02)" xlink:href="#radial-gradient"/>
        <radialGradient id="radial-gradient-3" cx=".5" cy=".5" r=".571" gradientTransform="matrix(1.145 0 0 .99 -.063 .02)" gradientUnits="objectBoundingBox">
            <stop offset="0" stop-color="#ff8900"/>
            <stop offset="1" stop-color="#e75609"/>
        </radialGradient>
        <radialGradient id="radial-gradient-4" cx=".5" cy=".5" r=".571" gradientTransform="matrix(-1.145 0 0 .99 -531.257 -.088)" xlink:href="#radial-gradient"/>
        <radialGradient id="radial-gradient-5" cx=".5" cy=".5" r=".571" gradientTransform="matrix(-1.145 0 0 .99 -531.257 -.088)" xlink:href="#radial-gradient-3"/>
        <radialGradient id="radial-gradient-6" cx=".5" cy=".5" r=".717" gradientTransform="matrix(.891 0 0 1 .055 0)" xlink:href="#radial-gradient-3"/>
        <filter id="Path_37" width="46.092" height="47.055" x="42.331" y="25.435" filterUnits="userSpaceOnUse">
            <feOffset dy="3"/>
            <feGaussianBlur result="blur" stdDeviation="3"/>
            <feFlood flood-color="#ff9416" flood-opacity=".8"/>
            <feComposite in2="blur" operator="in"/>
            <feComposite in="SourceGraphic"/>
        </filter>
        <filter id="Path_49" width="46.091" height="47.054" x="0" y="0" filterUnits="userSpaceOnUse">
            <feOffset dy="3"/>
            <feGaussianBlur result="blur-2" stdDeviation="3"/>
            <feFlood flood-color="#ff9416" flood-opacity=".8"/>
            <feComposite in2="blur-2" operator="in"/>
            <feComposite in="SourceGraphic"/>
        </filter>
        <filter id="Path_60" width="61.598" height="60.362" x="13.793" y="5.121" filterUnits="userSpaceOnUse">
            <feOffset dy="3"/>
            <feGaussianBlur result="blur-3" stdDeviation="3"/>
            <feFlood flood-color="#ff9416" flood-opacity=".8"/>
            <feComposite in2="blur-3" operator="in"/>
            <feComposite in="SourceGraphic"/>
        </filter>
        <clipPath id="clip-path">
            <path id="Path_89" fill="url(#radial-gradient)" d="M105.776 155.743c0 8.151-7.415 14.758-16.563 14.758s-16.565-6.607-16.565-14.758 7.416-14.758 16.565-14.758 16.563 6.607 16.563 14.758z" transform="translate(-72.648 -140.985)"/>
        </clipPath>
        <style>
            .cls-4{fill:#ccc}.cls-21,.cls-4,.cls-7{mix-blend-mode:multiply}.cls-21,.cls-24,.cls-4,.cls-7{isolation:isolate}.cls-24{opacity:.6;mix-blend-mode:screen}.cls-7{fill:#adc8cf}.cls-20{fill:#fff}.cls-21{fill:#dedede}.cls-24{fill:url(#linear-gradient-12)}
        </style>
    </defs>
    <g id="Group_21" transform="rotate(31 277.008 58.478)">
        <g id="Group_14" transform="translate(79.451 145.633)">
            <path id="Path_36" fill="url(#radial-gradient-2)" d="M149.029 159.187s11.118-10.1 16.518-6.048c5.769 4.326 1.362 4.635.043 6.174s1.892 1.757 2.275 4.5-1.82 2.625-1.631 4.337 2.362 2.116-.247 5.419c-2.327 2.944-14.7-2.4-16.958-6.675z" transform="translate(-149.029 -152.18)"/>
            <g id="Group_13" filter="url(#Path_37)" transform="matrix(.86 -.52 .52 .86 -70 5.39)">
                <path id="Path_37-2" fill="url(#radial-gradient-3)" d="M149.029 159.187s11.118-10.1 16.518-6.048c5.769 4.326 1.362 4.635.043 6.174s1.892 1.757 2.275 4.5-1.82 2.625-1.631 4.337 2.362 2.116-.247 5.419c-2.327 2.944-14.7-2.4-16.958-6.675z" transform="rotate(31 323.595 -63.685)"/>
            </g>
            <path id="Path_38" d="M185.742 153.351a4.659 4.659 0 0 0-1.756-.809c5.53 4.553 1.195 4.9-.113 6.545-1.318 1.665 1.893 1.9 2.275 4.857s-1.82 2.837-1.631 4.687 2.362 2.287-.247 5.856a1.532 1.532 0 0 1-.1.121 2.692 2.692 0 0 0 2.011-.832c2.61-3.3.435-3.708.247-5.419s2.014-1.6 1.631-4.337-3.594-2.954-2.275-4.494 5.727-1.85-.042-6.175z" class="cls-4" transform="translate(-169.223 -152.392)"/>
            <path id="Path_39" d="M186.326 153.474c-.462-.349-.459-.232-.1.117 4.447 4.366.809 4.56-.208 6.115s1.459 1.773 1.754 4.537-1.4 2.649-1.258 4.377 1.822 2.136-.191 5.47c-.146.242-.344.567-.254.576a1.88 1.88 0 0 0 .7-.576c2.61-3.334.436-3.743.247-5.47s2.014-1.614 1.631-4.377-3.593-2.982-2.274-4.537 5.721-1.865-.047-6.232z" transform="translate(-170.518 -152.814)" style="mix-blend-mode:screen;isolation:isolate" fill="url(#linear-gradient)" opacity="0.6"/>
            <path id="Path_40" d="M155.953 155.521c3.091-1.538 5.928-3 7.439-3.262-5.747-.892-14.363 6.932-14.363 6.932v2.572a14.638 14.638 0 0 1 6.924-6.242z" class="cls-4" transform="translate(-149.029 -152.185)"/>
            <path id="Path_41" d="M166.032 196.965a15.032 15.032 0 0 1-8.389-2.94c3.4 2.81 9.717 5.279 11.23 3.5a7.21 7.21 0 0 0 .629-.846 14.848 14.848 0 0 1-3.47.286z" transform="translate(-154.067 -176.654)" style="mix-blend-mode:screen;isolation:isolate" fill="url(#linear-gradient-2)" opacity="0.6"/>
            <path id="Path_42" d="M149.194 177.237c-.141.238-.777 1.784 8.854 2.544 1.468.116 7.588.321 7.545-2.2-.042-2.476-2.8-2-4.522-1.788-1.27.155-3.619 1.331-6.386 1.027-5.377-.593-5.374.218-5.491.417z" class="cls-7" transform="translate(-149.089 -165.883)"/>
            <path id="Path_43" d="M170.641 181.533c.251.023.511.045.785.067 1.108.087 5.727.242 5.694-1.663a1.785 1.785 0 0 0-.106-.6 11.664 11.664 0 0 1-6.373 2.196z" transform="translate(-161.669 -168.063)" style="mix-blend-mode:screen;isolation:isolate" fill="url(#linear-gradient-3)" opacity="0.6"/>
            <path id="Path_44" d="M163.683 187.443a44.577 44.577 0 0 1-8.89-1.521c-.993-.274-3.241-1.425-4.241-1.7-.439 1.433.875 2 2.31 2.9 2.37 1.487 9.436 4.9 11.729 3.1a1.706 1.706 0 0 0-.908-2.779z" class="cls-7" transform="translate(-149.87 -170.923)"/>
            <path id="Path_45" d="M173.4 196.135a9.346 9.346 0 0 1-1.01-.056c1.734.6 3.462.9 4.308.238a1.034 1.034 0 0 0 .3-.907 9.338 9.338 0 0 1-3.598.725z" transform="translate(-162.694 -177.465)" style="mix-blend-mode:screen;isolation:isolate" fill="url(#linear-gradient-4)" opacity="0.6"/>
            <path id="Path_46" d="M149.9 165.156a10.157 10.157 0 0 0 7.448-1.145 82.955 82.955 0 0 1 8.144-3.168c1.117-.356 1.008-1.241.024-1.73-1.9-.947-5.769-1.377-7.743-.3-4.151 2.254-7.026 4.652-7.873 6.343z" class="cls-7" transform="translate(-149.537 -155.689)"/>
            <path id="Path_47" d="M167.793 160.7a10.444 10.444 0 0 1 3.444.587c.166-.285-.018-.641-.483-.872a8.552 8.552 0 0 0-5.943.063 18.056 18.056 0 0 0-2.944 1.948 10.714 10.714 0 0 1 2.933-1.285 10.449 10.449 0 0 1 2.993-.441z" transform="translate(-156.538 -156.7)" style="mix-blend-mode:screen;isolation:isolate" fill="url(#linear-gradient-5)" opacity="0.6"/>
        </g>
        <g id="Group_16" transform="translate(30.066 145.633)">
            <path id="Path_48" fill="url(#radial-gradient-4)" d="M49.481 159.187s-11.116-10.1-16.518-6.048c-5.768 4.326-1.362 4.635-.043 6.174s-1.892 1.757-2.275 4.5 1.82 2.625 1.632 4.337-2.363 2.116.247 5.419c2.326 2.944 14.7-2.4 16.958-6.675z" transform="translate(-30.066 -152.18)"/>
            <g id="Group_15" filter="url(#Path_49)" transform="matrix(.86 -.52 .52 .86 -20.62 5.39)">
                <path id="Path_49-2" fill="url(#radial-gradient-5)" d="M49.481 159.187s-11.116-10.1-16.518-6.048c-5.768 4.326-1.362 4.635-.043 6.174s-1.892 1.757-2.275 4.5 1.82 2.625 1.632 4.337-2.363 2.116.247 5.419c2.326 2.944 14.7-2.4 16.958-6.675z" transform="rotate(31 288.816 61.758)"/>
            </g>
            <path id="Path_50" d="M32.963 153.351a4.661 4.661 0 0 1 1.756-.809c-5.53 4.553-1.195 4.9.113 6.545 1.318 1.665-1.893 1.9-2.275 4.857s1.82 2.837 1.632 4.687-2.362 2.287.247 5.856c.031.042.065.082.1.121a2.693 2.693 0 0 1-2.011-.832c-2.61-3.3-.435-3.708-.247-5.419s-2.015-1.6-1.632-4.337 3.594-2.954 2.275-4.494-5.727-1.85.042-6.175z" class="cls-4" transform="translate(-30.066 -152.392)"/>
            <path id="Path_51" d="M34.677 153.474c.462-.349.459-.232.1.117-4.448 4.366-.81 4.56.208 6.115s-1.459 1.773-1.754 4.537 1.4 2.649 1.258 4.377-1.822 2.136.191 5.47c.146.242.343.567.254.576a1.883 1.883 0 0 1-.7-.576c-2.61-3.334-.436-3.743-.247-5.47s-2.014-1.614-1.631-4.377 3.593-2.982 2.274-4.537-5.722-1.865.047-6.232z" transform="translate(-31.069 -152.814)" style="mix-blend-mode:screen;isolation:isolate" fill="url(#linear-gradient-6)" opacity="0.6"/>
            <path id="Path_52" d="M49.676 155.521c-3.091-1.538-5.928-3-7.439-3.262 5.747-.892 14.362 6.932 14.362 6.932v2.572a14.63 14.63 0 0 0-6.923-6.242z" class="cls-4" transform="translate(-37.185 -152.185)"/>
            <path id="Path_53" d="M43.124 196.965a15.034 15.034 0 0 0 8.389-2.94c-3.4 2.81-9.717 5.279-11.231 3.5a7.247 7.247 0 0 1-.629-.846 14.853 14.853 0 0 0 3.471.286z" transform="translate(-35.673 -176.654)" style="mix-blend-mode:screen;isolation:isolate" fill="url(#linear-gradient-7)" opacity="0.6"/>
            <path id="Path_54" d="M53.478 177.237c.14.238.777 1.784-8.854 2.544-1.469.116-7.588.321-7.545-2.2.042-2.476 2.8-2 4.522-1.788 1.27.155 3.619 1.331 6.386 1.027 5.378-.593 5.374.218 5.491.417z" class="cls-7" transform="translate(-34.168 -165.883)"/>
            <path id="Path_55" d="M46.094 181.533c-.251.023-.511.045-.785.067-1.108.087-5.726.242-5.695-1.663a1.8 1.8 0 0 1 .106-.6 11.668 11.668 0 0 0 6.374 2.196z" transform="translate(-35.651 -168.063)" style="mix-blend-mode:screen;isolation:isolate" fill="url(#linear-gradient-8)" opacity="0.6"/>
            <path id="Path_56" d="M41.683 187.443a44.591 44.591 0 0 0 8.89-1.521c.993-.274 3.24-1.425 4.24-1.7.439 1.433-.874 2-2.31 2.9-2.37 1.487-9.435 4.9-11.729 3.1a1.706 1.706 0 0 1 .909-2.779z" class="cls-7" transform="translate(-36.081 -170.923)"/>
            <path id="Path_57" d="M45.955 196.135a9.352 9.352 0 0 0 1.01-.056c-1.734.6-3.462.9-4.309.238a1.034 1.034 0 0 1-.3-.907 9.345 9.345 0 0 0 3.599.725z" transform="translate(-37.249 -177.465)" style="mix-blend-mode:screen;isolation:isolate" fill="url(#linear-gradient-9)" opacity="0.6"/>
            <path id="Path_58" d="M52.872 165.156a10.154 10.154 0 0 1-7.447-1.145 83 83 0 0 0-8.144-3.168c-1.116-.356-1.008-1.241-.024-1.73 1.9-.947 5.769-1.377 7.743-.3 4.149 2.254 7.024 4.652 7.872 6.343z" class="cls-7" transform="translate(-33.818 -155.689)"/>
            <path id="Path_59" d="M44.785 160.7a10.452 10.452 0 0 0-3.445.587c-.166-.285.019-.641.484-.872a8.551 8.551 0 0 1 5.943.063 18 18 0 0 1 2.943 1.948 10.7 10.7 0 0 0-2.932-1.285 10.455 10.455 0 0 0-2.993-.441z" transform="translate(-36.625 -156.7)" style="mix-blend-mode:screen;isolation:isolate" fill="url(#linear-gradient-10)" opacity="0.6"/>
        </g>
        <g id="Group_19" transform="translate(47.743 140.985)">
            <g filter="url(#Path_60)" transform="matrix(.86 -.52 .52 .86 -38.3 10.04)">
                <path id="Path_60-2" fill="url(#radial-gradient-6)" d="M105.776 155.743c0 8.151-7.415 14.758-16.563 14.758s-16.565-6.607-16.565-14.758 7.416-14.758 16.565-14.758 16.563 6.607 16.563 14.758z" transform="rotate(31 289.455 13.584)"/>
            </g>
            <g id="Group_18" clip-path="url(#clip-path)">
                <g id="bitcoin" transform="translate(3.052 1.224)">
                    <path id="Path_290" d="M13.431 26.861a13.431 13.431 0 0 1-9.5-22.928 13.431 13.431 0 0 1 18.997 18.995 13.343 13.343 0 0 1-9.5 3.934zm0-25.183a11.752 11.752 0 1 0 11.752 11.753A11.765 11.765 0 0 0 13.431 1.679z" class="cls-20"/>
                    <path id="Path_291" d="M160.513 119.555a3.354 3.354 0 0 0-.958-5.63v-1.085a.839.839 0 0 0-1.679 0v.839H156.2v-.839a.839.839 0 1 0-1.679 0v.839h-1.679a.839.839 0 0 0 0 1.679h.839v8.394h-.839a.839.839 0 1 0 0 1.679h1.679v.839a.839.839 0 0 0 1.679 0v-.839h1.679v.839a.839.839 0 0 0 1.679 0v-1.085a3.354 3.354 0 0 0 .958-5.63zm-5.155-4.2h2.942a1.679 1.679 0 1 1 0 3.358h-2.938zm2.938 8.394h-2.938v-3.358h2.942a1.679 1.679 0 0 1 0 3.358z" class="cls-20" transform="translate(-144.026 -106.124)"/>
                </g>
            </g>
        </g>
        <path id="Path_90" d="M111.31 159.32c0 .1.008.2.008.3a19.169 19.169 0 0 1-18.991 18.991 18.546 18.546 0 0 1-6.675-1.247 17.669 17.669 0 0 0 11.166 3.859c9.148 0 16.563-6.607 16.563-14.758a13.456 13.456 0 0 0-2.071-7.145z" class="cls-21" transform="translate(-32.51 -10.724)"/>
        <path id="Path_91" d="M131.566 175.43a17.376 17.376 0 0 1-10.866 13.25c6.259-.4 11.2-5.048 11.2-10.727a9.632 9.632 0 0 0-.334-2.523z" transform="translate(-53.012 -20.146)" style="mix-blend-mode:screen;isolation:isolate" fill="url(#linear-gradient-11)" opacity="0.6"/>
        <g id="Group_20" transform="translate(55.246 143.214)" style="mix-blend-mode:screen;isolation:isolate" opacity="0.6">
            <path id="Path_92" d="M109.537 154.018c0 4.232-4.183-2.53-9.379-2.53s-9.438 6.762-9.438 2.53 4.212-7.663 9.408-7.663 9.409 3.431 9.409 7.663z" class="cls-24" transform="translate(-90.721 -146.355)"/>
            <path id="Path_93" d="M111.176 150.714c0 1.531-2.4-.915-5.382-.915s-5.416 2.446-5.416.915 2.417-2.773 5.4-2.773 5.398 1.242 5.398 2.773z" class="cls-24" transform="translate(-96.369 -147.283)"/>
        </g>
        <path id="Path_94" d="M73.484 160.128a18.976 18.976 0 0 1 18.8-18.8c.181 0 .358.009.537.014a18.584 18.584 0 0 0-3.609-.355c-9.149 0-16.565 6.607-16.565 14.758a13.293 13.293 0 0 0 .842 4.645c.001-.09-.005-.175-.005-.262z" class="cls-21" transform="translate(-24.905)"/>
        <path id="Path_95" d="M89.279 143.234c-7.863.145-14.188 5.865-14.188 12.906v.049a16.688 16.688 0 0 1 14.188-12.955z" transform="translate(-26.334 -1.315)" style="mix-blend-mode:screen;isolation:isolate" fill="url(#linear-gradient-14)" opacity="0.6"/>
    </g>
</svg>
