<svg xmlns="http://www.w3.org/2000/svg" width="82.939" height="41.481" viewBox="0 0 82.939 41.481">
    <defs>
        <style>
            .cls-1{fill:#c7c298}.cls-2{fill:#697946}.cls-3{fill:#85965e}.cls-5{fill:#c6c298}.cls-6{fill:#f9f7d9}.cls-7{fill:#948f71}.cls-8{fill:#647046}.cls-9{fill:#6d6c54}.cls-10{fill:#716f56}.cls-11{fill:#86975f}.cls-15{fill:#a3a17d}.cls-17{fill:#647045}.cls-19{fill:#a19f7a}.cls-24{fill:#4e5a34}.cls-25{fill:#505c35}.cls-28{fill:#c3d49c}.cls-31{fill:#9fae7b}.cls-32{fill:#c2d49b}.cls-39{fill:#a3ae84}.cls-43{fill:#323820}
        </style>
    </defs>
    <g id="Group_730" transform="translate(-32.875 -351.625)">
        <g id="Group_12" transform="translate(32.883 351.832)">
            <path id="Path_48" d="M35.276 371.461c0-1.122 1.976-1.081 2.434-1.869-.848-.046-1.494.976-2.375.412.094-.667.076-.751-.421-.732A1.709 1.709 0 0 1 33 367.123c.789-1.628 1.025-1.463 2.027-2.563.473-1.192 3.125-3.525 4.21-4.245 2.708 2.132 4.886-.451 8.331 2.8 1.174 1.107 4.152 2.353 3.448.414-1.325-3.65-2.787-3.343-2.3-4.484 4.472.732 4.025 4.633 4.388 8.109.2 1.87 1.265 2.212 2.055 2.84.618 1.132-2.941 3.749-4.758 4.26-6.16 1.733-3.847-6.355-10.453-3.306-.874.401-3.878 1.552-4.672.513z" class="cls-1" transform="translate(-32.892 -355.702)"/>
            <path id="Path_49" d="M90.506 404.987c-.9-.464-1.8-.012-2.647.132-1.908.327-6.02-.253-6.718-1.361-.279-.859-5.5-5.38-3.974-8.764.637-.646 1.656 1.026 1.734 1.842a7.961 7.961 0 0 0 2.778 4.669c2.438 1.365 2.046-.789 3-1.508a.9.9 0 0 1 1.233 1.2c-.52 1.587-.245 1.962 1.463 2.094 1.941.15 3.646-1.983 5.137.342a5.6 5.6 0 0 0 6.156 2.5c5.043-1.141 4.381-4.028 6.9-2.522 1.19.712 3.007 2.022 2.733.661-.428-2.123-.8-1.249-9.287-1.086-1.733.033-1.372-1.217-.22-2.112 1.819-1.414 4.429-1 6.53-1.172a2.778 2.778 0 0 1 2.706 1.148c.3.457.833.5 1.186.831.885 1.118 1.255 3.882 3.055 3.531 4.446-.866 4.192-3.561 7.04-2.3 2.446 1.079 7.348 1.277 9.813-.775.617-.513 1.091-.932 1.63-.26.155 2.536-2.7 2.423-2.747 2.458-6.041 2.572-8.778-.188-10.521 1.415-5.657 3.73-4.348 1.729-8.584.878a10.867 10.867 0 0 1-3.756-1.537c-1.549-.764.708 1.959-6.361 2.7-4.69.476-7.068-2.796-8.279-3.004z" class="cls-2" transform="translate(-55.84 -374.379)"/>
            <path id="Path_50" d="M165.725 405.024c-1.478 1.23-2.493 2.348-4.973 2.486a15.977 15.977 0 0 1-7.415-1.051c-.95-.375-.5.244-3.69 2.109-.61.356-3.392 1.313-3.933 0-.45-1.1-.988-.488-1.363-3.243.346-.7 3.618-1.375 4.385-1.566 3.887-.967 6.331-3.363 8.148 2.2-.27-2.16.77-3.3 2.862-3.9 2.456-.7 3.408-1.441 4.229-.726 1.322 1.8.741 2.149 1.387 2.821a1.215 1.215 0 0 1 .363.87z" class="cls-3" transform="translate(-91.031 -377.603)"/>
            <path id="Path_51" fill="#697a46" d="M137.943 355.3c.085.017 1.655-.18 1.949 2.389.222 1.934.94 3.763 1.162 5.7a1.779 1.779 0 0 0 2.286 1.709c3.819-.483.386-3.5 2.5-4.285 1.022.876.743 2.952 2.278 3.974-.038-.09.412.586-.981 1.383-2.194 1.254-4.308 2.117-3.823 5.013.163.972.907 2.523.247 2.949-1.085.5-1.555-1.511-1.565-2.7 0-.352-.284-.1-.446-.108-1.233-.434.131-1.656-1.781-2.842-2.994-1.857-5.648-1.581-8.191.969-.657.659-.049 1.808-.748 2.527-1.088.344-.31-.909-1.313-2.089a2.17 2.17 0 0 1-.693-1.739c-.054-.686-.778-.58-1.116-.931a5.478 5.478 0 0 0-1.255-.759c-1.255-.657-.336-1.622 1.205-1.166 1.114.33 1.583.084 1.569-1.028a26.033 26.033 0 0 0-.153-4.174c-.437-2.5.85-3.021 1.245-1.262a2.1 2.1 0 0 0 .4 1.12 4.915 4.915 0 0 0 .785 2.52c.573 1.293-1.111 3.374-.972 5 1.228-4.058 8.109-.845 7.425-4.271-1.487-7.429-1.439-8.046-.014-7.899z" transform="translate(-81.389 -353.742)"/>
            <path id="Path_52" d="M161.943 384.323c-3.617-6.94 3.681-7.577 4.47-9.179.525.638.492.737 3.835 7.981 1.443 3.128 2.563 4.266-.158 4.3-3.8.047-5.51 1.7-5.267-1 .089-.984-.79-2.076 1.067-2.313 3.728-.476 1.352-5.18-.794-2.519-1.343 1.666.023 2.423-.93 3.036a1.822 1.822 0 0 1-2.223-.306z" class="cls-3" transform="translate(-99.686 -364.101)"/>
            <path id="Path_53" d="M123.275 356.43c.01 2.3.765 6.621-.194 7.965-1.062 1.488-1.637-1-3.285-.018-.973.625-2.154.508-3.193.9-2.844-.46-2.853-1.5-2.427-3.191.136-4.94 8.278-4.579 7.608-6.575-.359-1.07-2.9.438-4.2-.442-1.994-2.1 6.113-2.921 6.044-2.285-.5 1.209.456 2.981-.353 3.646z" class="cls-3" transform="translate(-75.185 -352.328)"/>
            <path id="Path_54" d="M66.974 414.875c1.341.112.457 1.14 4.838 2.936 1.276.523 1.809.766-1.172 2.453-6.2 3.5-5.383 1.194-7.213 2.269a2.529 2.529 0 0 1-1.679.014c-1.905.875-2.852-.714-4.083-1.569a4.124 4.124 0 0 1 3.509-3.831 2.8 2.8 0 0 1 .529 1.411 1.36 1.36 0 0 0 1.512 1.592c1.111-.2 1.009-1.485-.015-2.089-.552-.324-5.185-.861 3.774-3.186z" class="cls-5" transform="translate(-45.814 -384.825)"/>
            <path id="Path_55" d="M133.808 352.57c.005-.338-.224-.291 1.485-.247s.944.87 2.512.764a10.975 10.975 0 0 1 4.227.656c-1.007.518-.832-.042.115 5.356 1.238 7.047.856 3.117-6.5 5.754-.58.208.094.834-.279 1.348-.976 1.345-1.823.184-1.457-.622a25.417 25.417 0 0 1 1.156-3.129c.7-1.122-.651-1.711 1.571-.742 2.715 1.183 4.382-2 2.931-3.983-1.681-2.29-3.324-.391-4.314-.495-1.716-.4.841-4.019-1.387-4.164-.195-.012-.22-.301-.06-.496z" class="cls-3" transform="translate(-85.477 -352.181)"/>
            <path id="Path_56" d="M55.509 358.5c1.052 1.255 1.884 1.713 2.73 4.2.652 1.916.759 1.863-.657 1.805a6.253 6.253 0 0 1-4.225-2.083c-1.821-1.789-3.561-.835-6.225-1.414-4.48-.978 4.62-4.256 8.377-2.508z" class="cls-6" transform="translate(-39.687 -355.154)"/>
            <path id="Path_57" d="M43.066 383.338c1.934-1.684 5.231-3.091 7.176-.93 1.773 1.97 1.208 2.3 2.476 2.8 2.948 1.166 6.333-1.158 7.745-3.6a3.632 3.632 0 0 1 1.267.443c-1.229 2.806-4.393 2.442-4.735 7.105-.038.522.049 1.484-.506 1.813-1.73-.643-3.819-1.072-4.844-2.571-.6-.873-1.994-2.338-1.867-4.134.063-.88-.764-1.092-2.088-1.6-1.177-.453-3.319 1.42-4.624.674z" class="cls-7" transform="translate(-38.199 -367.315)"/>
            <path id="Path_58" d="M167.891 424.75c-.387.555-1.037.412-1.567.58-2.213.7-1.982 2.373-.142 3.159 1.436.614 4.36-.134 3.02-2.316-.183-.3-.542-.542-.313-.974a2.11 2.11 0 0 1 1.431.6c.608.58 3.458 1.713 2.616 3.127-.837.528-1.6 1.195-2.735.977-.816-.156-.964.493-1.758.536-2.128-1.529-1.124.563-5.106-1.022-4.529-1.8-14.483-3.33 1.939-5.423a5.486 5.486 0 0 1 2.615.756z" class="cls-5" transform="translate(-97.204 -389.583)"/>
            <path id="Path_59" d="M95.625 365.246c1.3-.385.961-1.883 3.225-3.968 2.347-.425 5.485-3.557 7.016-2.557.465 1.784-2.2 4.279-2.643 5.968a2.743 2.743 0 0 1-3.411 2.129c-.74-.378-3.836.336-1.642-2.834-1.455 1.478.007 3.017-1.671 3.607-.55.194-1.812-.554-.874-2.345z" class="cls-8" transform="translate(-65.439 -355.432)"/>
            <path id="Path_60" d="M160.092 361.134c-.757 1.43.437 2.381-.225 4.1-.389 1.008-1.156.359-2.914.849-.259.072-1.038.047-1.167-.186-1.12-2.02-2.617-9.742-2.6-10a14.385 14.385 0 0 1 3.91 2.527c2.204 2.248 2.547 1.698 2.996 2.71z" class="cls-3" transform="translate(-95.64 -354.059)"/>
            <path id="Path_61" d="M165.278 394.613c1.394 1.864-.763 3.272 1.082 2.873a10.838 10.838 0 0 1 3.608-.542 4.024 4.024 0 0 0 2.275-.377 3.449 3.449 0 0 1 .775 1.239 38.5 38.5 0 0 0-4.742 1.4c-2.921.8-1.521 3.687-1.525 3.837-.017.745-1.236.389-1.451-.47-1.282-5.132-3.333-2.372-3.354-3.609.015-.3-.771-1.633.317-2.349.614-.4 1.018.237 1.366.525-.608-.769-1.757-1.377-1.348-2.765.033-.043 2.943-.266 2.997.238z" class="cls-2" transform="translate(-100.073 -374.087)"/>
            <path id="Path_62" d="M71.05 391.381c.134-2.573.153-4.505 2.189-5.99 2.4-1.748 1.991-2.41 3.088-2.532 1.147.294 2.147.33 1.159 2.193a18.4 18.4 0 0 1-2.959 3.556c-.254.327-.193.342-.266 3.315-1.81-.15-2.474-.134-3.211-.542z" class="cls-9" transform="translate(-52.796 -368.125)"/>
            <path id="Path_63" d="M165.126 421.8c-.643.464-1.167.126-7.087 1.2-4.681.848-3.306 2-5.316.455-1.266-.974-.578-1.211.846-1.485 3.615-.695 3.067-2.977 6.373-2.107a11.437 11.437 0 0 1 5.184 1.937z" class="cls-7" transform="translate(-95.051 -387.324)"/>
            <path id="Path_64" d="M177.619 426.023c.772.733 1.757 1.653 1.2 2.565a3.427 3.427 0 0 1-5.276.441c-1.863-1.905.741-4.509 4.076-3.006z" class="cls-6" transform="translate(-105.934 -390.407)"/>
            <path id="Path_65" d="M83.2 412.891c7.815 1.818 2.222.686 8.3.525.593-.016.555.2.672.659-1.271.607-1.924.249-4.317 1.477-2.737 1.4-9.288-1.146-7.455-2.812 1.205-1.094 2.735.06 2.8.151z" class="cls-10" transform="translate(-57.508 -383.467)"/>
            <path id="Path_66" d="M160.286 418.145c-.73.453-2.621.013-3.133-.155-1.118-.369-.915.734-3.078 1.776a7.418 7.418 0 0 1-3.851.693c-.289-.673-2.434-1.266-.359-1.674 4.046-.8 5.482-3.443 6.861-3.114.787.188 1.558.443 2.335.67-1.334.213-.283.7 1.225 1.804z" class="cls-9" transform="translate(-93.441 -385.225)"/>
            <path id="Path_67" d="M103.954 359.556c-.482.409-.223-.32-1.219-.4 3.059-3.762 10.188-6.486 7.928-3.282-.78 1.399-2.976.517-6.709 3.682z" class="cls-11" transform="translate(-69.323 -353.31)"/>
            <path id="Path_68" d="M85.958 416.681a8.871 8.871 0 0 1-2.976 1.69c-2.114-.789-4.585-1.8-5.857-3.594 3.136-1.801-1.318 1.362 8.833 1.904z" class="cls-7" transform="translate(-55.965 -384.488)"/>
            <path id="Path_69" fill="#889861" d="M57.665 427.605c1.558-.2 1.754.818 2.211 1.488.48.262 1.112-1.022 2.417-.284 1.237.7 1.571-1.527 3.507.236-.334.124-4.016.912-4.064.922a5.6 5.6 0 0 1-2.534-.361c-1.177-.306-1.487-.715-1.537-2.001z" transform="translate(-45.814 -391.452)"/>
            <path id="Path_70" d="M183.74 412.4a15.9 15.9 0 0 0 2.329-1.512 1.009 1.009 0 0 0 .418-.947c.83.637-.887 1.438 2.939.507.558.672-.366 1.546-.669 1.971-1.101 1.547-3.247.697-5.017-.019z" class="cls-7" transform="translate(-111.577 -382.251)"/>
            <path id="Path_71" fill="#f8f6d9" d="M197.92 408.1c2.685-1.554 3.117-2.9 3.459-1.748a7.5 7.5 0 0 1-2.676 3.583c-1.453.433-2.138-.81-.783-1.835z" transform="translate(-118.593 -380.155)"/>
            <path id="Path_72" d="M195.464 412.344a6.953 6.953 0 0 1-4.485 1.345c1.652-1.669 1.966-1.875 1.955-2.408 4.152-1.933-.768.46 2.53 1.063z" class="cls-1" transform="translate(-115.353 -382.564)"/>
            <path id="Path_73" fill="#969172" d="M37.969 380.637c.953-.274 2.06-1 2.677-1.191a.486.486 0 0 1 .527.76c-.822 1.085-2.011 1.2-2.545 1.864a1.192 1.192 0 0 1-.659-1.433z" transform="translate(-35.527 -366.334)"/>
            <path id="Path_74" d="M78.482 388.654c-.1-.9 3.275-2.945 2.929-5.168a1.107 1.107 0 0 1 1.23.486c.433.975-.649 1.29-.864 1.983a1.314 1.314 0 0 1-.212.282c-1.61 1.433-1.721 2.906-3.083 2.417z" class="cls-15" transform="translate(-56.671 -368.442)"/>
            <path id="Path_75" d="M84.634 380.762c.033-.735.9-.949 1.217-1.99a1.58 1.58 0 0 0 .249-.258c.764-.74 3-4.5 3.736-5.016-.053 1.151-.007 1.127-.179 1.344-1.208 1.532-3.376 6.429-5.023 5.92z" class="cls-3" transform="translate(-59.882 -363.242)"/>
            <path id="Path_76" fill="#8d9a66" d="M182.7 435.583c.212-1.112 1.521-1.113 1.936-.933.717.31.662-.174 1.567-.668 1.068-.582.685 1.899-3.503 1.601z" transform="translate(-111.037 -394.745)"/>
            <path id="Path_77" d="M125.367 352.4c-1.343.983-3.124.344-4.023 1.27-2.456-.125 3.579-2.477 4.023-1.27z" class="cls-17" transform="translate(-78.725 -352.059)"/>
            <path id="Path_78" fill="#879660" d="M170.461 371.646c-1.185-.454-1.535.2-1.493-.683.041-.863-.354-1.674-.253-2.536a9.842 9.842 0 0 1 1.746 3.219z" transform="translate(-103.732 -360.597)"/>
            <path id="Path_79" d="M155.355 417.195c-.468 1.4-3.622 2.584-5.565 2.751a.676.676 0 0 1-.248-.536c3.541.142 4.969-2.11 5.813-2.215z" class="cls-19" transform="translate(-93.739 -386.035)"/>
            <path id="Path_80" fill="#8e9b65" d="M176.589 436.141a1.384 1.384 0 0 1 2.5.293c-.701.098-.464.052-2.5-.293z" transform="translate(-107.847 -395.573)"/>
            <path id="Path_81" fill="#899764" d="M97.767 367.884c-.619 1.935-.615 2.614-1.775 2.244a9.6 9.6 0 0 1 1.775-2.244z" transform="translate(-65.806 -360.314)"/>
            <path id="Path_82" d="M119.883 354.788c.053-.508 0-.462.255-.53.387-.264.462.781-.255.53z" class="cls-17" transform="translate(-78.268 -353.183)"/>
            <path id="Path_83" d="M150.11 423.424l.181.235z" class="cls-19" transform="translate(-94.035 -389.284)"/>
            <path id="Path_84" d="M106.412 416.222l.243.161z" class="cls-10" transform="translate(-71.241 -385.528)"/>
            <path id="Path_85" d="M183.963 399.279l-.209-.231z" class="cls-3" transform="translate(-111.585 -376.569)"/>
            <path id="Path_86" d="M87.457 383.983l-.221.236z" class="cls-15" transform="translate(-61.239 -368.711)"/>
            <path id="Path_87" d="M87.973 383.469l-.251.235z" class="cls-15" transform="translate(-61.492 -368.443)"/>
            <path id="Path_88" d="M120.631 354.2c-.049 0-.271.03-.223-.009.298-.129.241-.138.223.009z" class="cls-11" transform="translate(-78.538 -353.12)"/>
            <path id="Path_89" fill="#fcfcfa" d="M49.092 365.73c1.541.556 1.841 1.83 1.084 2.109-.486.179-.917.725-1.462.463-.721-.347-1.232-2.583.378-2.572z" transform="translate(-40.787 -359.19)"/>
            <path id="Path_90" fill="#f7f5d6" d="M38 373.97c.019 1.3-2.173 1.452-2.158.074.01-1.282 2.136-1.265 2.158-.074z" transform="translate(-34.428 -363.024)"/>
            <path id="Path_91" d="M106.534 408.8c11.693.173 9.834-2.26 11.139 2.348.505 1.784-4.37-1.586-4.65-1.515a1.785 1.785 0 0 0-1.269.68c-2.084 3.382-10.07 3.241-11.137-.5-.329-1.151-1.213-.843-1.734-.717-2.782.671-1.107 1.181-5.35.1-.677-.173.51-2.2.846-2.614.967-.785 1.955.588 9.961 1.913.766.249.862 1.52.937 2.234.168-.682.649-2.299 1.257-1.929z" class="cls-3" transform="translate(-64.416 -380.382)"/>
            <path id="Path_92" d="M117.779 397.687c-1.418.487-1.229-.248-1.119-1.09-.32.312.3 1.39-.882 1.142.249-.314-.966.241-.888-2.634.664-.43.43-1.271.828-1.826 1.225-.493 1.179 1.274 3.308.716 1.7-.446 4.3.887 4.188-2.078-.031-.837.167-6.3.8-6.866.9.5.547 2.006.947 2.5.981.693.11 1.535 1.115 3.387.931 1.713.9 1.786-.946 2.443 1.027.47 2.154.552 2.936 1.351.6.609 3.284-2.363 7.715-2.364 1.656 0-.43-2.819 1.379-2.857.694.049.737.021.778.155.75 2.422 2.7 2.75 2.43 3.239a.767.767 0 0 1-1.188-.008c-1.266-1.11-1.05-1.337-1.381-.217-.244.827-.341.546.452.906 1.174.534-3.122 1.331-4.4 1.43a15.346 15.346 0 0 0-4.864 1.969c-2.046-.094-1.036-2.044-4.191-1.682-1.648.189-4.038-.208-5.84.97a5.819 5.819 0 0 0-1.177 1.414z" class="cls-24" transform="translate(-75.661 -369.268)"/>
            <path id="Path_93" d="M83.046 381.545c4.229-4.076 2.2-3.672 5.167-6.5-.341-.261 1.269.443-.587 3.234-.486.864-.31-.541-1.521 2.992-.47 1.373-1.245 1.807-2.292 1.3.868 1.017 1.806 1.992 2.771 2.943.937.923 1.913 3.489.929 4.212a5.938 5.938 0 0 1-5.4-3.1c-1.593-2.64.953-5.126.933-5.081z" class="cls-8" transform="translate(-58.294 -364.025)"/>
            <path id="Path_94" d="M81.361 388.671c-.133.872-3.547 4.954 3.064 7.524 1.664.647 1.249.556.3 2.983-.232.6-.821.2-2.478-.4-.828-.3-2.168-2.5-2.566-3.272-1.024-1.972.124-1.7-.869-2.756a1.3 1.3 0 0 1-.4-1.376c1.548-.574 1.667-1.96 2.949-2.703z" class="cls-3" transform="translate(-56.606 -371.156)"/>
            <path id="Path_95" d="M104.8 404.106a12.23 12.23 0 0 1 .728 2.754c-2.524.054-4.622-.691-10.162-2.255-.684-.646 1.228-1.313 1.833-1.636 4.623-1.169 7.429.454 7.601 1.137z" class="cls-8" transform="translate(-65.404 -378.4)"/>
            <path id="Path_96" d="M92.123 392.648c-3.551 2.864-1.752-1.175-3.481-2.877-1.915-1.884-2.782-2.569-2.975-3.943.335-.308 1.378 1.958 2.576-2.327.247-.885 1.17-2.128 1.522-1.187.16.762-1.268 1.551.15 6.1a3.75 3.75 0 0 0 1.842 2.6 1.555 1.555 0 0 1 .366 1.634z" class="cls-25" transform="translate(-60.421 -367.665)"/>
            <path id="Path_97" fill="#bda8a7" d="M86.1 413.3l-.46-.244z" transform="translate(-60.407 -383.876)"/>
            <path id="Path_98" d="M149.5 404.349c1.441.721 3.526-.635 3.49.1-16.617 6.07-4.471-.592-3.49-.1z" class="cls-8" transform="translate(-91.005 -379.269)"/>
            <path id="Path_99" fill="#c1d29a" d="M155.418 410.587c.042 1.567-2.183 1.443-2.271.073a1.137 1.137 0 1 1 2.271-.073z" transform="translate(-95.618 -381.993)"/>
            <path id="Path_100" d="M136.192 387.23c-.228-.5-.632-5.2.284-5.763 1.42-.88.654-1.591 4.551-2.2a4.087 4.087 0 0 1 2.98.56c1.345.843 2.743 1.039 2.621 2.732a1.448 1.448 0 0 0 .247 1.178c1.138.8 1.859 4.694-3.468 3.684-.953-.531.669-2.577-1.314-4.363-2.069-1.862-4.867-.214-3.945 2.622.188.579.789 1.159.107 1.8a1.872 1.872 0 0 1-2.063-.25z" class="cls-3" transform="translate(-86.625 -366.214)"/>
            <path id="Path_101" d="M121.907 385.05c.081 2.8-.567 4.882-.343 6.129.17.949.149 2.956-.813 3.044a5.911 5.911 0 0 1-2.8.087.81.81 0 0 0-.708.148c-.536.342-2.47.317-2.706-.4-.184-.56-.61-.6-1.088-.564-4.634.6-2.156-7.863.464-4.384 1.621 2.311 3.364.59 4.137.534 2.33-.162 2.295.019 2.345-2.029.029-1.272.234-2.595 1.512-2.565z" class="cls-17" transform="translate(-73.558 -369.268)"/>
            <path id="Path_102" d="M114.4 386.12c-2.971-.085-1.183-4.949.21-5.8 1.33-.046 2.346-1.52 5.465-.423 1.741.612 1.849.388 2.062.788 1.215 2.1.043.681-.206 3.752-.255 3.154 1.5 3.2-3.008 2.666-.453-.444-.062-1.059-.019-1.623.212-2.741-2.835-1.74-3.7-.383-.38.672-.48.995-.804 1.023z" class="cls-3" transform="translate(-74.566 -366.366)"/>
            <path id="Path_103" d="M142.612 394.3c1.184-.414 2.113-.146 3.278-.353 1.654-.294.222-1.324 1.416-1.148.827.691-.615.911-.083 1.774.391.634.239 2.405-.622 2.411-.975.007-1.158-.428-2.188-.031-.052.02-2.555.978-3.138 1.151-3.239.963-1.715 2.515-3.014 1.156-2.023-2.116-4.143-.169-3.218-2.507.24-.608.543.019 1.187 0 1.172-.026.028-.775-.6-2.445l2.271-.052c.54-.426 2 1.328 4.543.028z" class="cls-17" transform="translate(-86.06 -373.301)"/>
            <path id="Path_104" d="M107.546 373.642c-1.51.873-1.47 5.5-1.978 5.976-.719-.019-.651.653-.862 1.038a4.7 4.7 0 0 1-5.622 2.017c-.14-.98.649-1.194 1.278-1.336 2.77-.626 2.393-2.913 3.677-3.177 1.654-.339.787-3.56-.4-4.563-2.009-1.7-1.549-2.434-1.061-3.177.394-.261.678.4 1.306-.431 2.26-2.994-.316-.344 1.683-3.027.874.222 3.8-2.8 1.578 1.214-.675 1.219-.594 1.6-1.234 1.637-.565.033-1.332 1.609-1.211 2.17.214 1 .976 1.347 1.679.625.732-.752 1.626-.418 2.417-.671 3.294-1.281 5.014.331 5.2.729-.996.921-1.313-1.266-6.45.976z" class="cls-25" transform="translate(-67.411 -359.372)"/>
            <path id="Path_105" d="M136.464 361.275c4.934-3.381 7.1 3.671 3.492 5.239-1.373.6-2.5.058-3.522-1.052-.82-4.133-.687-3.629.03-4.187z" class="cls-28" transform="translate(-86.608 -356.393)"/>
            <path id="Path_106" fill="#5a673c" d="M133.276 352.873c.087.6.61 0 1.111.012.395.013.669.225.564.6-.284 1-.355 4.193-.435 4.343-.251.291.044.838-.471 1.007-.779-.407-.442-1.5-1.01-2.245-.435-3.966-.58-3.552.241-3.717z" transform="translate(-84.945 -352.483)"/>
            <path id="Path_107" fill="#85955d" d="M154.675 375.185c.832-.041.382 1.821 2.366 1.755.3-.01.727.257.6.6-.575 1.531-.952 1.354-1.418.917-2.323-2.172-1.908-1.721-1.548-3.272z" transform="translate(-96.27 -364.122)"/>
            <path id="Path_108" d="M159.877 389.293c-.155.931-1.13-.9-.929-3.094.014-.16.3-.2.351-.056a14.626 14.626 0 0 1 .578 3.15z" class="cls-24" transform="translate(-98.631 -369.792)"/>
            <path id="Path_109" d="M135.53 364.229c.2-.314.187-.73.471-1.007.799 5.89-.476 3.043-.471 1.007z" class="cls-31" transform="translate(-86.43 -357.882)"/>
            <path id="Path_110" d="M131.134 380.869c-1.29-.331-1.683-1.869.19-.387.27.213.006.318-.19.387z" class="cls-25" transform="translate(-83.567 -366.554)"/>
            <path id="Path_111" d="M167.945 390.2c-.614-.1-1.24-1.4-.38-2.819 1.248-2.056 3.8-1.73 4.039.192a2.386 2.386 0 0 1-2.124 2.685 5.39 5.39 0 0 1-1.535-.058z" class="cls-28" transform="translate(-102.921 -369.752)"/>
            <path id="Path_112" d="M119.829 356.841c.535.5 1.11.2 3.589-.152.71-.1 4.573 1.631-4.842 4.361-.7-.608.174-1.069.308-2.828.237-.512.076-1.302.945-1.381z" class="cls-17" transform="translate(-77.448 -354.472)"/>
            <path id="Path_113" d="M122.638 368.728c-1.32-.949-.7-3.61 1.263-3.425 3.006.283 1.037 5.079-1.263 3.425z" class="cls-32" transform="translate(-79.341 -358.962)"/>
            <path id="Path_114" fill="#3d4527" d="M116.885 355.725c-.416.38-.053.568-.492 1.494-.024.049-1.278 2.959-1.229 2.989-2.388 1.441-2.342 1.606-2.5.737 1.182-1.915 3.944-8.06 4.457-5.974a1.943 1.943 0 0 1-.236.754z" transform="translate(-74.504 -353.356)"/>
            <path id="Path_115" fill="#6a7a47" d="M114.314 374.809c-1.177.575-1.809.472-2.463 1.266a.877.877 0 0 1-1.283.056c-2.357-2.319.5-2.576.569-4.285 0-.1.141-.266.207-.262.55.035-.559 1.616.961.217-.2 1.222-.515 2.051.324 2.3.584.18 1.01.744 1.685.708z" transform="translate(-72.923 -362.244)"/>
            <path id="Path_116" d="M117.881 363.14c.318-2.276 2.19-4.668.758-1.342-.412.954-.148 1.262-.758 1.342z" class="cls-25" transform="translate(-77.224 -356.282)"/>
            <path id="Path_117" d="M121.482 356.444a.583.583 0 0 1 .2-.52.529.529 0 0 1-.2.52z" class="cls-17" transform="translate(-79.1 -354.075)"/>
            <path id="Path_118" d="M65.41 420.217c4.637-.711 2.988 4.712.465 3.017-2.182-1.466.154-3.72-.465-3.017z" class="cls-6" transform="translate(-49.599 -387.542)"/>
            <path id="Path_119" d="M136.513 362.7c.033-.579-.038-.484.286-.46a.655.655 0 0 1-.286.46z" class="cls-31" transform="translate(-86.943 -357.359)"/>
            <path id="Path_120" fill="#424b2b" d="M99.7 371.615c.385.509-.022.863-.245 1.253a.611.611 0 0 1-.355.781c-1.759.058-3.093 1.42-4.821 1.58-1.837.017.352-1.287.251-3.573.725-.408.219 1.43 1.152.618a1.59 1.59 0 0 0 .552-1.554c-.142-1.148 1.237-2.235 1.512-2.35.628.794-3.362 3.27 1.954 3.245z" transform="translate(-64.529 -360.567)"/>
            <path id="Path_121" d="M103.509 374.895a1.145 1.145 0 0 1-1.246-.232c.428.008.879-.107 1.246.232z" class="cls-25" transform="translate(-69.077 -363.843)"/>
            <path id="Path_122" d="M158.443 366.026c.067-1.219 1.23-2.3 2.222-1.612 2.067 1.431-1.655 5.428-2.222 1.612z" class="cls-32" transform="translate(-98.382 -358.392)"/>
            <path id="Path_123" d="M168.188 394.383l.3.2z" class="cls-3" transform="translate(-103.465 -374.136)"/>
            <path id="Path_124" d="M118.08 357.56a.5.5 0 0 1-.294.455.561.561 0 0 1 .294-.455z" class="cls-17" transform="translate(-77.174 -354.928)"/>
            <path id="Path_125" d="M118.6 356.962l-.2.281z" class="cls-17" transform="translate(-77.495 -354.616)"/>
            <path id="Path_126" d="M119.181 355.994l-.221.262z" class="cls-17" transform="translate(-77.787 -354.111)"/>
            <path id="Path_127" d="M119.645 355.421l-.218.27z" class="cls-17" transform="translate(-78.03 -353.813)"/>
            <path id="Path_128" fill="#677645" d="M116.75 408.848c.809-.221.458-1.066.331-1.824-.16-.955 1.287-.819 1.136-.1-.344 1.642-.821 1.611.333 1.93-1.228 4.438-1.24 4.563-1.8-.006z" transform="translate(-76.634 -380.376)"/>
            <path id="Path_129" fill="#bfcf97" d="M121.54 412.127c1.958-.025.176 2.976-.747 1.725a1.076 1.076 0 0 1 .747-1.725z" transform="translate(-78.624 -383.391)"/>
            <path id="Path_130" fill="#3c4427" d="M98.6 396.385a11.537 11.537 0 0 0 2.788-.342c2.955-.465 2.471-3.468 3.281-3.53.407-.032.354.48.388.893-.032 1.183-1.293 2.6.42 3.322 1.283.542 2.334 1.048 1.522 2.033-.27.328-1.208-.106-1.393-.127-3.99-.463.664-1.339-7-.492-.896-1.23-.466-1.964-.006-1.757z" transform="translate(-66.896 -373.16)"/>
            <path id="Path_131" d="M93.688 380.853l-.226.265z" class="cls-25" transform="translate(-64.486 -367.078)"/>
            <path id="Path_132" d="M95.355 388.7c-2.3 1.262-2.386-2.3-3.327-4.474-.527-1.219.345-3.768 1.1-4.461 3.3-.775 2.566-1.564 4.1-1.507 1.381.052 1.482-.3.941 1.671a2.536 2.536 0 0 0 1.474 3.328c.569.286.845.161.911-.468.219-2.066-2.879-3.189-1.971-5.012a2.681 2.681 0 0 1 .963.938c.521.837 2.355 1.637 1.96 5.171-.1.928-.995.053-1.775 1.514-.854 1.6-1.1 1.961-1.739 2.127-1.823.473-2.363.633-2.637 1.173z" class="cls-17" transform="translate(-63.655 -365.471)"/>
            <path id="Path_133" d="M140.282 389.948c-.343-.07-.9-1.085-.993-1.29a2.873 2.873 0 0 1 3.4-4.084c3.484 1.075 4.448 7.646-2.407 5.374z" class="cls-28" transform="translate(-88.232 -368.944)"/>
            <path id="Path_134" d="M120.729 394.273c-.989 1.166-3.578 1.16-4.049-.7.367-.881 3.72-.078 4.049.7z" class="cls-39" transform="translate(-76.597 -373.512)"/>
            <path id="Path_135" d="M125.068 395.128l-.069-.095c.122-.497.601.053.069.095z" class="cls-39" transform="translate(-80.937 -374.367)"/>
            <path id="Path_136" d="M116.422 393.651c-.3-.357-.3-.307-.091-.3.155.022.251.124.091.3z" class="cls-39" transform="translate(-76.34 -373.594)"/>
            <path id="Path_137" d="M116.619 390.246c-.563-.546-.1-1.654.724-2.267 4.029-3.005 4.777 2.04 3.156 2.99-1.318-.106-2.582-.503-3.88-.723z" class="cls-28" transform="translate(-76.437 -370.303)"/>
            <path id="Path_138" fill="#687349" d="M124 380.293a5.4 5.4 0 0 1-2.628-.438c-2.547-1.012-3.13.635-4.585.444.861-.856 5.071-2.799 7.213-.006z" transform="translate(-76.655 -366.029)"/>
            <path id="Path_139" d="M116.54 391.234l-.165.277z" class="cls-39" transform="translate(-76.438 -372.493)"/>
            <path id="Path_140" fill="#a0ac81" d="M141.7 395.937l4.467-.026c-1.231 1.602-3.467.98-4.467.026z" transform="translate(-89.647 -374.933)"/>
            <path id="Path_141" fill="#84955d" d="M111.529 375.014a6.528 6.528 0 0 0 .595 1.921.349.349 0 0 1-.087.533c-.556.392-.625.266-1.715-.925-.383-.419.811-1.343 1.207-1.529z" transform="translate(-73.242 -364.033)"/>
            <path id="Path_142" d="M94.216 381.93l-.256.241z" class="cls-25" transform="translate(-64.746 -367.64)"/>
            <path id="Path_143" d="M106.324 381.1c1.256 1.083 1.081 4.256-.467 3.392-1.244-.695-2.695-1.88-2.343-3.254 1.154-4.514 1.032-1.675 2.81-.138z" class="cls-3" transform="translate(-69.702 -366.005)"/>
        </g>
        <g id="Group_13" transform="translate(32.875 351.625)">
            <path id="Path_144" d="M104.551 393.106A22.021 22.021 0 0 1 90.1 387.8l-.052-.043c-.1-.087-.208-.173-.306-.266A11.764 11.764 0 0 0 85.4 384.7a12.966 12.966 0 0 1-2.535-1.287c-.21-.127-.42-.254-.63-.376a1.121 1.121 0 0 0-.557-.19.787.787 0 0 0-.63.389 6.292 6.292 0 0 1-.907.923 5.943 5.943 0 0 1-3.86 1.526c-.228.006-.455.01-.681.01a10.923 10.923 0 0 1-5.015-.985 6.843 6.843 0 0 1-2.916-2.325.735.735 0 0 0-.654-.408 2.026 2.026 0 0 0-.391.052 18.056 18.056 0 0 1-3.669.424 12.166 12.166 0 0 1-1.545-.1 9.638 9.638 0 0 1-3.853-1.449 1.155 1.155 0 0 0-.6-.209.915.915 0 0 0-.62.285 8.179 8.179 0 0 1-3.018 1.585l-.747.244c-1.409.461-2.867.937-4.275 1.475a11.555 11.555 0 0 0-2.35 1.279 3.473 3.473 0 0 0-1.03 1.222c-.124.233-.237.5-.127.678a.462.462 0 0 0 .407.169 2.379 2.379 0 0 0 .376-.038 1.466 1.466 0 0 1 .241-.021.948.948 0 0 1 .861.484.875.875 0 0 0 .79.519 1.555 1.555 0 0 0 .323-.038 3.014 3.014 0 0 1 .631-.074 1.675 1.675 0 0 1 1 .3.647.647 0 0 0 .361.1.661.661 0 0 0 .312-.071 2.677 2.677 0 0 1 1.328-.427 1.843 1.843 0 0 1 1.191.468.532.532 0 0 0 .341.1 1.519 1.519 0 0 0 .57-.123l.942-.418c1.533-.68 3.119-1.382 4.643-2.145.733-.367 1.452-.788 2.146-1.2s1.432-.839 2.172-1.207a19.9 19.9 0 0 1 2.4-.942c.281-.1.562-.193.841-.294h.011a.484.484 0 0 1 .147.029.622.622 0 0 1-.138.17 1.782 1.782 0 0 1-.5.247 27.12 27.12 0 0 0-4.941 2.46c-.66.387-1.342.786-2.025 1.154a36.132 36.132 0 0 1-9.09 3.68 10.151 10.151 0 0 1-2.186.259c-.1 0-.192 0-.288-.006a4.815 4.815 0 0 1-1.9-.491 2.838 2.838 0 0 1-1.595-2.207 2.732 2.732 0 0 1 1.028-2.454 9.48 9.48 0 0 1 2.547-1.492c1.08-.418 2.2-.783 3.288-1.136.79-.258 1.607-.523 2.4-.808.73-.261 1.445-.595 2.137-.916l.622-.288a.574.574 0 0 0 .35-.335.789.789 0 0 0-.185-.614c-.585-.921-1.263-2.022-1.858-3.2a1.317 1.317 0 0 0-1.316-.836l-.453.006c-.2 0-.393.007-.589.007a7.231 7.231 0 0 1-1.472-.121 8.52 8.52 0 0 1-4.745-2.736 6.2 6.2 0 0 1-1.3-2.609l-.111-.421a17.327 17.327 0 0 0-.494-1.666c-.247-.666-.5-1-1.164-1a3.375 3.375 0 0 0-.456.036c-.527.071-1.053.193-1.561.31-.19.044-.381.088-.571.13-.242.053-.483.114-.724.177a9.742 9.742 0 0 1-1.5.3c-.357.033-.682.049-.993.049a6.714 6.714 0 0 1-1.34-.123.947.947 0 0 1-.654-.358 1.181 1.181 0 0 1-.022-.917 1.566 1.566 0 0 1 .155-.41c.109-.18.221-.41.117-.593s-.355-.2-.536-.205c-.956 0-1.525-.517-1.846-1.663a1.516 1.516 0 0 1 0-.741l.012-.051a2.659 2.659 0 0 1 .39-1.006c.254-.32.5-.642.755-.963 1.658-2.13 3.373-4.333 5.9-5.634a12.44 12.44 0 0 1 5.308-1.629h.275a8.341 8.341 0 0 1 5.382 1.767 5.312 5.312 0 0 1 1.65 3.4c.124.653.238 1.307.352 1.962s.226 1.294.348 1.939a4.285 4.285 0 0 0 3.051 3.579 2.744 2.744 0 0 1 .815.516l.2.16a.92.92 0 0 1-.338.06 2.541 2.541 0 0 1-.695-.137c-.082-.024-.164-.048-.245-.069a3.9 3.9 0 0 1-3.084-3c-.163-.7-.284-1.424-.4-2.124-.085-.51-.171-1.02-.273-1.527-.248-1.244-.478-2.246-.722-3.153a2.664 2.664 0 0 0-1.3-1.508 8.727 8.727 0 0 0-4.6-1.3 9.926 9.926 0 0 0-1.893.188 12.666 12.666 0 0 0-8.3 5.321 6.608 6.608 0 0 1-.58.692 6.3 6.3 0 0 0-.651.791 6.786 6.786 0 0 0-.977 1.941 1.372 1.372 0 0 0 .165 1.216 1.41 1.41 0 0 0 1.16.48c.275 0 .552.019.83.034.309.018.619.036.926.036a3.972 3.972 0 0 0 2.1-.5.259.259 0 0 1 .12-.036 1.97 1.97 0 0 1 .294.073.473.473 0 0 1-.088.179 3.617 3.617 0 0 1-1.984.732c-.056 0-.114 0-.171-.005s-.088-.005-.131-.005a.837.837 0 0 0-.861.584c-.228.584-.255.961-.087 1.223s.49.383 1.04.419c.111.007.223.01.336.01a11.759 11.759 0 0 0 1.867-.2l.325-.053c.42-.066.84-.158 1.247-.246a11.377 11.377 0 0 1 2.409-.345h.117a1.414 1.414 0 0 1 1.442.8l.1.211a8.459 8.459 0 0 1 .654 1.644c.6 2.526 2.3 4.194 5.343 5.25a11.818 11.818 0 0 0 2.128.453c.241.035.481.072.72.112a1 1 0 0 0 .168.016.416.416 0 0 0 .339-.138.607.607 0 0 0 .066-.521 3.247 3.247 0 0 1-.036-.7 4.416 4.416 0 0 0-.018-.609l-.021-.17c-.083-.672-.083-.672.2-.989 3.042-3.361 5.808-7.034 8.482-10.585l.248-.331a24.809 24.809 0 0 1 9.192-7.884 19.362 19.362 0 0 1 8.332-2.02 16.482 16.482 0 0 1 2.947.267c.434.079.872.153 1.31.226a27.1 27.1 0 0 1 4.656 1.067 17.136 17.136 0 0 1 9.16 6.922 68.822 68.822 0 0 1 5.984 11.61c.579 1.467 1.265 2.918 1.928 4.321.286.605.573 1.21.851 1.818a2.34 2.34 0 0 1 .322 1.628.142.142 0 0 0 .063.159c.043.026.094.055.146.084s.108.06.151.088a.544.544 0 0 0 .058.461.44.44 0 0 0 .373.153 1.339 1.339 0 0 0 .257-.029 12.046 12.046 0 0 0 4.374-1.767c.518-.344 1.014-.732 1.494-1.108.334-.261.668-.522 1.01-.771a.927.927 0 0 1 .369-.113l.063-.011c0 .023.007.048.011.071a.762.762 0 0 1 .006.369l-.3.683a21.783 21.783 0 0 1-1.242 2.55 5.493 5.493 0 0 1-4.894 2.741h-.185a18.937 18.937 0 0 1-2.133-.164c-.257-.029-.515-.059-.773-.085a.527.527 0 0 1-.127-.116l.007-.008c.044-.046.118-.123.149-.125.479-.048.991-.077 1.659-.092h.182c.22 0 .442.008.663.016s.449.016.672.016a5.056 5.056 0 0 0 1.022-.088 5.457 5.457 0 0 0 4.4-4.241.142.142 0 0 0-.138-.179.144.144 0 0 0-.085.028A12.809 12.809 0 0 1 110 380.46c-.126.029-.256.066-.387.1a3.256 3.256 0 0 1-.824.162.844.844 0 0 1-.245-.033 1.834 1.834 0 0 0-.519-.081 2.041 2.041 0 0 0-1.406.754l-.067.063a4.454 4.454 0 0 1-1.372.855 14.185 14.185 0 0 1-5.21 1.2h-.11a1.158 1.158 0 0 0-.276.041c-.034.009-.069.017-.1.023a.142.142 0 0 0-.109.093.144.144 0 0 0 .027.141c.021.024.041.051.061.078a.72.72 0 0 0 .2.207c.345.2.7.392 1.056.581.516.273 1.027.539 1.538.805 1.179.614 2.4 1.249 3.57 1.918a10.41 10.41 0 0 1 2.181 1.625 2.077 2.077 0 0 1-.826 3.669 7.8 7.8 0 0 1-2.543.442zm.842-1.637a1.064 1.064 0 0 0-.5.309c-.057.051-.113.1-.171.145a.146.146 0 0 0-.057.122.143.143 0 0 0 .07.115l.5.3a.144.144 0 0 0 .147 0l.7-.42a.141.141 0 0 0 .069-.124.142.142 0 0 0-.072-.122c-.056-.032-.114-.074-.172-.115a.848.848 0 0 0-.454-.211zm-3.064.144a.643.643 0 0 0-.2.039.922.922 0 0 0-.193.118l-.062.044a.142.142 0 0 0 .022.248l.057.028a.605.605 0 0 0 .184.07 3.671 3.671 0 0 0 .6.07 1.019 1.019 0 0 0 .306-.061l.11-.033a.142.142 0 0 0 .042-.259c-.034-.021-.068-.044-.1-.068a1.349 1.349 0 0 0-.284-.164.805.805 0 0 0-.286-.04h-.1zm-7.213-9.386a.145.145 0 0 0-.1.039c-.065.062-.134.121-.2.182a3.12 3.12 0 0 0-.461.459A6.468 6.468 0 0 1 89 385.638a.8.8 0 0 0-.269.066l-.093.033a.143.143 0 0 0-.067.231l.065.08a1.006 1.006 0 0 0 .19.2l.337.249c.727.537 1.453 1.074 2.19 1.6a27.043 27.043 0 0 0 8.839 3.78 1.6 1.6 0 0 0 .417.061 1.214 1.214 0 0 0 .9-.419 1.525 1.525 0 0 1 1.1-.514 1.905 1.905 0 0 1 1.017.34l.11.073a.85.85 0 0 0 .462.2.657.657 0 0 0 .487-.284 1.091 1.091 0 0 1 .838-.43 1.391 1.391 0 0 1 .712.225.927.927 0 0 0 .407.131.228.228 0 0 0 .161-.056 9.768 9.768 0 0 0 .973-1.035.225.225 0 0 0 .04-.178.7.7 0 0 0-.218-.409c-.172-.128-.343-.257-.514-.387a19.528 19.528 0 0 0-1.841-1.284c-1.053-.619-2.138-1.225-3.188-1.809-.823-.459-1.647-.918-2.464-1.389a5.836 5.836 0 0 1-.777-.572c-.147-.122-.3-.243-.448-.355l-.193-.145a4.356 4.356 0 0 0-.788-.512c-.37-.171-.758-.309-1.134-.443-.187-.066-.373-.132-.558-.2-.094-.035-.185-.08-.3-.135l-.21-.1a.135.135 0 0 0-.066-.024zm12.484 8.848a.162.162 0 0 0-.07.017.5.5 0 0 0-.215.211.246.246 0 0 0 .037.23c.011.022.024.045.036.071a.146.146 0 0 0 .112.085h.019a.143.143 0 0 0 .111-.054l.2-.246a.142.142 0 0 0 .03-.108.144.144 0 0 0-.058-.1c-.082-.063-.132-.106-.202-.106zm-59.3-2.22a1.045 1.045 0 0 0-.9.466c-.111.178.073.518.208.62a.493.493 0 0 0 .3.078h.248L48.4 390a3.714 3.714 0 0 0 .629-.068c.079-.018.147-.089.2-.212a.42.42 0 0 0 .031-.343 1.081 1.081 0 0 0-.954-.521zm3.742-.018c-.487.067-.991.134-1.491.234-.122.024-.181.142-.232.245-.016.031-.031.063-.048.089a.142.142 0 0 0 .051.2l.3.162a.141.141 0 0 0 .109.011l.359-.109c.33-.1.662-.2.991-.306a.41.41 0 0 0 .181-.144.57.57 0 0 1 .041-.046.142.142 0 0 0-.018-.219c-.077-.067-.137-.121-.219-.121zm-6.328-.955a.564.564 0 0 0-.456.244.763.763 0 0 0-.038.784 4.058 4.058 0 0 0 .946.738.284.284 0 0 0 .106.029.687.687 0 0 0 .3-.121c.058-.033.122-.069.187-.1a.142.142 0 0 0 .066-.2c-.076-.135-.143-.264-.207-.386a5.5 5.5 0 0 0-.43-.73.6.6 0 0 0-.468-.258zm21.97-6.423c-.3.6.162.912.475 1.118l.162.109a20.257 20.257 0 0 0 2.389 1.465 9.771 9.771 0 0 0 4.4.828c.4 0 .809-.01 1.215-.022a4.954 4.954 0 0 0 2.883-.983c.278-.209.538-.445.79-.674.216-.2.439-.4.669-.581.293-.23.614-.44.924-.643l.2-.129a.892.892 0 0 0 .66.9c.858.313 1.715.678 2.544 1.03l.79.334a7.809 7.809 0 0 0 3.074.563c.357 0 .73-.016 1.141-.05a4.433 4.433 0 0 0 2.517-.968c.117-.1.236-.193.355-.289a9.545 9.545 0 0 0 1.446-1.34c.219-.269.389-.378.588-.378a1.342 1.342 0 0 1 .512.142 10.777 10.777 0 0 0 4.309.9 14.6 14.6 0 0 0 5.735-1.306 1 1 0 0 0 .344-.291l.083-.092a.143.143 0 0 0-.1-.241.134.134 0 0 0-.044.007c-.1.032-.2.066-.3.1a4.67 4.67 0 0 1-.766.218c-.339.055-.679.121-1.019.187a13.9 13.9 0 0 1-2.58.332h-.164a18.344 18.344 0 0 1-5.984-.959 1.2 1.2 0 0 0-.418-.09.827.827 0 0 0-.661.38 7.681 7.681 0 0 1-3.05 2.175 7.454 7.454 0 0 1-3.024.739 4.814 4.814 0 0 1-1.442-.218 14.743 14.743 0 0 1-2.159-.945c-.18-.091-.361-.182-.542-.27-.387-.19-.769-.416-1.138-.635-.161-.1-.322-.191-.485-.285-.327-.434-.479-.632-.712-.632-.2 0-.375.162-.687.457-.167.157-.326.324-.485.491a8.474 8.474 0 0 1-.707.686l-.157.131a5.921 5.921 0 0 1-1.374.946 7.862 7.862 0 0 1-3.08.611 6.906 6.906 0 0 1-5.694-2.657c-.067-.091-.138-.179-.21-.267a4.361 4.361 0 0 1-.3-.394.9.9 0 0 0-.785-.512 1.437 1.437 0 0 0-.481.1 12.392 12.392 0 0 1-2.42.593 11.68 11.68 0 0 1-1.644.123 7.172 7.172 0 0 1-6.181-3.109 14.941 14.941 0 0 1-2.327-4.4 1.952 1.952 0 0 0-.1-.24l-.043-.1a.144.144 0 0 0-.132-.087.143.143 0 0 0-.131.094.909.909 0 0 1-.037.083.519.519 0 0 0-.074.285c.014.121.023.245.033.369a3.4 3.4 0 0 0 .2 1.068 24.816 24.816 0 0 0 1.43 2.927 7.128 7.128 0 0 0 5.072 3.476 11.455 11.455 0 0 0 2.15.194 18.207 18.207 0 0 0 3.408-.362 6.771 6.771 0 0 1 1.026-.121.561.561 0 0 1 .119.11zm13.424-3.315c-.366.028-.731.054-1.1.08-.865.062-1.759.125-2.654.213a2.372 2.372 0 0 0-2.349 1.613l-.305 1.05c-.192.644-.385 1.288-.571 1.933a.614.614 0 0 0 .053.56.667.667 0 0 0 .564.215 6.035 6.035 0 0 0 4.238-1.374c.214-.2.422-.4.631-.6.331-.322.673-.655 1.029-.954.4-.333.586-.48.749-.48s.361.142.727.4l.085.06c.768.54 1.577 1.046 2.359 1.535l.473.3a1.461 1.461 0 0 0 .41.156c.058.015.116.031.173.05a.149.149 0 0 0 .045.007.146.146 0 0 0 .1-.037.143.143 0 0 0 .042-.139l-.037-.162c-.028-.123-.057-.247-.092-.369-.045-.156-.093-.313-.141-.47-.057-.185-.113-.371-.166-.558s-.1-.367-.144-.552c-.079-.316-.161-.643-.266-.959-.4-1.2-.8-1.5-2.048-1.513h-.664zm-2.942-14.128a.851.851 0 0 0-.248.05c-.038.012-.076.024-.113.031a.142.142 0 0 0-.029.27c.036.016.074.03.111.044a.746.746 0 0 1 .182.085c.181.136.364.27.546.4.516.379 1.05.771 1.544 1.19a2.839 2.839 0 0 1 .95 2.679c-.119 1.151-.151 2.329-.182 3.467-.01.365-.02.731-.033 1.1-.023.664-.028 1.393-.017 2.293a1.046 1.046 0 0 1-.805 1.12l-.309.1a5.738 5.738 0 0 1-1.174.293c-.607.061-1.229.089-1.831.117-.426.019-.852.038-1.278.069-.2.014-.6.1-.7.326l-.022.052c-.495 1.131-1.006 2.3-1.4 3.49a5.565 5.565 0 0 0-.211 1.456c-.009.158-.018.316-.031.472a.61.61 0 0 0 .113.347 1.171 1.171 0 0 1 .058.111.145.145 0 0 0 .1.082.154.154 0 0 0 .033 0 .146.146 0 0 0 .092-.033 1.02 1.02 0 0 1 .1-.07.5.5 0 0 0 .251-.273l.1-.407c.188-.788.382-1.6.513-2.417a2.693 2.693 0 0 1 2.556-2.525c1.863-.189 3.9-.314 6.231-.38a2.073 2.073 0 0 1 .909.32c.152.08.3.159.454.222a1.573 1.573 0 0 1 .174.09l.089.049a.145.145 0 0 0 .067.017.138.138 0 0 0 .077-.023.141.141 0 0 0 .066-.127.876.876 0 0 1 0-.1.4.4 0 0 0-.07-.323c-.052-.051-.1-.105-.154-.159a1.892 1.892 0 0 0-.7-.543 6.051 6.051 0 0 0-1.559-.261c-.521-.035-.828-.083-.958-.236-.111-.13-.133-.375-.082-.9a6.162 6.162 0 0 1 .161-.835l.048-.2.118.068c.24.138.479.276.722.409a1.225 1.225 0 0 0 .236.092l.1.031a.136.136 0 0 0 .048.009.143.143 0 0 0 .1-.036.141.141 0 0 0 .044-.139c-.007-.029-.012-.059-.018-.089a.925.925 0 0 0-.067-.241c-.066-.141-.141-.278-.216-.416a4.225 4.225 0 0 1-.347-.75 16.069 16.069 0 0 1-.608-5.3 1.456 1.456 0 0 1 .664-1.21l.379-.256c.755-.512 1.535-1.042 2.334-1.5a3.91 3.91 0 0 1 1.968-.546 4.248 4.248 0 0 1 1.731.387c.586.261 1.166.567 1.727.864.383.2.766.4 1.155.595a1.428 1.428 0 0 0 .5.11l.1.01c.007.086.012.172.017.259a4.191 4.191 0 0 0 .1.833c.4 1.519.816 3.034 1.232 4.548l.368 1.342c.269.984.085 1.384-.789 1.715a7.58 7.58 0 0 1-1.932.462 11.69 11.69 0 0 0-5 1.352 1.441 1.441 0 0 0-.535.881.812.812 0 0 0 .07.62.205.205 0 0 0 .179.077.545.545 0 0 0 .269-.072c.17-.11.334-.237.5-.364a3.321 3.321 0 0 1 .958-.59 21.271 21.271 0 0 1 5.828-1.172 1.033 1.033 0 0 0 .761-.223.964.964 0 0 0 .148-.734 4.81 4.81 0 0 1 .221-1.481.863.863 0 0 1 .243-.133c.064-.027.126-.055.182-.085a.143.143 0 0 0 .07-.163c-.129-.468-.262-.936-.394-1.4-.295-1.037-.6-2.109-.847-3.173-.466-2-.083-2.91 1.709-4.039.623-.393 1.233-.826 1.822-1.245.258-.184.517-.367.776-.548l.407-.012a11.647 11.647 0 0 1-3.03 2.55 2.13 2.13 0 0 0-1.127 2.375c.332 1.472.754 2.949 1.162 4.377l.236.829a2 2 0 0 0 .372.638l.089.119a1.935 1.935 0 0 0 1.537.859h.5a20.873 20.873 0 0 0 2.633-.141 17.223 17.223 0 0 0 1.768-.351c.393-.093.787-.186 1.184-.259.207-.038.385-.082.462-.23a.569.569 0 0 0-.064-.487c-.3-.66-.6-1.327-.887-1.993-.377-.86-.766-1.75-1.178-2.612l-.173-.362a32.17 32.17 0 0 0-3.1-5.525c-.006-.009-.029-.033-.033-.038a.649.649 0 0 0-.466-.247.538.538 0 0 0-.392.194 1.57 1.57 0 0 0-.495-.106.872.872 0 0 0-.7.395 1.95 1.95 0 0 1-1.185.488c-.618.1-1.257.15-1.876.2-.287.022-.575.046-.861.073a2.253 2.253 0 0 0-.279.049l-.12.025a.143.143 0 0 0 .007.281l.354.049c.6.075.884.171.961.323s-.014.443-.306.974l-.062.11c-.06.106-.12.212-.17.323-.188.418-.4.418-.473.418a.857.857 0 0 1-.437-.159A2.972 2.972 0 0 0 91 365.036c-.381-.163-.472-.359-.357-.777a10.1 10.1 0 0 0 .24-1.331c.03-.226.061-.453.1-.676a.964.964 0 0 1 .066-.2 1.41 1.41 0 0 1 .174.159.713.713 0 0 1 .1.173c.016.035.033.071.051.1a.143.143 0 0 0 .126.076h.017a.143.143 0 0 0 .122-.106.829.829 0 0 1 .027-.082.524.524 0 0 0 .047-.272l-.1-.63c-.188-1.15-.382-2.34-.6-3.507-.111-.6-.237-1.2-.363-1.8s-.256-1.222-.369-1.836a1.241 1.241 0 0 0-1.179-.938.936.936 0 0 0-.359.07.385.385 0 0 0-.179.219.287.287 0 0 0-.006.232 7.245 7.245 0 0 1 .615 2.618 10.75 10.75 0 0 0 .33 1.926 27.9 27.9 0 0 1 .752 3.624 1.838 1.838 0 0 1-.172 1.477 1.616 1.616 0 0 1-1.272.372h-.23l-.24-.014c-.177-.008-.354-.012-.53-.012a22.557 22.557 0 0 0-4.395.56.654.654 0 0 0-.349.289.3.3 0 0 0-.055.236c.167.616-.176.837-.61 1.117a3.424 3.424 0 0 0-.4.286.465.465 0 0 1-.3.136.645.645 0 0 1-.441-.259.822.822 0 0 1-.265-.937.542.542 0 0 0-.057-.38.454.454 0 0 0-.232-.244c-.83-.26-1.658-.476-2.429-.671a.4.4 0 0 0-.106-.018zm-10.229 15.9a.823.823 0 0 1 .691.378c.185.242.384.474.582.706s.386.45.566.685a5.17 5.17 0 0 0 2.656 1.715l.047.016a.844.844 0 0 0 .26.059.247.247 0 0 0 .206-.094c.071-.091.077-.227.02-.441a7.186 7.186 0 0 1-.173-1.123c-.012-.124-.025-.248-.039-.371a.141.141 0 0 0 .083-.14c-.011-.15-.021-.3-.03-.452-.02-.324-.04-.66-.087-.989-.371-2.589-.574-2.937-3.213-3.263a13.67 13.67 0 0 0-1.654-.109 5.98 5.98 0 0 0-5.808 3.289c-.112.207-.239.442-.133.629a.57.57 0 0 0 .485.209c.168.009.337.023.506.037.285.024.579.049.869.049a3.862 3.862 0 0 0 .558-.037 27.016 27.016 0 0 0 3.186-.688 1.641 1.641 0 0 1 .428-.062zm25.921-2.747a6.84 6.84 0 0 0-.755.038 35.715 35.715 0 0 0-3.688.619 7.749 7.749 0 0 0-1.947.692c-.812.425-.867.891-.683 1.657.088.365.192.726.3 1.087.063.216.125.432.185.65.249.916.423 1.434 1.107 1.434a4.619 4.619 0 0 0 1.066-.2 1.007 1.007 0 0 0 .133-.048.663.663 0 0 1 .093-.035 9.664 9.664 0 0 0 3.489-1.951 2.361 2.361 0 0 1 1.465-.642 1.9 1.9 0 0 1 .495.069 11.075 11.075 0 0 0 1.4.256c.188.026.372.052.546.081h.023a.107.107 0 0 0 .025 0 .735.735 0 0 1 .127-.009c.041 0 .208.007.247.007a.4.4 0 0 0 .345-.127.41.41 0 0 0 .018-.362 13.692 13.692 0 0 0-.747-1.718q-.12-.242-.236-.486a1.559 1.559 0 0 0-1.347-.928l-.349-.024c-.428-.029-.87-.058-1.306-.058zm-8.079 2.295a.208.208 0 0 0-.155.078.466.466 0 0 0-.1.3c.146.922.3 1.844.454 2.765l.029.17c.009.051.031.184.143.218.232.067.464.128.7.189l.17.045a.163.163 0 0 0 .037 0 .142.142 0 0 0 .141-.166c-.009-.051-.015-.1-.021-.155a1.759 1.759 0 0 0-.073-.373c-.242-.693-.49-1.382-.739-2.072l-.223-.619c-.025-.068-.111-.288-.111-.288a.144.144 0 0 0-.134-.091zm18.352-3.448a3.67 3.67 0 0 0-.975.147 19.137 19.137 0 0 0-2.274.836l-.131.056c-1.6.676-1.733.731-1.4 1.847.062.206.138.456.214.764.039.155.07.293.1.414.232 1.018.34 1.018 1.665 1.018h.354a9.972 9.972 0 0 0 4.032-.947c.8-.421 1.188-.638 1.293-.984s-.117-.755-.521-1.485l-.057-.108a2.552 2.552 0 0 0-2.294-1.556zm-7.413.759a.143.143 0 0 0-.106.238A5.371 5.371 0 0 1 98 380.074c.084.738.177 1 .888 1 .073 0 .154 0 .243-.005a.528.528 0 0 0 .448-.181.488.488 0 0 0-.022-.452l-.16-.363c-.2-.451-.408-.918-.564-1.388-.31-.93-.2-1.2.667-1.672.528-.288 1.06-.569 1.592-.848l.664-.35a.143.143 0 0 0-.067-.269l-.536.016c-.957.028-1.913.056-2.869.1-.191.01-.272.335-.286.4-.167.77-.262.958-.483.958a2.357 2.357 0 0 1-.74-.227.147.147 0 0 0-.05-.016zm-38.9-6.56a11.749 11.749 0 0 0 3.064 3.337 3.051 3.051 0 0 1 1.131 2.3 4.769 4.769 0 0 1-.713 3.348 1.726 1.726 0 0 1-.146.178c-.161.182-.344.388-.308.608a.4.4 0 0 0 .215.278.657.657 0 0 0 .325.1c.329 0 .422-.349.491-.6a1.446 1.446 0 0 1 .078-.242 5.217 5.217 0 0 1 2.72-2.924 9.371 9.371 0 0 1 3.371-.639 9.877 9.877 0 0 1 3.243.567 3.138 3.138 0 0 1 .863.547c.125.1.25.2.377.286a1.118 1.118 0 0 1 .157.144l.083.084a.146.146 0 0 0 .1.039.159.159 0 0 0 .045-.007.144.144 0 0 0 .1-.112c.006-.033.013-.065.022-.1a.867.867 0 0 0 .033-.276c-.079-.87-.111-.918-.858-1.287l-.266-.13a6.907 6.907 0 0 1-1.113-.627 1.571 1.571 0 0 1-.717-1.922 2.185 2.185 0 0 0 .089-.6l.011-.176a.142.142 0 0 0-.1-.148.129.129 0 0 0-.04-.006.143.143 0 0 0-.127.077l-.053.1a2.221 2.221 0 0 0-.178.384 2.43 2.43 0 0 1-1.909 1.735c-.467.107-.931.251-1.38.39-.308.1-.616.191-.926.276a5.325 5.325 0 0 1-1.363.221c-1.05 0-1.607-.564-2.058-2.08-.018-.06-.029-.122-.041-.184a1.658 1.658 0 0 0-.076-.292c-.221-.56-.448-1.118-.675-1.676l-.238-.586-.008-.5c-.007-.5-.015-1-.028-1.5a1.238 1.238 0 0 0-.053-.293c-.01-.038-.02-.076-.028-.114a.143.143 0 0 0-.131-.112h-.009a.143.143 0 0 0-.135.1l-.035.1c-.027.078-.055.156-.079.235l-.468 1.559a1.114 1.114 0 0 1-.754.321 1.446 1.446 0 0 1-.757-.25 4.284 4.284 0 0 0-.517-.256l-.146-.065v-.6a.142.142 0 0 0-.089-.133.138.138 0 0 0-.054-.01.145.145 0 0 0-.1.044c-.2.2-.388.415-.58.626a11.278 11.278 0 0 1-1.4 1.371 2.09 2.09 0 0 0-.611 2.476 3.272 3.272 0 0 0 .394.919c.155.251.309.5.463.754.568.929 1.155 1.89 1.807 2.784a7.137 7.137 0 0 0 1.236 1.214c.146.122.292.244.433.368a.706.706 0 0 0 .456.206.617.617 0 0 0 .53-.4c.113-.218.242-.428.37-.638a8.251 8.251 0 0 0 .515-.936 3.486 3.486 0 0 0-1.021-4.152 7.947 7.947 0 0 1-1.983-2.317 4.614 4.614 0 0 0-.429-.607c-.044-.057-.09-.113-.134-.171zM73.37 377.1a.144.144 0 0 0-.1.04.141.141 0 0 0-.042.122l.022.163c.017.129.034.258.057.386.044.237.091.473.155.7a.4.4 0 0 0 .14.188.624.624 0 0 1 .049.045.141.141 0 0 0 .1.045.144.144 0 0 0 .088-.03.457.457 0 0 1 .049-.032.354.354 0 0 0 .151-.148l.039-.087a3.228 3.228 0 0 0 .226-.6c0-.005.116-.545-.112-.638a2.366 2.366 0 0 0-.593-.13c-.07-.01-.141-.019-.211-.03zM72.344 367a17.775 17.775 0 0 1-.752 3.7l-.082.277c-.209.7-.424 1.424-.675 2.119a1.121 1.121 0 0 0 .543 1.5c1.075.57 2.184 1.119 3.256 1.649l.833.413a.85.85 0 0 0 .37.083h.055c.305-.02.611-.036.918-.052.8-.043 1.635-.087 2.445-.206 1.052-.155 1.1-.29 1.122-1.3v-.1c.013-.5.021-.993.029-1.49.022-1.44.045-2.929.207-4.375a3.249 3.249 0 0 0-1.2-3.061 3.614 3.614 0 0 0-2.438-1.139 3.455 3.455 0 0 0-1.527.392 6.2 6.2 0 0 1-2.663.74h-.08a1.65 1.65 0 0 1 1-.692c.523-.2 1.049-.389 1.574-.58l1.02-.372a1.914 1.914 0 0 0 .269-.132l.11-.06a.142.142 0 0 0-.049-.268c-.034 0-.068-.011-.1-.017a1.1 1.1 0 0 0-.205-.026.481.481 0 0 0-.091.008c-.276.051-.553.107-.829.163-.387.079-.775.159-1.166.222a3 3 0 0 1-.467.037 2.653 2.653 0 0 1-1.848-.753c-.415-.393-.264-.821-.089-1.316a4.6 4.6 0 0 0 .144-.459 3.973 3.973 0 0 1 .231-.654l1.247-2.887q.994-2.3 1.983-4.6a2.022 2.022 0 0 0 .118-.449c.012-.065.024-.129.039-.192a.142.142 0 0 0-.14-.174.149.149 0 0 0-.043.006l-.213.064a4.659 4.659 0 0 0-.557.19.553.553 0 0 0-.229.24c-.018.028-.034.055-.053.08a21.318 21.318 0 0 0-3.209 5.652 21.153 21.153 0 0 1-.957 2.309 2.859 2.859 0 0 1-2.246 1.772c-.218.029-.448.081-.508.254s.088.321.231.464l.077.078q.866.919 1.736 1.834a4.316 4.316 0 0 1 1.479 3.832.142.142 0 0 0 .1.161.159.159 0 0 0 .036 0 .143.143 0 0 0 .134-.094l.165-.455c.163-.452.326-.9.505-1.348.139-.325.288-.657.44-.988zm23.3 9.363a.143.143 0 0 0-.11.083.142.142 0 0 0 .012.138.193.193 0 0 0 .143.1.518.518 0 0 0 .088-.009.166.166 0 0 0 .121-.088.145.145 0 0 0 0-.138.236.236 0 0 0-.153-.1zm-8.509-11.2a3.024 3.024 0 0 0-1.362.322c-.732.366-1.446.792-2.136 1.205-.227.136-.455.272-.683.406a1.352 1.352 0 0 0-.7 1.332c.019.337.022.675.025 1.013 0 .377.007.766.033 1.15.187 2.674 1.141 4.4 3 5.433a.874.874 0 0 1 .239.2.91.91 0 0 0 .7.376 1.139 1.139 0 0 0 .64-.236 9.19 9.19 0 0 1 4.381-1.3 6.431 6.431 0 0 0 1.2-.241c.986-.306 1.084-.483.806-1.452-.042-.146-.091-.291-.14-.436a5.006 5.006 0 0 1-.225-.812c-.228-1.446-.464-2.983-.63-4.5l-.009-.081c-.051-.484-.1-.941-.885-.977a3.361 3.361 0 0 1-.993-.262c-.155-.057-.311-.115-.466-.163h-.022l-.357-.184c-.314-.163-.639-.332-.972-.474a3.68 3.68 0 0 0-1.441-.32zm-5.12 10a.142.142 0 0 0-.139.109 1.3 1.3 0 0 1-.041.124.6.6 0 0 0-.049.388 1.036 1.036 0 0 0 .388.463.414.414 0 0 0 .252.062h.253a.143.143 0 0 0 .051-.01l.337-.13a.143.143 0 0 0 .087-.1.145.145 0 0 0-.026-.126l-.079-.1a2.419 2.419 0 0 0-.214-.258 1.26 1.26 0 0 0-.327-.227c-.1-.051-.206-.093-.312-.134l-.128-.051a.141.141 0 0 0-.05-.006zm13.125 0c-.1 0-.185.114-.186.114a.151.151 0 0 0-.015.138 1.214 1.214 0 0 0 .157.286.157.157 0 0 0 .116.055.388.388 0 0 0 .173-.063l.089-.044a.142.142 0 0 0 .03-.24l-.053-.043c-.078-.064-.15-.122-.225-.176a.147.147 0 0 0-.083-.027zm9.489-.52a.622.622 0 0 0-.175.024c-.509.156-1.015.322-1.521.488l-.417.136a.142.142 0 0 0 .044.277l.409-.007c.594-.011 1.187-.022 1.781-.041a.649.649 0 0 0 .374-.176.159.159 0 0 0 .027-.128 1.036 1.036 0 0 0-.218-.473.434.434 0 0 0-.301-.101zm-8.885-.245a.145.145 0 0 0-.068.017.143.143 0 0 0-.067.17l.063.189a.143.143 0 0 0 .136.1h.005a.143.143 0 0 0 .133-.108.2.2 0 0 0 0-.187 1.124 1.124 0 0 0-.091-.125.142.142 0 0 0-.108-.054zm-28.8-10.483a1.716 1.716 0 0 0-.687.225 2.438 2.438 0 0 1-.533.209 5.855 5.855 0 0 0-3.578 2.624 3.181 3.181 0 0 0-.674 2.108c.007.088.008.175.01.263a2 2 0 0 0 .072.609c.476 1.412.99 2.841 1.434 4.07a.955.955 0 0 0 .961.627 5.76 5.76 0 0 0 1.385-.147c.452-.125.9-.277 1.339-.423s.863-.29 1.3-.411a1.449 1.449 0 0 0 .991-.971l.251-.646c.3-.779.618-1.584.9-2.388a2.489 2.489 0 0 0-.33-2.416c-.188-.255-.374-.513-.559-.77-.331-.458-.661-.916-1-1.364-.072-.094-.143-.2-.214-.3a2.1 2.1 0 0 0-.88-.87.528.528 0 0 0-.181-.03zm-4.438-.756a.142.142 0 0 0-.076.021c-.034.022-.071.04-.108.058a.789.789 0 0 0-.276.2q-2.016 2.536-4.013 5.089a.725.725 0 0 0-.116.269l-.026.09a.143.143 0 0 0 .008.112.144.144 0 0 0 .087.071l.127.035a2.313 2.313 0 0 1 .3.093 2.511 2.511 0 0 0 .8.255c.341 0 .44-.311.6-.825a10.609 10.609 0 0 1 2.241-3.994 4.328 4.328 0 0 0 .577-.8.635.635 0 0 0 .033-.393c-.006-.046-.012-.092-.013-.136a.141.141 0 0 0-.143-.139zm.7.936a.513.513 0 0 0-.443.283q-.6.986-1.217 1.965l-.428.686a.141.141 0 0 0 .035.188.139.139 0 0 0 .086.029.143.143 0 0 0 .105-.045l2.53-2.722.45-.094c.729-.153 1.458-.3 2.185-.465a.33.33 0 0 0 .1-.6 1.361 1.361 0 0 0-.261-.131l-.085-.036c-.821-.363-1.258-.6-1.365-.916s.085-.762.5-1.539c.118-.221.26-.437.4-.646.1-.153.2-.306.295-.463.126-.21.242-.428.358-.644l.155-.287.107-.12a.143.143 0 0 0-.2-.2l-.149.12c-.182.182-.355.351-.528.52-.447.436-.908.888-1.324 1.369a1.221 1.221 0 0 0-.2 1.008 2.594 2.594 0 0 1-.553 2.878.8.8 0 0 1-.223-.058.949.949 0 0 0-.321-.081zm29.8.816l-.676.046a.143.143 0 0 0-.123.09.141.141 0 0 0 .029.149l.121.129c.09.1.18.193.272.287l.047.049a.592.592 0 0 0 .406.249.424.424 0 0 0 .331-.2 1.723 1.723 0 0 0 .227-.455c.024-.065.049-.13.077-.191a.143.143 0 0 0-.131-.2zm-10.923-.941a.142.142 0 0 0-.131.085l-.1.224c-.084.188-.168.375-.247.564a4.665 4.665 0 0 0-.2.575.351.351 0 0 0 .13.373.752.752 0 0 0 .291.076.265.265 0 0 0 .161-.047 4.174 4.174 0 0 0 .437-.387l.156-.149a.142.142 0 0 0 .036-.154l-.4-1.067a.143.143 0 0 0-.13-.093zm9.414.752a.256.256 0 0 0 .04.055.248.248 0 0 0 .138.052h.027a.146.146 0 0 0 .14-.1.141.141 0 0 0-.061-.163l-.068-.04v-.026a.527.527 0 0 0-.067-.292.929.929 0 0 0-.244-.225c-.032-.022-.063-.045-.093-.069a.14.14 0 0 0-.09-.032.145.145 0 0 0-.067.017.142.142 0 0 0-.076.138c0 .045.006.091.008.137a1.32 1.32 0 0 0 .06.4c.044.122.183.133.318.145zm-10.161-1.064a.143.143 0 0 0-.137.1l-.029.1a.14.14 0 0 0 .017.118.142.142 0 0 0 .1.065h.022a.171.171 0 0 0 .111-.036.154.154 0 0 0 .063-.111l-.006-.1a.143.143 0 0 0-.126-.133zm-4.461-.135a13.03 13.03 0 0 1 2.958.352 2.664 2.664 0 0 0 .52.093.313.313 0 0 0 .239-.089c.115-.12.107-.307.089-.717 0-.093-.011-.176-.017-.26l-.008-.111a.143.143 0 0 0-.1-.128l-.063-1.686c-.055-1.471-.109-2.943-.175-4.414-.041-.914-.107-1.9-.208-3.118-.033-.407-.056-.675-.391-.675a2.281 2.281 0 0 0-.388.055l-.122.023a9.2 9.2 0 0 1-1.658.194q-.158 0-.314-.01l-.138-.011c-.209-.015-.374-.027-.509-.027-.611 0-.705.257-1.016 1.107q-.89 2.438-1.789 4.873l-.983 2.672c-.125.34-.247.681-.357 1.025a.769.769 0 0 0 .045.649.619.619 0 0 0 .457.275l.2.029a8.364 8.364 0 0 0 1.192.116 3.089 3.089 0 0 0 .546-.045 11.55 11.55 0 0 1 1.997-.174zm6.222-2.585a.143.143 0 0 0-.087.132V362.753c.009.7.012 1.025.6 1.025.129 0 .293-.013.5-.03q1.782-.144 3.562-.3l1.342-.112a.879.879 0 0 0 .636-.217.937.937 0 0 0 .108-.7 3.346 3.346 0 0 0-.077-.43l-.038-.173c-.115-.575-.247-1.146-.379-1.718a22.1 22.1 0 0 1-.738-4.746 2.689 2.689 0 0 0-.369-1.2 1.133 1.133 0 0 0-.7-.556c-1.013-.188-2.348-.422-3.694-.574a1.507 1.507 0 0 0-.172-.01 1.139 1.139 0 0 0-.876.372 1.423 1.423 0 0 0-.31 1.13c.176 1.556.341 3.113.506 4.67zm7.39-6.828a.143.143 0 0 0-.143.143v.062a.541.541 0 0 0 .013.207c.046.148.1.3.147.442s.106.31.154.466c.17.56.365 1.123.554 1.667a17.284 17.284 0 0 1 1.12 4.523c.037.587.08 1.268.439 1.54a1.435 1.435 0 0 0 .865.2h.548c.089 0 .154 0 .228.007h.011a.142.142 0 0 0 .138-.1h.239c.126 0 .253.005.378.005.155 0 .309 0 .463-.015.62-.045.964-.175 1.15-.432a1.413 1.413 0 0 0 .046-1.21c-.089-.346-.192-.689-.3-1.032a14.685 14.685 0 0 1-.446-1.728 2.177 2.177 0 0 0-.837-1.509c-1.435-1.057-2.909-2.11-4.335-3.128l-.043-.031a.482.482 0 0 0-.286-.064.759.759 0 0 1-.089 0zm-9.089.61a.583.583 0 0 0-.454.157.726.726 0 0 0-.1.584c0 .046.009.093.011.138q.114 2.452.235 4.9l.015.31c.021.45.042.914.091 1.371a5.358 5.358 0 0 0 .145.727c.026.1.052.207.075.311a.142.142 0 0 0 .14.112.143.143 0 0 0 .137-.12l.158-.973a1.785 1.785 0 0 0 .606-1.814c-.007-.117-.015-.233-.018-.348l-.183-5.145c-.007-.209-.02-.417-.032-.625l-.017-.282a.143.143 0 0 0-.265-.066l-.114.188c-.1.171-.206.343-.318.509a.193.193 0 0 1-.08.064zm-18.313 7.671a.154.154 0 0 0-.039.005.142.142 0 0 0-.1.093.352.352 0 0 1-.019.044.3.3 0 0 0-.033.232 1.009 1.009 0 0 0 .13.228l.051.076a.142.142 0 0 0 .121.066.142.142 0 0 0 .142-.126l.013-.089a.969.969 0 0 0 .017-.269.289.289 0 0 0-.152-.195l-.041-.03a.144.144 0 0 0-.083-.037zm.709-.964a.145.145 0 0 0-.08.024.472.472 0 0 0-.133.7.481.481 0 0 1 .071.206 1.21 1.21 0 0 0 .04.393.92.92 0 0 0 .1.218l.04.074a.144.144 0 0 0 .128.079h.011a.144.144 0 0 0 .125-.1l.021-.061a.763.763 0 0 0 .049-.187 2.9 2.9 0 0 0 .005-.29v-.251l-.237-.709a.142.142 0 0 0-.09-.088.136.136 0 0 0-.044-.01zm4.768-4.88a1.974 1.974 0 0 0-1.391 1.282c-.212.508-.436 1.011-.66 1.514l-.3.673c-.062.14-.125.278-.189.418a11.8 11.8 0 0 0-.473 1.136.751.751 0 0 0 .24.749 3.7 3.7 0 0 0 1.753.5 2.361 2.361 0 0 0 2.164-1.386 10.408 10.408 0 0 0 .574-1.338 21.97 21.97 0 0 1 2.748-5.662.555.555 0 0 0 .083-.3.224.224 0 0 0 .049-.022.2.2 0 0 0 .085-.157.152.152 0 0 0-.066-.162.16.16 0 0 0-.08-.022.127.127 0 0 0-.088.033l-.1.1-.812.423c-.8.416-1.629.847-2.433 1.291a1.224 1.224 0 0 0-.483.628c-.436 1.179-.867 2.4-1.317 3.722a.489.489 0 0 0 .009.449.281.281 0 0 0 .242.114.742.742 0 0 0 .278-.067h.006a.474.474 0 0 1 .131.024.948.948 0 0 1-.143.2.7.7 0 0 1-.486.223.652.652 0 0 1-.332-.1c-.261-.154-.3-.362-.127-.768.068-.165.13-.332.192-.5.049-.133.1-.265.151-.4.225-.561.961-2.381.961-2.381a.615.615 0 0 0 .062-.043.191.191 0 0 0 .056-.129.144.144 0 0 0-.089-.163.141.141 0 0 0-.174.06zm29.663 5.119a.14.14 0 0 0-.055.011.144.144 0 0 0-.084.1c-.006.028-.015.057-.023.086a.6.6 0 0 0-.036.285.466.466 0 0 0 .152.234l.055.058a.141.141 0 0 0 .1.052h.011a.143.143 0 0 0 .095-.035l.311-.276a.143.143 0 0 0-.019-.228l-.43-.266a.142.142 0 0 0-.071-.024zm-.987-1.6a.143.143 0 0 0-.116.11.473.473 0 0 1-.018.056.351.351 0 0 0-.02.243c.077.2.163.4.25.6l.092.21a.143.143 0 0 0 .131.087.142.142 0 0 0 .13-.1l.105-.293a.245.245 0 0 0 0-.161l-.416-.686a.144.144 0 0 0-.122-.069zm-15.86-7.836a.538.538 0 0 0-.3.14.22.22 0 0 0-.1.17l.041.272c.025.171.045.305.07.438.015.083.038.164.061.245l.028.1a.144.144 0 0 0 .113.1h.025a.144.144 0 0 0 .118-.061c.019-.027.04-.053.061-.078a.667.667 0 0 0 .152-.255 3.083 3.083 0 0 0 .107-.731.3.3 0 0 0-.1-.21.431.431 0 0 0-.265-.135zm1.039.074a.145.145 0 0 0-.1.073c-.025.046-.053.089-.078.128a.69.69 0 0 0-.134.314.412.412 0 0 0 .139.288.788.788 0 0 1 .059.072.145.145 0 0 0 .112.062h.006a.143.143 0 0 0 .111-.053l.064-.078a3.6 3.6 0 0 0 .26-.345c.072-.115-.009-.18-.171-.309l-.152-.123a.146.146 0 0 0-.091-.033zm-1.83-.023a.143.143 0 0 0-.119.091l-.018.044a.731.731 0 0 0-.052.155.219.219 0 0 0 .054.17.16.16 0 0 0 .131.079h.017a.143.143 0 0 0 .128-.082l.071-.176a.144.144 0 0 0-.012-.129l-.055-.086a.143.143 0 0 0-.121-.066zm-2.382-.022l-.213.048a.142.142 0 0 0 0 .277l.046.014a.5.5 0 0 0 .165.034.349.349 0 0 0 .176-.061.168.168 0 0 0 .095-.152.138.138 0 0 0-.091-.132l-.108-.027a.162.162 0 0 0-.034 0z" class="cls-43" transform="translate(-32.875 -351.625)"/>
            <path id="Path_145" d="M48.014 368.91c-.112 0-.232-.084-.367-.257a2.3 2.3 0 0 1-.538-2.31 1.517 1.517 0 0 1 1.5-1.049 1.216 1.216 0 0 1 .155-.011c.46 0 .818.3 1.2.991l.082.153c.231.437.493.932 1.2.932a.81.81 0 0 1 .064.123.442.442 0 0 1-.127.139.468.468 0 0 1-.243.1h-.048a3.912 3.912 0 0 0-2.551 1.039.544.544 0 0 1-.327.15zm.118-2.316a.143.143 0 0 0-.107.047l-.313.349a.145.145 0 0 0-.036.108.143.143 0 0 0 .056.1c.02.015.039.033.058.05a.523.523 0 0 0 .215.137 2.538 2.538 0 0 0 .314.058c.082.011.165.022.244.042a1.53 1.53 0 0 1 .24.087l.123.051a.138.138 0 0 0 .052.009.142.142 0 0 0 .122-.217c-.022-.035-.041-.073-.061-.11a.884.884 0 0 0-.2-.283 3.254 3.254 0 0 0-.429-.285c-.065-.038-.132-.078-.2-.121a.142.142 0 0 0-.078-.022zm1.227.39a.141.141 0 0 0 .078.1.139.139 0 0 0 .063.015.142.142 0 0 0 .067-.017l.109-.058a.142.142 0 0 0 .046-.212l-.15-.2a.156.156 0 0 0-.042-.037.143.143 0 0 0-.024-.049c-.045-.061-.09-.123-.134-.187a2.594 2.594 0 0 0-.5-.577.293.293 0 0 0-.184-.056 1.26 1.26 0 0 0-.348.076 2.032 2.032 0 0 1-.2.056.141.141 0 0 0-.114.123.142.142 0 0 0 .083.146l.148.065c.1.043.2.086.3.137.192.1.381.211.57.318l.188.107z" class="cls-43" transform="translate(-40.236 -358.75)"/>
            <path id="Path_146" d="M86.855 421.491c-.012.008 0 .018.02.027l-.361.2z" class="cls-43" transform="translate(-60.852 -388.069)"/>
            <path id="Path_147" d="M36.8 374.995a.521.521 0 0 1-.066-.1 1.278 1.278 0 0 1 .131-.178l.007-.009.012.025a.805.805 0 0 1 .072.177 1.22 1.22 0 0 1-.142.075z" class="cls-43" transform="translate(-34.889 -363.667)"/>
            <path id="Path_148" d="M81.39 424.768l.458-.262.034.039-.513.2z" class="cls-43" transform="translate(-58.171 -389.641)"/>
            <path id="Path_149" d="M81.262 425.011l-.1.127c.006-.022.006-.054.021-.066a.467.467 0 0 1 .1-.042z" class="cls-43" transform="translate(-58.064 -389.905)"/>
            <path id="Path_150" d="M146.047 390.1a2.072 2.072 0 0 1 1.341-.7c.127-.032.253-.063.375-.1l.1-.03c1.261-.365 1.31-.449 1.052-1.795l-.154-.818c-.159-.85-.323-1.729-.526-2.586-.02-.085-.033-.176-.047-.268-.057-.379-.128-.851-.672-1.035l-.094-.032a3.885 3.885 0 0 0-1.228-.274 1.693 1.693 0 0 0-.877.238c-.105.062-.21.126-.313.19-.2.123-.4.246-.609.353a2.322 2.322 0 0 1-.274.114 3.367 3.367 0 0 1 2.295-1.357 2.6 2.6 0 0 1 1 .216 1.016 1.016 0 0 0 .373.057h.088a2.644 2.644 0 0 1 .716 1.411c.151.906.343 1.819.528 2.7.107.512.215 1.024.315 1.537a5.375 5.375 0 0 1 .074.753l.01.184a.5.5 0 0 1-.41.565c-.815.19-1.634.364-2.453.537z" class="cls-43" transform="translate(-90.905 -367.471)"/>
            <path id="Path_151" d="M139.444 392.987a.109.109 0 0 1-.022-.021l-.063-.124a1.7 1.7 0 0 1-.195-.487c-.143-.908-.277-1.88-.422-3.06a.193.193 0 0 1 .027-.085.168.168 0 0 1 .028.055c.2.854.4 1.711.573 2.5l.138.609-.018.225a3.16 3.16 0 0 1-.029.353.125.125 0 0 1-.017.035z" class="cls-43" transform="translate(-88.097 -371.23)"/>
            <path id="Path_152" d="M147.486 399.36l-.042.089.057-.074z" class="cls-43" transform="translate(-92.637 -376.525)"/>
            <path id="Path_153" d="M122.585 391.177a3.872 3.872 0 0 1-.708-.08c-.454-.086-.92-.149-1.37-.21-.258-.035-.517-.07-.775-.11a.7.7 0 0 1-.122-.033c.04-.055.086-.114.117-.123a5.779 5.779 0 0 1 .718-.142c.08-.012.156-.024.223-.036.146.026.325.046.5.066a7.7 7.7 0 0 1 .987.15 1.4 1.4 0 0 0 .335.046c.5 0 .623-.4.673-.7.271-1.646.577-3.424.936-5.435a.9.9 0 0 0-.531-1.136.822.822 0 0 1-.092-.045 3.688 3.688 0 0 0-1.678-.691 4.377 4.377 0 0 0-1.6.528 4.892 4.892 0 0 1-.469.176l.409-.354a.339.339 0 0 1 .052-.033 3.8 3.8 0 0 1 1.925-.775 3.415 3.415 0 0 1 2.034 1.018.975.975 0 0 1 .375 1.028c-.062.338-.128.675-.193 1.012-.119.607-.237 1.214-.334 1.824-.143.893-.245 1.79-.335 2.625-.123 1.083-.383 1.43-1.077 1.43z" class="cls-43" transform="translate(-78.117 -367.594)"/>
            <path id="Path_154" d="M116.6 389.512c.03-.185.061-.37.095-.554a.27.27 0 0 1 .034-.084l.035.136q-.083.249-.164.502z" class="cls-43" transform="translate(-76.547 -371.055)"/>
            <path id="Path_155" d="M166.695 387.537a.924.924 0 0 1-.177-.285c-.189-.606-.369-1.214-.55-1.822-.245-.828-.5-1.683-.772-2.519a1.027 1.027 0 0 1 .319-1.24c.472-.365.99-.7 1.49-1.013l.31-.2a2.543 2.543 0 0 1-.792.778c-.079.058-.158.117-.234.177a1.663 1.663 0 0 0-.653 2.03c.21.622.395 1.266.573 1.889q.105.368.212.735l.088.286a6.161 6.161 0 0 1 .22.845.915.915 0 0 1-.034.339z" class="cls-43" transform="translate(-101.855 -366.667)"/>
            <path id="Path_156" d="M173.072 397.176a2.657 2.657 0 0 1 .534-.1c.143-.008.287-.027.432-.046a3.964 3.964 0 0 1 .524-.047 1.252 1.252 0 0 1 .4.057l-1.344.324z" class="cls-43" transform="translate(-106.005 -375.286)"/>
            <path id="Path_157" d="M170.266 379.615l.118-.122c0 .028 0 .068-.014.082a.32.32 0 0 1-.1.042z" class="cls-43" transform="translate(-104.541 -366.162)"/>
            <path id="Path_158" d="M120.633 366.106a.248.248 0 0 1-.075-.142 1.684 1.684 0 0 1 .072-.541q.878-2.745 1.777-5.484c.006-.017.012-.034.02-.052l.066.3-.257.942c-.4 1.482-.841 3.088-1.283 4.693a.457.457 0 0 1-.138.227.31.31 0 0 1-.162.056.07.07 0 0 1-.02.001z" class="cls-43" transform="translate(-78.612 -355.935)"/>
            <path id="Path_159" d="M97.565 388.252c-.758 0-.866-.1-1.291-1.169a21.381 21.381 0 0 1-.684-2.167l-.155-.557a.932.932 0 0 0 .075-.1.245.245 0 0 1 .07.074c.381.963.756 1.929 1.117 2.9a.974.974 0 0 0 .95.732 1.4 1.4 0 0 0 .222-.018 3.563 3.563 0 0 1 .441-.031 1.957 1.957 0 0 0 2.14-1.615 8.909 8.909 0 0 1 .622-1.662l.1-.214a1.485 1.485 0 0 0-.138-1.5l-.066-.1c-.651-1.077-.92-1.524-1.533-1.524a5.416 5.416 0 0 0-1.538.417l-.062.023a.671.671 0 0 1-.138.043 1.545 1.545 0 0 0-.5.191 1.08 1.08 0 0 1-.473.166h-.012l.1-.069a6.4 6.4 0 0 1 .734-.465 4.827 4.827 0 0 1 1.88-.7c.587 0 .973.453 1.765 1.731a1.992 1.992 0 0 1 .227 1.92 24.766 24.766 0 0 0-.837 2.393 1.5 1.5 0 0 1-1.616 1.22c-.2 0-.39.017-.585.031l-.265.019c-.215.025-.393.031-.55.031z" class="cls-43" transform="translate(-65.508 -366.908)"/>
            <path id="Path_160" d="M139.291 368.333a.539.539 0 0 1-.1-.187 2.607 2.607 0 0 1-.026-.679q.232-2.63.482-5.257V364.462a.141.141 0 0 0 .025.081l-.044.751c-.056.955-.113 1.911-.188 2.865 0 .038-.093.122-.147.173z" class="cls-43" transform="translate(-88.312 -357.146)"/>
            <path id="Path_161" d="M149.929 411.135c-.064-.129-.145-.276-.226-.423a11.122 11.122 0 0 1-.71-1.449.629.629 0 0 1 .5-.989c.515-.149 1.055-.253 1.578-.353l.394-.077.018.015a.56.56 0 0 1-.145.1l-.16.058c-.463.168-.941.341-1.418.477a.717.717 0 0 0-.483.332.677.677 0 0 0 .02.56c.215.554.429 1.109.631 1.668a.31.31 0 0 1 .015.088z" class="cls-43" transform="translate(-93.396 -380.95)"/>
            <path id="Path_162" d="M98.141 407.392a.224.224 0 0 1 .014-.052 2.853 2.853 0 0 1 2.787-1.941 4.677 4.677 0 0 1 .647.048l.512.068c.5.065 1 .13 1.5.211a.375.375 0 0 1 .143.084.548.548 0 0 1-.224.12c-.543-.019-1.124-.069-1.778-.155a5.585 5.585 0 0 0-.717-.049 3.05 3.05 0 0 0-2.884 1.666z" class="cls-43" transform="translate(-66.919 -379.675)"/>
            <path id="Path_163" d="M122.889 412.8c.063-.271.121-.534.177-.792.131-.595.254-1.157.418-1.7a1.892 1.892 0 0 1 1.708-1.147 1.29 1.29 0 0 1 .149.009.112.112 0 0 1 .031.012l-.011.013a.8.8 0 0 1-.26.148 2.022 2.022 0 0 0-1.695 2.335 3.269 3.269 0 0 1-.24 1.117c-.012.035-.133.1-.2.13l-.022.011z" class="cls-43" transform="translate(-79.828 -381.638)"/>
            <path id="Path_164" d="M84.89 397.6l.086-.134a1.671 1.671 0 0 1 .415-.509c.644-.432.491-.934.229-1.413-.075-.137-.151-.274-.228-.41a13.572 13.572 0 0 1-.661-1.28c-.276-.644-.534-1.353-.812-2.232-.01-.03-.016-.055-.021-.076l.024.01a.936.936 0 0 0 .137.043l.25.576c.227.525.461 1.068.726 1.587.161.316.351.62.535.914s.392.626.553.952a1.347 1.347 0 0 1-.046 1.295 1.472 1.472 0 0 1-1.152.72.435.435 0 0 1-.035-.043z" class="cls-43" transform="translate(-59.49 -372.448)"/>
            <path id="Path_165" d="M158.334 366.89a1.022 1.022 0 0 1-.138-.36c-.119-1.057-.2-2.081-.288-3.309a.151.151 0 0 1 .013-.061.2.2 0 0 1 .009.029c.152.767.3 1.535.443 2.3l.112.589a.142.142 0 0 0-.07.122v.119a.919.919 0 0 1-.005.211c-.018.121-.046.241-.076.36z" class="cls-43" transform="translate(-98.095 -357.641)"/>
            <path id="Path_166" d="M111.055 376.936c-.2 0-.428-.15-.786-.517-1.169-1.2-1.169-1.2-.155-2.595l.035-.048c.305-.42.571-.874.828-1.313l.088-.15v.009c.012.412.025.825.026 1.238a2.646 2.646 0 0 0 .8 2.282.331.331 0 0 1 .147.223c.006.1-.065.221-.215.373-.349.354-.571.498-.768.498zm-.572-3.1a.143.143 0 0 0-.124.084c-.072.16-.158.313-.24.458a1.536 1.536 0 0 0-.31.94 2.007 2.007 0 0 0 .655.954c.079.079.157.158.229.236a.521.521 0 0 0 .616-.008.713.713 0 0 0 .158-.615c-.146-.418-.322-.831-.493-1.23l-.169-.4a1.386 1.386 0 0 0-.084-.156l-.107-.189a.143.143 0 0 0-.125-.073z" class="cls-43" transform="translate(-72.777 -362.416)"/>
            <path id="Path_167" d="M113.2 371.111l.049-.1-.068.077z" class="cls-43" transform="translate(-74.762 -361.739)"/>
            <path id="Path_168" d="M176.036 407.255a.475.475 0 0 1-.112-.1c-.577-.795-.77-1.237-.667-1.526s.521-.5 1.447-.749a4.585 4.585 0 0 1 .792-.127.36.36 0 0 1 .1.043.418.418 0 0 1-.094.114l-.2.1a5.807 5.807 0 0 1-.976.4.824.824 0 0 0-.592.4.769.769 0 0 0 .075.661 3.087 3.087 0 0 1 .232.64.466.466 0 0 1-.005.144z" class="cls-43" transform="translate(-107.131 -379.336)"/>
            <path id="Path_169" d="M90.1 393.3a.419.419 0 0 1-.214-.064l-.176-.138a10.452 10.452 0 0 1-1.164-1.006c-.2-.208-.208-.3-.2-.338.014-.052.094-.131.375-.23a.576.576 0 0 0 .464.547.155.155 0 0 0 .039.005.142.142 0 0 0 .142-.13l.018-.179c.017-.162.033-.323.034-.486a.329.329 0 0 0-.119-.225.567.567 0 0 1-.04-.045l-.017-.026.007-.16.487.32.108.457c.113.474.226.947.323 1.423a.419.419 0 0 1-.041.276z" class="cls-43" transform="translate(-61.808 -372.075)"/>
            <path id="Path_170" d="M89.473 391.542l.2-.293.048.071-.27.2z" class="cls-43" transform="translate(-62.386 -372.294)"/>
        </g>
    </g>
</svg>
